<?xml version="1.0" standalone="no"?>
<!DOCTYPE svg PUBLIC "-//W3C//DTD SVG 1.1//EN" "http://www.w3.org/Graphics/SVG/1.1/DTD/svg11.dtd" >
<svg xmlns="http://www.w3.org/2000/svg" xmlns:xlink="http://www.w3.org/1999/xlink" version="1.1">
<metadata>
Created by FontForge 20170731 at Mon Mar  6 22:35:33 2017
 By Aleksey,,,
Copyright (c) 2011 by Font Diner, Inc DBA Neapolitan. All rights reserved.
</metadata>
<defs>
<font id="SatisfyPro" horiz-adv-x="567" >
  <font-face 
    font-family="Satisfy Pro"
    font-weight="400"
    font-stretch="normal"
    units-per-em="1000"
    panose-1="2 0 0 0 0 0 0 0 0 0"
    ascent="800"
    descent="-200"
    x-height="378.5"
    cap-height="733"
    bbox="-230 -489 934.1 933.516"
    underline-thickness="50"
    underline-position="-150"
    unicode-range="U+000D-FB02"
  />
<missing-glyph horiz-adv-x="280" 
 />
    <glyph glyph-name="fi" unicode="fi" horiz-adv-x="550" 
d="M423 533q-20 16 -20.5 34t9 34t24.5 27.5t25 13.5q11 2 18.5 -4.5t11 -17t4 -23t-2.5 -22.5t-11 -20t-18.5 -17t-21.5 -9t-18 4zM594 232q8 11 16 13t13 -2t5.5 -13.5t-6.5 -21.5q-13 -24 -43 -61t-64.5 -72t-68 -60.5t-54.5 -26.5q-17 -1 -33 5.5t-29 17.5t-21.5 26
t-10.5 32q-2 29 2 80t15 102q-26 -4 -53 -8.5t-59 -18.5q-17 -6 -33 -12q-15 -5 -29.5 -11t-24.5 -12l-22 -71q57 -40 87 -82t44 -77q17 -41 19 -80q0 -65 -27 -129t-68 -114t-89.5 -80t-91.5 -26q-21 2 -34.5 13.5t-20.5 28.5t-8 38t4 41q4 21 17 77q12 49 34 137t60 237
q-11 10 -15.5 21t-6.5 20q-2 11 0 21q4 13 12 25q7 11 18.5 22.5t31.5 20.5q12 31 22.5 65.5t17.5 63.5q9 34 16 67q24 83 25.5 135t-1.5 69l-2 14q-1 6 -3 13l-4 14q10 6 18.5 9.5t14.5 5.5q7 3 13 4q22 5 42 5.5t22 -7.5q1 -4 2.5 -16.5t1.5 -31.5t-3 -42t-11 -48
q-6 -22 -18 -62q-11 -37 -28.5 -93.5t-45.5 -144.5q23 8 46.5 13t42.5 9q23 4 44 7q30 5 51 6q8 26 16 46.5t18 33.5q5 6 18.5 10t28.5 6.5t27 3t14 -0.5t-4.5 -20.5t-15.5 -46t-18 -54t-14 -45.5t-12 -39.5t-12.5 -43t-7.5 -39.5t3 -29q9 -20 24 -20q20 0 49.5 21.5
t60 51.5t57 61t39.5 49zM159 -55q-8 20 -20 40q-11 19 -26 37.5t-36 33.5q-13 -48 -23.5 -89.5t-17.5 -72.5q-8 -36 -14 -66q-9 -37 -18 -73t-14.5 -64.5t-4.5 -46.5t13 -18q28 -2 59 22t56.5 60.5t42 79t16.5 78.5q0 40 -13 79z" />
    <glyph glyph-name="fl" unicode="fl" horiz-adv-x="517" 
d="M516 678q6 -5 5.5 -19.5t-2.5 -29.5q-3 -19 -9 -41q-11 -42 -32 -121q-18 -72 -47 -185t-75 -292q-5 -5 -12 -6.5t-13 -2.5q-7 0 -14 1q-7 2 -14 6q-6 4 -12 10.5t-9 17.5q11 43 21 85t18 76q9 40 18 76q-33 -3 -65.5 -7.5t-70.5 -21.5q-17 -6 -33 -12q-15 -5 -29.5 -11
t-24.5 -12l-22 -71q57 -40 87 -82t44 -77q17 -41 19 -80q0 -65 -27 -129t-68 -114t-89.5 -80t-91.5 -26q-21 2 -34.5 13.5t-20.5 28.5t-8 38t4 41q4 21 17 77q12 49 34 137t60 237q-11 10 -15.5 21t-6.5 20q-2 11 0 21q4 13 12 25q7 11 18.5 22.5t31.5 20.5q12 31 22.5 65.5
t17.5 63.5q9 34 16 67q24 83 25.5 135t-1.5 69l-2 14q-1 6 -3 13l-4 14q10 6 18.5 9.5t14.5 5.5q7 3 13 4q22 5 42 5.5t22 -7.5q1 -4 2.5 -16.5t1.5 -31.5t-3 -42t-11 -48q-6 -22 -18 -62q-11 -37 -28.5 -93.5t-45.5 -144.5q23 8 46.5 13t42.5 9q23 4 44 7q26 4 44 5.5
t32 2.5q11 46 21.5 90.5t19 82t15 65.5t8.5 40q3 18 5 36q2 17 2 33.5t-3 29.5q8 5 17.5 8t18.5 6q10 2 21 4q10 2 19 2q8 0 15 -1.5t9 -6.5zM159 -55q-8 20 -20 40q-11 19 -26 37.5t-36 33.5q-13 -48 -23.5 -89.5t-17.5 -72.5q-8 -36 -14 -66q-9 -37 -18 -73t-14.5 -64.5
t-4.5 -46.5t13 -18q28 -2 59 22t56.5 60.5t42 79t16.5 78.5q0 40 -13 79z" />
    <glyph glyph-name="a_r" unicode="ar" horiz-adv-x="846" 
d="M215 151q5 20 11.5 46.5t12 50.5t7.5 40.5t-2 15.5q-5 -1 -11 -3q-5 -1 -12 -2.5t-16 -3.5q8 15 9.5 25.5t1.5 16.5q-1 7 -5 11q-11 8 -38 -15t-62 -84q-15 -25 -23.5 -54t-12 -54.5t-1.5 -44.5t8 -25q16 -16 38 -8t42.5 25t35.5 36.5t17 26.5zM341 2q-20 -13 -49 -15.5
t-46 10.5q-8 7 -14 20q-6 11 -10 28.5t-3 43.5q-23 -39 -51.5 -60t-53.5 -31q-30 -11 -59 -13q-14 0 -29.5 9.5t-26 29.5t-14 51.5t7.5 75.5q14 60 44 109t64.5 83.5t69 52t57.5 15.5q27 -4 43 -16q14 -10 18 -28.5t-17 -50.5q15 3 23.5 4t13.5 1q6 0 8 -1t1.5 -8t-3.5 -23
t-9 -44.5t-15 -73.5q-2 -9 -3.5 -16t-3 -14.5t-3.5 -17t-5 -23.5q-1 -9 -0.5 -19.5t3.5 -19t10 -14.5t18 -6q13 0 31.5 17t39.5 43t42 58t39.5 62t33 55t20.5 36q-11 9 -13.5 13t-4.5 19q-1 13 6.5 33t20.5 39t28.5 33t30.5 14q27 0 38 -17.5t13 -36.5q1 -12 -2.5 -32
t-14.5 -35q3 -2 8 -4.5t16 -2.5q17 0 22.5 2t19.5 2q16 0 27 -8t17.5 -20.5t10.5 -26.5t5 -26q2 -24 -13.5 -50.5t-38.5 -58.5q-14 -20 -27.5 -43.5t-11.5 -43.5q2 -13 7 -21t27 -8q25 0 57.5 26t62.5 59.5t53.5 66t31.5 44.5q5 8 13 10.5t14 -0.5t7 -11.5t-7 -23.5
q-6 -10 -20 -31.5t-34.5 -47.5t-45 -54t-51 -51t-53.5 -37.5t-51 -14.5q-25 0 -42 9.5t-27.5 24t-14.5 31t-3 31.5q2 23 19 53t31 56q17 28 27 48t10 34q0 9 -4 15.5t-13 6.5q-6 0 -8.5 -0.5t-5 -0.5t-6.5 -0.5t-12 -0.5q-14 0 -23 4t-17 6q-19 -28 -46.5 -69.5t-59 -82.5
t-64 -77t-61.5 -54z" />
    <glyph glyph-name="a_x" unicode="ax" horiz-adv-x="799" 
d="M215 151q5 20 11.5 46.5t12 50.5t7.5 40.5t-2 15.5q-5 -1 -11 -3q-5 -1 -12 -2.5t-16 -3.5q8 15 9.5 25.5t1.5 16.5q-1 7 -5 11q-11 8 -38 -15t-62 -84q-15 -25 -23.5 -54t-12 -54.5t-1.5 -44.5t8 -25q16 -16 38 -8t42.5 25t35.5 36.5t17 26.5zM537 61q-3 10 -7 22.5
t-9 27.5q-23 -23 -50.5 -45.5t-57.5 -40t-62.5 -28t-65.5 -10.5q-25 0 -39 10q-8 7 -14 20q-6 11 -10 28.5t-3 43.5q-23 -39 -51.5 -60t-53.5 -31q-30 -11 -59 -13q-14 0 -29.5 9.5t-26 29.5t-14 51.5t6.5 75.5q14 60 44 109t65 83.5t69.5 52t57.5 15.5q27 -4 43 -16
q14 -10 18 -28.5t-17 -50.5q15 3 23.5 4t13.5 1q6 0 8 -1t1.5 -8t-3.5 -23t-9 -44.5t-15 -73.5q-2 -9 -3.5 -16t-3 -14.5t-3.5 -17t-5 -23.5q-1 -9 -0.5 -19.5t3.5 -19t9.5 -14.5t18.5 -6q17 0 39 12t47 32t51.5 46t51.5 55q-7 20 -13.5 39t-12 35t-9.5 28t-6 16
q-9 28 -16.5 46.5t-25.5 26.5q12 11 23.5 17t19.5 9q10 4 19 4q22 0 39.5 -39.5t34.5 -108.5q0 -3 2 -7q21 24 40 45.5t33 38t23.5 27t10.5 11.5q19 23 34.5 25.5t28.5 -6.5q6 -4 13 -8q6 -3 13.5 -7t16.5 -8q-17 -15 -36.5 -35.5t-37.5 -38.5q-20 -21 -41 -43
q-15 -15 -34.5 -36.5t-42.5 -46.5q14 -49 30.5 -84.5t35.5 -35.5q16 0 35.5 8.5t41 23t43.5 34t44 40.5q8 8 15 9t10 -3t1 -12.5t-11 -20.5q-42 -52 -73.5 -82t-56 -45t-42.5 -18.5t-33 -3.5q-19 0 -32 9t-21.5 21.5t-13.5 26.5t-8 24z" />
    <glyph glyph-name="b_r" unicode="br" horiz-adv-x="768" 
d="M534 275q-6 0 -14.5 2t-18.5 5q-32 -24 -76 -38t-104 -7q-4 -39 -24 -83.5t-49 -82.5t-63.5 -63t-69.5 -25q-10 0 -28 3t-34.5 21t-28 57t-9.5 110q1 48 10.5 101.5t23.5 107t30.5 104t32.5 91t29 68t20 35.5q9 11 20.5 16.5t23 7.5t21 1t13.5 -3q6 -4 3.5 -42.5
t-18.5 -100.5q-14 -58 -32.5 -111.5t-38 -100t-38 -85t-33.5 -66.5q-10 -70 0 -113t38 -43q24 0 46 21.5t40 53t30 67t15 63.5q-18 5 -31 17.5t-13 32.5q0 14 7.5 26t18.5 20.5t24 13.5t23 5q32 0 40 -65q27 -4 60.5 -5t66.5 13q-3 2 -5.5 3.5t-4.5 3.5q-10 9 -14 13.5
t-6 19.5q-1 13 6.5 33t20 39t28.5 33t31 14q27 0 38 -17.5t13 -36.5q1 -12 -2.5 -32t-14.5 -35q3 -2 8 -4.5t16 -2.5q17 0 22.5 2t19.5 2q16 0 27 -8t17.5 -20.5t10.5 -26.5t5 -26q2 -24 -13.5 -50.5t-38.5 -58.5q-14 -20 -27.5 -43.5t-11.5 -43.5q2 -13 6.5 -21t27.5 -8
q25 0 57.5 26t62.5 59.5t53.5 66t31.5 44.5q5 8 13 10.5t14 -0.5t7 -11.5t-7 -23.5q-6 -10 -20 -31.5t-34.5 -47.5t-45 -54t-51 -51t-53.5 -37.5t-51 -14.5q-25 0 -42 9.5t-27.5 24t-14.5 31t-3 31.5q2 23 19 53t31 56q17 28 27 48t10 34q0 9 -4 15.5t-13 6.5
q-6 0 -8.5 -0.5t-5 -0.5t-6.5 -0.5t-12 -0.5z" />
    <glyph glyph-name="b_s" unicode="bs" horiz-adv-x="719" 
d="M522 225q-5 13 -9 25q-4 11 -7.5 21.5t-6.5 17.5q-30 -20 -72 -33.5t-103 -13.5q-4 -39 -24.5 -84.5t-50 -84t-64.5 -64.5t-70 -26q-10 0 -28 3t-34.5 21t-28 57t-9.5 110q1 48 10.5 101.5t23.5 107t30.5 104t32.5 91t29 68t20 35.5q9 11 20.5 16.5t23 7.5t21 1t13.5 -3
q6 -4 3.5 -42.5t-18.5 -100.5q-14 -58 -32.5 -111.5t-38 -100t-38 -85t-33.5 -66.5q-10 -70 0 -113t38 -43q24 0 46 21.5t40 53t30 67t15 63.5q-18 5 -31 17.5t-13 32.5q0 14 7.5 26t18.5 20.5t24 13.5t23 5q17 0 28.5 -21t15.5 -53q45 -2 74 5.5t58 20.5q-5 8 -6.5 18
t2.5 22q4 14 18 32t32 32.5t37.5 21.5t35.5 -1q12 -7 19.5 -16.5t6.5 -19.5q-1 -4 -6 -12q-4 -8 -12 -19t-22 -29q3 -22 8 -41t11 -33q5 -16 12 -30q9 -17 18.5 -36t17.5 -37t13 -33.5t3 -26.5q-3 -16 -17 -39.5t-35.5 -45.5t-48.5 -37.5t-56 -15.5q-21 0 -39.5 13t-32 29.5
t-19.5 33.5t-2 25q7 12 11.5 19t15.5 16q4 3 10 6t14 6.5t20 6.5q9 -30 16.5 -47.5t12.5 -26.5q6 -11 11 -15q12 -8 33.5 -0.5t30.5 29.5q4 11 -0.5 30.5t-12.5 42.5t-18 47t-16 43z" />
    <glyph glyph-name="e_r" unicode="er" horiz-adv-x="789" 
d="M192 354q-12 0 -28 -11.5t-31.5 -33.5t-29 -54t-20.5 -73q12 8 25.5 18t27.5 21q42 32 58.5 56t18.5 41q2 19 -4 27.5t-17 8.5zM438 344q-1 13 6.5 33t20 39t28.5 33t31 14q27 0 38 -17.5t13 -36.5q1 -12 -2.5 -32t-14.5 -35q3 -2 8 -4.5t16 -2.5q17 0 22.5 2t19.5 2
q16 0 27 -8t17.5 -20.5t10.5 -26.5t5 -26q2 -24 -13.5 -50.5t-38.5 -58.5q-14 -20 -27.5 -43.5t-11.5 -43.5q2 -13 6.5 -21t27.5 -8q25 0 57.5 26t62.5 59.5t53.5 66t31.5 44.5q5 8 13 10.5t14 -0.5t7 -11.5t-7 -23.5q-6 -10 -20 -31.5t-34.5 -47.5t-45 -54t-51 -51
t-53 -37.5t-51.5 -14.5t-42 9.5t-27.5 24t-14.5 31t-3 31.5q2 23 19 53t31 56q17 28 27 48t10 34q0 9 -4 15.5t-13 6.5q-6 0 -8.5 -0.5t-5 -0.5t-6.5 -0.5t-12 -0.5q-10 0 -20.5 2.5t-21.5 6.5q-30 -43 -72.5 -96t-93 -100t-106.5 -79t-112 -32q-22 0 -47 10t-45.5 31.5
t-33 56t-7.5 82.5q4 40 25 84.5t52 81.5t69.5 61.5t77.5 24.5q38 0 54 -18.5t14 -45.5q-3 -30 -17 -55.5t-33.5 -46t-41.5 -37t-42 -30.5q-21 -14 -41 -27.5t-34 -24.5q2 -48 28.5 -67.5t57.5 -19.5q40 0 85 31.5t86.5 75.5t74.5 90.5t49 75.5q-11 9 -15.5 14t-6.5 20z" />
    <glyph glyph-name="f_s" unicode="fs" horiz-adv-x="652" 
d="M77 57q-13 -49 -23.5 -90.5t-17.5 -72.5q-8 -36 -14 -66q-9 -37 -18 -73t-14.5 -64.5t-4.5 -46.5t13 -18q28 -2 59 22t56.5 60.5t42 79t16.5 78.5q0 40 -13 79q-8 20 -20 41q-11 18 -26 37t-36 34zM438 33q6 -4 15 -4t18 3.5t17.5 11t12.5 18.5q5 11 0.5 30.5t-12.5 42.5
t-18 47t-17 43l-9 27t-7 21.5t-5 13.5q-3 -5 -15.5 -22t-29.5 -39.5t-36 -47.5t-36 -47t-29.5 -38t-15.5 -20q-7 -9 -15 -10t-13 3t-5 12.5t8 19.5q4 6 16.5 24t29.5 41.5t35.5 49t33.5 46.5q-37 -4 -79.5 -12t-78.5 -23q-17 -6 -33 -12q-15 -5 -29.5 -11t-24.5 -12l-22 -71
q57 -40 87 -82t44 -77q17 -41 19 -80q0 -65 -27 -129t-68 -114t-89.5 -80t-91.5 -26q-21 2 -34.5 13.5t-20.5 28.5t-8 38t4 41q4 21 17 77q12 49 34 137t60 237q-11 10 -15.5 21t-6.5 20q-2 11 0 21q4 13 12 25q7 11 18.5 22.5t31.5 20.5q12 31 22.5 65.5t17.5 63.5
q9 34 16 67q24 83 25.5 135t-1.5 69l-2 14q-1 6 -3 13l-4 14q10 6 18.5 9.5t14.5 5.5q7 3 13 4q22 5 42 5.5t22 -7.5q1 -4 2.5 -16.5t1.5 -31.5t-3 -42t-11 -48q-6 -22 -18 -62q-11 -37 -28.5 -93.5t-45.5 -144.5q53 18 120.5 30.5t127.5 13.5l3 4.5t2 2.5q1 3 -1 8.5
t-4.5 12t-4 14t1.5 15.5q4 14 18 32t32 32.5t37.5 21.5t35.5 -1q13 -7 20.5 -16.5t5.5 -19.5q-1 -4 -5 -12t-12 -19t-23 -29q3 -22 8.5 -41t10.5 -33q6 -16 13 -30q8 -17 18 -36t18 -37t12.5 -33.5t2.5 -26.5q-3 -16 -16.5 -39.5t-35 -45.5t-48.5 -37.5t-56 -15.5
q-21 0 -40 13t-32 29.5t-19 33.5t-2 25q6 12 11 19t15 16q4 3 10 6t14 6.5t20 6.5q9 -30 16.5 -47.5t13.5 -26.5q6 -11 11 -15z" />
    <glyph glyph-name="o_r" unicode="or" horiz-adv-x="756" 
d="M124 304q-3 -9 -3 -19q0 -16 1.5 -33t10 -31t25.5 -23t47 -9q5 0 10 0.5t10 1.5q3 13 5 23.5t2 17.5q2 19 0 38.5t-7 35.5t-13.5 26.5t-20.5 10.5q-18 0 -35 -10.5t-32 -28.5zM62 132q0 -18 2 -35t7.5 -30.5t15.5 -21.5t25 -8q18 0 32.5 8t26 21.5t21 31t16.5 35.5
q-7 -1 -13.5 -1.5t-13.5 -0.5q-38 0 -64.5 22t-41.5 56q-6 -20 -9.5 -40t-3.5 -37zM522 275q-14 0 -25 2.5t-19 4.5q-5 -6 -24 -23t-46 -36.5t-58 -38.5t-61 -29q-9 -37 -26 -69t-40 -55.5t-52 -37t-63 -13.5q-40 0 -62.5 17t-34 42.5t-14 56t-2.5 56.5q0 38 17 87.5
t49 89.5q11 34 46 50.5t71 16.5q4 0 10 -2q13 -1 32.5 -9.5t37.5 -26.5t30.5 -45t12.5 -65q0 -8 -1 -19t-2 -19q38 14 74.5 37.5t66.5 51.5q-17 8 -24.5 16t-9.5 29q-1 13 6.5 33t20 39t28.5 33t31 14q27 0 38 -17.5t13 -36.5q1 -12 -2.5 -32t-14.5 -35q3 -2 8 -4.5t16 -2.5
q17 0 22.5 2t19.5 2q16 0 27 -8t17.5 -20.5t10.5 -26.5t5 -26q2 -24 -13.5 -50.5t-38.5 -58.5q-14 -20 -27.5 -43.5t-11.5 -43.5q2 -13 6.5 -21t27.5 -8q25 0 57.5 26t62.5 59.5t53.5 66t31.5 44.5q5 8 13 10.5t14 -0.5t7 -11.5t-7 -23.5q-6 -10 -20 -31.5t-34.5 -47.5
t-45 -54t-51 -51t-53.5 -37.5t-51 -14.5q-25 0 -42 9.5t-27.5 24t-14.5 31t-3 31.5q2 23 19 53t31 56q17 28 27 48t10 34q0 9 -4 15.5t-13 6.5q-6 0 -8.5 -0.5t-5 -0.5t-6.5 -0.5t-12 -0.5z" />
    <glyph glyph-name=".notdef" horiz-adv-x="280" 
 />
    <glyph glyph-name=".null" horiz-adv-x="0" 
 />
    <glyph glyph-name=".null" horiz-adv-x="0" 
 />
    <glyph glyph-name="nonmarkingreturn" unicode="&#xd;" horiz-adv-x="250" 
 />
    <glyph glyph-name="space" unicode=" " horiz-adv-x="280" 
 />
    <glyph glyph-name="exclam" unicode="!" horiz-adv-x="249" 
d="M210 733q10 2 21 2q9 0 19 -1.5t19 -7.5l-149 -550q-3 -11 -18 -21.5t-31 -17.5t-28 -7t-10 10q3 15 17 76q8 32 16 68.5t20.5 90.5t29 126.5t37.5 166.5q2 7 2 14q1 5 0.5 10.5t-2.5 8.5q8 9 18 15.5t19 9.5q10 5 20 7zM60 74q25 4 40.5 -4.5t13.5 -30.5
q-1 -13 -10.5 -24t-22.5 -19.5t-27.5 -13.5t-25.5 -5q-20 0 -35 8.5t-13 28.5q2 26 27 40.5t53 19.5z" />
    <glyph glyph-name="quotedbl" unicode="&#x22;" horiz-adv-x="249" 
d="M148 731q23 5 32 3.5t8 -5.5q-2 -8 -9.5 -32t-18 -61t-23 -83.5t-26.5 -99.5q-2 -4 -7 -7q-4 -3 -12.5 -5.5t-22.5 -2.5q-13 0 -19 2.5t-8 5.5q-3 4 -2 9l2 8q1 3 1.5 6.5t1.5 6.5l51 210q5 19 15 28.5t37 16.5zM285 731q22 5 31.5 3.5t7.5 -5.5q-2 -8 -9 -32t-17.5 -61
t-23.5 -83.5t-26 -99.5q-2 -4 -7 -7q-4 -3 -12.5 -5.5t-22.5 -2.5q-13 0 -19 2.5t-8 5.5q-3 4 -2 9l2 8q1 3 1.5 6.5t1.5 6.5l51 210q5 19 14.5 28.5t37.5 16.5z" />
    <glyph glyph-name="numbersign" unicode="#" horiz-adv-x="418" 
d="M427 487q17 -1 20 -7.5t-5 -22.5q-7 -15 -15 -21t-23 -6q-13 1 -29 1h-35q-9 -25 -17 -50.5t-16 -51.5q22 -1 41 -1.5t38 -2.5q17 -2 20 -8t-5 -22q-8 -15 -15.5 -21.5t-22.5 -5.5t-33.5 1h-40.5q-1 -2 -1 -4t-1 -4q-13 -48 -20 -74t-10 -39q-4 -15 -4 -18
q-1 -1 -18.5 -8.5t-36.5 -7.5q-16 0 -19 4t0 15l5 15t10 30.5t14 41.5t16 48h-46q-10 0 -19 -0.5t-19 -0.5q0 -2 -0.5 -3t-0.5 -3q-13 -48 -20 -74l-10.5 -39t-3.5 -15.5v-2.5q-1 -1 -18.5 -8.5t-36.5 -7.5q-17 0 -20 4t1 15q0 2 4 13.5t10 29t13.5 40l15.5 46.5
q-17 -2 -33 -3q-15 -2 -31 -4t-30 -5q-1 6 0.5 13t3.5 13q2 7 5 14q4 8 12.5 18t16.5 12q6 2 27.5 4t50.5 4q11 32 20 58.5t14 38.5q-19 -2 -38 -3q-17 -2 -35.5 -4.5t-34.5 -5.5q-1 6 0 13t3 13q2 7 5 14q5 8 13.5 18t16.5 12q6 2 30.5 4.5t59.5 4.5l29 97q5 15 14 23.5
t32 13.5q20 4 27.5 3t6.5 -4q-4 -10 -17 -45.5t-30 -85.5h33h28t25 -1l29 96q5 15 14 23.5t32 13.5q20 4 27.5 3t6.5 -4q-4 -10 -17 -46t-30 -87q18 -1 34.5 -1.5t32.5 -2.5zM245 330q13 37 22.5 65t12.5 36q-15 0 -30.5 -0.5t-29.5 -0.5h-15t-14 -1q-8 -25 -16 -49.5
t-16 -49.5q11 0 22.5 0.5t22.5 0.5t21 -0.5t20 -0.5z" />
    <glyph glyph-name="dollar" unicode="$" horiz-adv-x="293" 
d="M248 652q27 -5 43 -22t24.5 -37.5t11 -40t1.5 -29.5q-1 -11 -4.5 -24t-10 -25t-16 -21t-23.5 -12q-11 -2 -20 -3q-9 -2 -17.5 -1.5t-13.5 3.5q13 13 20.5 30t12.5 32q5 18 7 37q3 32 -13 52t-32 20q-15 0 -31 -7.5t-29.5 -21t-23 -32t-11.5 -40.5q-2 -30 13.5 -66.5
t33.5 -76.5q13 -28 25.5 -53t21 -48t12.5 -45t0 -45q-2 -12 -9.5 -29t-21.5 -33t-35 -29t-51 -17l-24 -70q-5 -3 -10.5 -4.5t-10.5 -2.5t-11 -1q-5 0 -10 1q-4 1 -7.5 3t-4.5 6q5 15 8.5 28t6.5 23q3 11 5 20q-28 6 -46 20.5t-27.5 31t-13 32.5t-2.5 25q2 22 12 34t27 23
q6 4 13 7q6 3 13.5 6t15.5 5q-5 -7 -8 -17t-4 -19q-3 -10 -4 -21q-5 -42 14.5 -67.5t44.5 -26.5q9 0 21 5t23 15t19.5 24.5t9.5 33.5q2 18 -2 35t-11 32t-14.5 28t-13.5 24q-5 11 -17 34t-24 52.5t-20 62.5t-5 64q3 27 15.5 50t31.5 41t43.5 30t51.5 16q4 12 10 33t11 34
q1 4 8.5 7t18.5 1q22 -5 20 -16q-3 -10 -8 -27t-9 -31z" />
    <glyph glyph-name="percent" unicode="%" horiz-adv-x="574" 
d="M40 522q0 27 10.5 62.5t30.5 67t50 53t69 21.5q10 0 26.5 -7t32.5 -22t27.5 -38.5t11.5 -56.5q0 -41 -11.5 -81.5t-33 -72.5t-51.5 -51.5t-67 -19.5q-34 0 -53 14.5t-28.5 36t-11.5 47t-2 47.5zM235 586q1 15 -0.5 30.5t-5.5 28.5t-10.5 21t-15.5 8q-21 0 -39.5 -17
t-32.5 -42t-22 -54t-8 -53q0 -28 7.5 -51.5t31.5 -23.5q25 0 42.5 20t29 46t17 51.5t6.5 35.5zM434 333q11 0 27.5 -7t32 -21.5t27 -38t11.5 -56.5q0 -41 -11.5 -81.5t-33 -72.5t-51.5 -52t-67 -20q-34 0 -53 14.5t-28.5 36.5t-11.5 47t-2 47q0 27 10.5 62.5t30.5 67t50 53
t69 21.5zM469 194q2 15 0.5 30.5t-6 28t-11 21t-15.5 8.5q-21 0 -39.5 -17t-32 -42t-21.5 -54t-8 -53q0 -29 7.5 -52t31.5 -23q25 0 42.5 20t29 46t16.5 51.5t6 35.5zM545 731q24 5 32.5 3.5t6.5 -5.5q-5 -7 -26 -35t-50.5 -68.5t-65.5 -90.5t-72.5 -101.5t-70.5 -101.5
t-59 -91q-29 -46 -57 -90q-16 -26 -27 -43.5t-22 -36t-21.5 -36.5t-18.5 -32q-16 -7 -29 -11t-23 -6q-11 -2 -20 -2q-20 0 -22 5t7 18q8 11 42 61q18 26 39 56.5t52 75.5t72.5 106t95.5 140l165 240q13 19 27.5 28.5t44.5 16.5z" />
    <glyph glyph-name="ampersand" unicode="&#x26;" horiz-adv-x="461" 
d="M398 180q9 8 17 9t12.5 -3.5t3 -13t-12.5 -20.5q-22 -23 -48.5 -48.5t-59.5 -48.5q8 -14 17 -26t19.5 -22t23.5 -15q-2 -3 -9 -8t-15 -9q-9 -5 -19 -10q-26 -12 -44 -13.5t-29 4.5t-17.5 17.5t-10.5 24.5q-1 2 -1 5q-1 2 -1 3q-31 -13 -65 -20.5t-72 -7.5
q-47 0 -75.5 18.5t-43 45.5t-17.5 58.5t2 58.5q9 54 56.5 116.5t126.5 140.5q5 5 10.5 10t10.5 10q0 26 1.5 50t3.5 46q1 9 2 17.5t3 16.5q10 50 31.5 84t47 54.5t51 29.5t42.5 9q12 0 26 -4t25 -13.5t17 -26t2 -42.5q-4 -21 -12 -41.5t-25.5 -45.5t-46 -57t-72.5 -77
q-4 -4 -7.5 -7t-6.5 -7q5 -90 21 -173t31 -143q1 -2 1.5 -5t1.5 -5q42 26 69 51t35 33zM128 44q21 0 40.5 3.5t39.5 8.5q-9 29 -19 72t-18 97q-4 29 -6.5 57t-4.5 55q-112 -126 -124 -194q-2 -14 0 -31t11.5 -32t29 -25.5t51.5 -10.5zM246 612q-7 -48 -9 -100
q48 45 80.5 81.5t37.5 64.5q2 14 -3 27t-20 13q-16 0 -30.5 -7.5t-26 -20t-19 -28t-10.5 -30.5z" />
    <glyph glyph-name="quotesingle" unicode="'" horiz-adv-x="113" 
d="M148 731q23 5 32 3.5t8 -5.5q-2 -8 -9.5 -32t-18 -61t-23 -83.5t-26.5 -99.5q-2 -4 -7 -7q-4 -3 -12.5 -5.5t-22.5 -2.5q-13 0 -19 2.5t-8 5.5q-3 4 -2 9l2 8q1 3 1.5 6.5t1.5 6.5l51 210q5 19 15 28.5t37 16.5z" />
    <glyph glyph-name="parenleft" unicode="(" horiz-adv-x="234" 
d="M306 761q-19 -17 -36.5 -41t-33 -50.5t-28 -55t-23.5 -54.5q-25 -63 -43 -132q-24 -101 -37 -192q-9 -54 -11.5 -89.5t-2 -71t5 -67.5t15.5 -55l-14 -69q-23 15 -44 58t-29.5 113.5t1 168t46.5 220.5q49 159 114 259.5t138 125.5z" />
    <glyph glyph-name="parenright" unicode=")" horiz-adv-x="204" 
d="M-93 -49q19 17 36.5 41t33 50.5t28.5 55t24 54.5q24 63 43 132q24 101 37 193q9 53 11.5 89t2 71.5t-5 67.5t-15.5 54l14 70q23 -15 44 -58.5t29.5 -114t-1 -168t-47.5 -220.5q-48 -158 -113.5 -259t-137.5 -125z" />
    <glyph glyph-name="asterisk" unicode="*" horiz-adv-x="327" 
d="M371 625q5 -1 7.5 -12t3 -24.5t0.5 -25.5t-2 -14q-3 -2 -17 -3q-13 -1 -38.5 -1t-72.5 2q-5 -1 -8 -3.5t3 -9.5q34 -31 52 -49t27 -28q9 -11 10 -15q-1 -4 -12.5 -12.5t-25.5 -17t-26.5 -14.5t-16.5 -6q-3 2 -9 16q-5 12 -13 36.5t-20 70.5q-5 10 -10 2
q-22 -42 -35.5 -64.5t-20.5 -34.5q-9 -13 -13 -16q-4 -1 -15.5 8.5t-24 22t-21.5 25t-9 16.5q2 4 14 13q11 8 32.5 21.5t62.5 36.5q7 7 -2 10q-44 11 -68.5 18t-35.5 12q-14 5 -17 8q-1 4 5.5 16.5t15 26.5t17 25t11.5 11q3 -1 14 -10q9 -7 26 -23t47 -47q10 -10 12 4
q-1 44 -0.5 69t0.5 37q1 14 3 18q2 3 17.5 2t33 -3t32 -6t14.5 -7q-1 -4 -7 -17q-5 -13 -16.5 -35t-32.5 -61q-3 -6 -1 -9t10 0q40 17 64 25l36 12q15 4 20 4z" />
    <glyph glyph-name="plus" unicode="+" horiz-adv-x="351" 
d="M343 363q-5 -17 -11.5 -24t-19.5 -6q-20 2 -49 1.5t-61 -1.5l-1 -1q-6 -29 -11 -54q-4 -23 -8 -41.5t-5 -24.5q-3 -6 -9.5 -9.5t-12.5 -5.5q-7 -3 -16 -4q-8 -1 -16 -1q-7 0 -13.5 1.5t-11.5 5.5l31 132q-22 -2 -45 -4q-22 -3 -44.5 -6.5t-43.5 -8.5q-1 7 -0.5 14.5
t1.5 14.5q2 7 4 15q3 8 10 19t13 14q7 4 42.5 7t78.5 5l26 110q8 8 17 12t17 5q9 2 18 2q9 -1 15 -2q6 -2 9.5 -4t1.5 -6q-6 -18 -11.5 -38.5t-10.5 -37.5q-5 -21 -10 -41q35 -1 61 -2t50 -4q14 -1 17 -8t-2 -24z" />
    <glyph glyph-name="comma" unicode="," horiz-adv-x="200" 
d="M51 73q26 -3 34 -22.5t3 -43.5q-2 -12 -8 -28.5t-16.5 -34t-26 -34t-38.5 -28.5q-18 -10 -22.5 0.5t6.5 20.5q10 10 22 29t17 42q-5 -1 -9 -1.5t-9 0.5q-15 2 -25.5 13t-8.5 32q4 26 28.5 42.5t52.5 12.5z" />
    <glyph glyph-name="hyphen" unicode="-" horiz-adv-x="354" 
d="M303 282q-27 1 -69 0.5t-84 -1.5q-27 -1 -55 -3q-27 -3 -55 -7t-55 -11q-1 7 0 15t3 14q2 8 4 15q4 9 11.5 20t13.5 14q5 2 20 4t36 3.5t47 2.5t51 1q51 1 85 -0.5t66 -4.5q14 -2 16.5 -9t-3.5 -24t-13 -23.5t-19 -5.5z" />
    <glyph glyph-name="period" unicode="." horiz-adv-x="214" 
d="M50 74q25 4 40.5 -4.5t13.5 -30.5q-1 -13 -10.5 -24t-22.5 -19.5t-27.5 -13.5t-25.5 -5q-20 0 -35 8.5t-13 28.5q2 26 27 40.5t53 19.5z" />
    <glyph glyph-name="slash" unicode="/" horiz-adv-x="263" 
d="M349 731q24 5 32.5 3.5t6.5 -5.5q-4 -7 -21.5 -35t-42 -68.5t-54 -90.5t-59 -101.5t-56.5 -101.5t-47 -91q-24 -46 -45 -90q-21 -41 -39.5 -80t-30.5 -68q-15 -7 -28 -11t-22 -6q-11 -2 -20 -2q-20 0 -22.5 5t4.5 18q6 11 34 61q14 26 31 56.5t42 75.5t59 106t78 140
l134 240q10 19 23.5 28.5t42.5 16.5z" />
    <glyph glyph-name="zero" unicode="0" horiz-adv-x="489" 
d="M320 736q37 0 64 -27.5t42.5 -73.5t20.5 -104.5t-3 -121.5q-15 -126 -50 -209t-76.5 -132.5t-84 -70t-72.5 -20.5q-23 0 -46 14.5t-42 46.5t-30.5 82.5t-12.5 121.5q0 45 10 99.5t29.5 109t46 106t59 91.5t69.5 64t76 24zM369 436q1 5 2.5 25t2 46.5t-1 56t-8.5 54.5
t-20 41t-34 16t-54.5 -37t-64 -102.5t-52.5 -155.5t-21 -197q0 -11 2.5 -35t9 -48.5t18.5 -43t30 -18.5q29 0 59.5 36.5t57 94.5t47 128.5t27.5 138.5z" />
    <glyph glyph-name="one" unicode="1" horiz-adv-x="272" 
d="M147 243q-7 -26 -14.5 -56.5t-13 -63t-5.5 -65t8 -61.5q-9 -5 -20.5 -7t-21.5 -4q-12 -1 -25 -1q-33 0 -37.5 25t5.5 58q11 34 41.5 138.5t65.5 285.5q12 62 18 96q-13 9 -26.5 21t-21.5 23q2 3 15.5 19t32 33t37.5 31t30 14q5 0 12.5 -4.5t14.5 -11.5t11.5 -14t3.5 -12z
" />
    <glyph glyph-name="two" unicode="2" horiz-adv-x="448" 
d="M319 -29q-2 15 -24.5 22.5t-49.5 11.5q-32 4 -72 5q-29 0 -53 -3q-23 -3 -42 -8t-27 -14q-6 -5 -15 -6t-18 2t-17 11t-11 22q-3 11 -6 20t-6.5 17t-7.5 13q15 30 32 53.5t38 46t47 45t58 50.5q30 26 63.5 60.5t62.5 78.5t49 96.5t23 112.5q2 50 -17.5 69.5t-47.5 19.5
q-13 0 -31 -11.5t-34 -31t-27.5 -45.5t-13.5 -56q0 -8 1 -14q2 -7 4.5 -12t8.5 -8q-9 -7 -17 -11t-15 -6t-14 -2q-8 0 -19 1.5t-20 7t-15.5 16t-5.5 29.5t16 50t45.5 60.5t76.5 51t108 21.5q42 0 64 -17.5t31.5 -41.5t10.5 -49.5t0 -40.5q-3 -62 -38.5 -127t-85 -124.5
t-102.5 -109t-90 -80.5q-26 -23 -40.5 -45t-20.5 -41q23 11 64 23t94 12q31 0 57 -3q25 -3 45 -8t27 -15q2 -10 2 -19t-1 -16q-1 -9 -3 -16q-2 -8 -5 -16q-3 -7 -6.5 -15t-9.5 -16z" />
    <glyph glyph-name="three" unicode="3" horiz-adv-x="463" 
d="M384 229q-1 -38 -18 -82.5t-46.5 -82.5t-71 -63.5t-92.5 -25.5t-82.5 15t-49 36.5t-23.5 44.5t-6 39q0 15 12 24t28.5 13.5t34.5 6t30 1.5q-3 -9 -5 -28t4 -38.5t22.5 -34t50.5 -14.5q27 0 50.5 19t41.5 48.5t29 64.5t12 67q1 33 -13.5 54.5t-46.5 21.5q-12 0 -26 -3
q-12 -2 -27 -7t-31 -14l-21 56q33 14 71 38t70.5 57t55 75.5t23.5 94.5q2 31 -16 51t-53 20q-18 0 -39 -8.5t-39 -23.5t-30.5 -36.5t-13.5 -48.5q0 -14 4 -25q3 -10 10 -17.5t21 -7.5q-14 -10 -25.5 -15t-20.5 -8q-11 -3 -20 -3q-23 0 -43 16.5t-19 59.5q1 22 13 51
t38.5 55.5t69 45t103.5 18.5q27 0 53.5 -8.5t46.5 -26t32 -44t11 -63.5q-1 -29 -13.5 -62t-35 -65.5t-54 -62t-71.5 -51.5q18 0 38.5 -5.5t38 -19.5t28.5 -37.5t10 -61.5z" />
    <glyph glyph-name="four" unicode="4" horiz-adv-x="452" 
d="M210 106q8 35 20.5 84t26.5 103q-49 -2 -101 -8t-112 -22q-8 5 -14 12.5t-10 14.5q-6 8 -10 17q-9 20 -10 36.5t16 30.5t59.5 60.5t98.5 111.5t83 100.5t31 49.5q24 10 42.5 16t32.5 9q15 4 26 6q29 5 35.5 -3.5t-1.5 -37.5q-4 -14 -13 -48.5t-20 -80t-22.5 -96.5
t-20.5 -98q29 -4 46 -17.5t4 -45.5q-2 -6 -5 -14q-3 -7 -6.5 -15.5t-8.5 -19.5q-5 8 -12 14.5t-14 10.5q-9 5 -18 9q-15 -88 -23.5 -161.5t-6.5 -116.5q-12 -10 -24.5 -15.5t-21.5 -8.5q-12 -3 -23 -3q-23 0 -31 14.5t-7 36.5q1 18 5 38t9 37zM143 347q45 2 76 6t55 7
q9 35 17.5 67t16.5 60q15 57 25 98.5t16 67.5q-12 -15 -28.5 -34.5t-34.5 -41t-37 -44.5t-37 -44q-33 -39 -67.5 -79t-57.5 -68q11 2 25 2.5t31 2.5z" />
    <glyph glyph-name="five" unicode="5" horiz-adv-x="444" 
d="M152 697h1h-1zM255 645q-27 0 -49 -5q-7 -19 -17 -49.5t-21 -66t-21 -74t-18 -74.5q10 11 24.5 24.5t33 25t39.5 19t45 7.5q33 0 54.5 -12t34 -31.5t17 -45.5t1.5 -55q-4 -60 -27 -119.5t-58 -107t-80 -77t-94 -29.5q-25 0 -47 11t-38.5 29t-26 40t-7.5 43q2 20 14 38
t32 34q8 6 16 11t15.5 9.5t14.5 6.5q-6 -47 4 -72.5t24 -36.5q17 -14 40 -16q32 0 58 18t45 46.5t31 65t15 72.5q4 49 -13.5 76.5t-44.5 27.5q-29 0 -54 -18.5t-49 -47.5q-9 -10 -19.5 -14t-21 -4t-19 3.5t-13.5 6.5q-3 2 -8 6t-8.5 13t-3.5 23.5t7 38.5q8 24 19.5 59t23 72
t22.5 71.5t17 57.5q8 32 9.5 41.5t-0.5 10.5q5 2 24 6.5t46.5 9.5t62 9t69.5 4q38 0 61.5 -3.5t35 -12.5t12.5 -24.5t-6 -40.5q-3 -9 -8 -19q-4 -9 -11.5 -19t-18.5 -20q-10 22 -37 33.5t-55 17.5q-34 6 -73 7z" />
    <glyph glyph-name="six" unicode="6" horiz-adv-x="478" 
d="M176 -24q-24 0 -48.5 13t-45 43t-33.5 78.5t-14 119.5q0 45 11.5 100t32.5 111t50 108.5t64 93.5t74 66t79 25q45 0 62.5 -19.5t22.5 -51.5q2 -14 2.5 -30t-3 -31.5t-11.5 -28.5t-22 -21q-11 -6 -23 -9t-25 -3t-28 5q17 27 25.5 52t10 44t-4.5 30.5t-19 11.5
q-17 0 -42.5 -22.5t-52.5 -63t-51.5 -97.5t-41.5 -126q35 53 75.5 75t69.5 22q17 0 38 -6t40 -24t32 -50t13 -85t-18.5 -111t-51 -107t-76 -80.5t-91.5 -31.5zM133 313q-5 -32 -7.5 -65t-2.5 -68q0 -11 3 -35.5t10.5 -49t20 -43t32.5 -18.5q28 0 54.5 32t47 78t33 98
t12.5 91q-1 40 -12.5 63t-35.5 23q-21 0 -37 -13.5t-28.5 -32.5t-21 -40t-14.5 -35q-11 -25 -17.5 -26.5t-19.5 11.5q-6 5 -10 13.5t-7 16.5z" />
    <glyph glyph-name="seven" unicode="7" horiz-adv-x="406" 
d="M418 594q-9 -12 -32.5 -47.5t-54 -86.5t-64 -114t-62.5 -130q-21 -51 -35 -94q-8 -26 -12 -42t-5.5 -31.5t0.5 -28t8 -19.5q-14 -5 -26.5 -7.5l-22.5 -4.5q-12 -1 -22 -2q-26 -2 -35 17t-2 48q7 35 26.5 85.5t47.5 108.5t63 119t73 115q34 48 66.5 94t53.5 75
q-19 5 -51 6.5t-80 -4.5q-32 -4 -62 -13q-27 -7 -54.5 -19t-47.5 -31q-3 8 -4 16t-2 15t-1 15q0 9 2 21.5t7 24.5t14.5 21t25.5 12q17 3 51 6t71.5 5.5t73 3.5t54.5 -1q39 -3 53 -14t13 -38q0 -13 -0.5 -22.5t-3.5 -18.5t-8.5 -18t-15.5 -22z" />
    <glyph glyph-name="eight" unicode="8" horiz-adv-x="444" 
d="M351 174q-1 -33 -16.5 -68t-42 -64t-63 -47.5t-78.5 -18.5q-34 0 -64 7t-52 24t-34 46t-11 73q1 42 18 79.5t42.5 70.5t56 61.5t60.5 50.5q-27 42 -37.5 76t-9.5 70q1 21 11 55t32.5 66.5t60 56t93.5 23.5q31 0 54 -10t38 -26t22.5 -37t7.5 -43q-1 -34 -17 -66.5t-40 -62
t-52.5 -55t-54.5 -43.5q30 -45 54 -100t22 -118zM206 574q-1 -32 6.5 -61.5t29.5 -67.5q26 21 51 45t44.5 48t32 47.5t12.5 43.5q1 32 -16 50.5t-46 18.5q-30 0 -51.5 -12t-35 -30.5t-20.5 -40t-7 -41.5zM260 157q1 32 -3 57t-12 46t-19.5 40.5t-26.5 40.5
q-23 -19 -46.5 -45t-43 -55.5t-32 -60t-13.5 -59.5q-1 -28 4.5 -47t15.5 -30.5t22 -16t25 -4.5q15 0 37 6.5t42 22t34.5 41.5t15.5 64z" />
    <glyph glyph-name="nine" unicode="9" horiz-adv-x="463" 
d="M312 735q39 0 65 -28t40.5 -74t16 -105t-9.5 -122q-22 -126 -60.5 -209t-83 -131.5t-88 -68.5t-74.5 -20q-14 0 -31.5 6.5t-32.5 19t-25 30.5t-9 42q2 18 7 35q6 16 15.5 31t27.5 27q5 -40 16.5 -61t24.5 -31q15 -11 32 -13q28 0 59.5 27t61 72t54.5 103.5t40 120.5
q-10 -24 -27 -53t-40.5 -53.5t-53.5 -41.5t-67 -17q-40 0 -62.5 22.5t-33 55.5t-12 70t-0.5 65q1 19 8 48.5t20.5 63t33.5 67.5t47.5 61t62.5 44t78 17zM360 491q4 39 3.5 74.5t-6.5 62.5t-18 43.5t-32 16.5q-26 0 -54.5 -23t-53 -61.5t-41.5 -89t-20 -105.5
q-2 -37 3.5 -61.5t14.5 -39.5t21 -21.5t22 -6.5q24 0 44.5 22t36.5 52t27.5 62t15.5 51q4 16 11 20.5t26 3.5z" />
    <glyph glyph-name="colon" unicode=":" horiz-adv-x="227" 
d="M99 279q24 2 42 -7.5t16 -28.5t-23.5 -38.5t-52.5 -21.5q-25 -2 -43 7.5t-16 27.5q2 20 20 39.5t57 21.5zM50 74q25 4 40.5 -4.5t13.5 -30.5q-1 -13 -10.5 -24t-22.5 -19.5t-27.5 -13.5t-25.5 -5q-20 0 -35 8.5t-13 28.5q2 26 27 40.5t53 19.5z" />
    <glyph glyph-name="semicolon" unicode=";" horiz-adv-x="213" 
d="M86 279q24 2 41.5 -7.5t15.5 -28.5t-23.5 -38.5t-52.5 -21.5q-25 -2 -42.5 7.5t-15.5 27.5q2 20 20 39.5t57 21.5zM51 73q26 -3 34 -22.5t3 -43.5q-2 -12 -8 -28.5t-16.5 -34t-26 -34t-38.5 -28.5q-18 -10 -22.5 0.5t6.5 20.5q10 10 22 29t17 42q-5 -1 -9 -1.5t-9 0.5
q-15 2 -25.5 13t-8.5 32q4 26 28.5 42.5t52.5 12.5z" />
    <glyph glyph-name="less" unicode="&#x3c;" horiz-adv-x="271" 
d="M82 313l12 -20t10 -18q17 -29 33 -57q15 -26 29.5 -51t26.5 -44q-4 -3 -12 -5t-16 -3q-9 -1 -20 -1q-25 0 -32.5 3t-12.5 12q-1 2 -11.5 19.5t-25.5 43t-32.5 56t-31.5 59.5q-2 5 -5.5 10.5t-3.5 9.5q0 1 2 4q2 2 5 5.5t9 8.5l171 144q14 11 29 17.5t52 10.5
q31 3 37.5 -1t4.5 -6q-5 -5 -27 -24t-53 -46.5t-67 -60.5t-71 -66z" />
    <glyph glyph-name="equal" unicode="=" horiz-adv-x="374" 
d="M333 373q-27 2 -64 1t-79 -2q-24 0 -50 -2q-24 -2 -51 -6t-54 -11q-1 7 0 14.5t3 13.5l4 14q4 9 11.5 20t13.5 14q5 2 18.5 4t33 4t43.5 3t49 1q26 0 45 -0.5t35 -1t30.5 -1.5t30.5 -3q14 -2 16.5 -8.5t-3.5 -24.5q-6 -17 -13 -23.5t-19 -5.5zM293 253q-27 2 -64 1
t-79 -2q-24 -1 -50 -3q-24 -3 -51 -7t-54 -11q-1 7 0 14t3 13q2 7 4 13q4 9 11.5 20t13.5 14q5 2 18.5 4.5t33 5t43.5 4.5t49 2q26 0 45 -0.5t35 -1t30.5 -1.5t30.5 -3q14 -2 16.5 -8.5t-3.5 -24.5q-6 -17 -13 -23.5t-19 -5.5z" />
    <glyph glyph-name="greater" unicode="&#x3e;" horiz-adv-x="251" 
d="M136 504q1 -2 11.5 -19.5t25.5 -43t32.5 -56t31.5 -59.5q2 -5 5.5 -11t3.5 -9q0 -2 -2 -4q-2 -3 -5 -6.5t-9 -8.5l-171 -144q-14 -11 -29 -17t-52 -10q-31 -4 -38 0.5t-4 6.5q5 5 27 24t53 46.5t67.5 60.5t70.5 66l-12 20t-10 18q-17 29 -33 57q-15 26 -29.5 51t-26.5 44
q4 3 12 4.5t16 2.5q9 1 20 1q24 0 32 -3t13 -11z" />
    <glyph glyph-name="question" unicode="?" horiz-adv-x="413" 
d="M288 740q24 0 56.5 -7t60.5 -24.5t45.5 -47t11.5 -74.5q-9 -72 -45 -124t-81.5 -86.5t-91.5 -52.5t-76 -23l-24 -101q-4 -17 -12 -32.5t-21 -27.5t-32 -18.5t-45 -5.5l50 197q4 16 16.5 27t45.5 18q43 8 87 27t79 59q9 11 19.5 27t20 35t16.5 40t10 41q3 19 -1 36.5
t-16 30.5t-33 20.5t-53 7.5q-25 0 -47.5 -8t-39.5 -21t-27.5 -30t-12.5 -34q-1 -10 0 -20q1 -9 4 -18t11 -16q-45 -12 -66.5 -3t-30.5 24q-10 18 -8 45q5 37 32 63t63 43t73 25t62 8zM69 71q26 0 43.5 -10.5t15.5 -30.5q-3 -20 -27 -39.5t-56 -19.5q-26 0 -44 11t-16 30
q3 21 23 40t61 19z" />
    <glyph glyph-name="at" unicode="@" horiz-adv-x="637" 
d="M626 333q-4 -68 -29.5 -126t-61.5 -100t-76.5 -66t-74.5 -24q-33 0 -49.5 13.5t-22 32t-3 39t7.5 33.5q2 4 4 9.5t5 13.5q-21 -17 -50 -32.5t-63 -15.5q-51 0 -78 32.5t-23 87.5q3 47 29 97.5t64 93t82 70t82 27.5q20 0 31.5 -7t18.5 -18t9 -24t2 -25l2 6
q10 32 19.5 42.5t25.5 -11.5q6 -9 10 -17q3 -7 5 -14.5t0 -12.5q-26 -60 -45.5 -107t-32.5 -80q-15 -39 -26 -68q-14 -35 -17 -57t1.5 -33.5t14.5 -14t20 0.5q22 7 48 30.5t48.5 58t39 78t19.5 90.5q4 49 -5 96.5t-32.5 85t-62 60.5t-94.5 23q-55 0 -112.5 -27t-104.5 -75
t-78.5 -113t-35.5 -142q1 -55 24 -100q11 -28 26.5 -45t38.5 -33t55.5 -28.5t75.5 -18.5q-5 -17 -16.5 -27.5t-37.5 -4.5q-10 2 -32 7.5t-49.5 17.5t-56 32t-51 52t-35.5 77.5t-8 107.5q4 53 31.5 116t78 117.5t123.5 91.5t167 37q69 0 118.5 -28t81 -72.5t45 -99.5
t10.5 -109zM232 168q51 0 97 54t69 158q-14 -12 -32 -18.5t-37 3.5q14 16 21 29.5t11 23.5q4 11 5 21q2 14 -3 19.5t-10 5.5q-15 0 -42.5 -18t-55 -49.5t-48.5 -73.5t-24 -90q-1 -21 4 -33.5t12.5 -19.5t16.5 -9.5t16 -2.5z" />
    <glyph glyph-name="A" unicode="A" horiz-adv-x="553" 
d="M423 735q34 0 56 -18.5t19 -69.5q-1 -16 -7.5 -61.5t-16.5 -106.5t-22 -132t-23 -139h21q10 0 21.5 1t23.5 3q-5 -12 -11 -22t-11 -18q-7 -9 -14 -16q-19 -21 -43 -32q-7 -48 -11.5 -85.5t-5.5 -61.5q-1 -36 3 -69q3 -31 12 -59t27 -46l-113 -37q-12 17 -17 44.5t-7 54.5
q-2 32 -1 67q2 34 10.5 89t19.5 121q-19 5 -42 9t-52 4q-26 0 -53.5 -2t-54.5 -5q-12 -42 -24 -90q-13 -52 -23 -88.5t-19.5 -61.5t-18.5 -39t-20 -21q-10 -6 -29 -11q-16 -5 -41.5 -10t-65.5 -8q15 17 25.5 32t21 36.5t24 55t33.5 88.5q18 46 38 105q-35 -5 -59.5 -9
t-29.5 -6q-7 -1 -12 0q-5 0 -9 3t-5 10q1 13 9.5 18t24.5 12q8 4 36 14.5t68 21.5q14 41 28.5 81.5t28 78t26.5 69.5t23 56q17 36 43 79.5t59.5 81.5t74 63.5t85.5 25.5zM412 532q11 44 15 72.5t3 45t-6.5 22.5t-13.5 6q-13 0 -31.5 -9.5t-38.5 -28t-40 -45t-36 -61.5
q-22 -50 -51 -124t-62 -188q20 3 39 5t38 2q32 0 62.5 -2.5t56.5 -5.5q9 47 18 92.5t17.5 86.5t16 75t13.5 57z" />
    <glyph glyph-name="B" unicode="B" horiz-adv-x="607" 
d="M522 92q-6 -66 -39 -117.5t-84.5 -87t-116 -54.5t-132.5 -19q-25 0 -47 3.5t-39.5 8.5t-29.5 9.5t-17 7.5q-9 5 -14.5 12t-6.5 21q-1 7 -1 11.5t1 10t3.5 13.5t6.5 23q2 9 15 55.5t31.5 113t40.5 144.5t42.5 151t37 132.5t24.5 87.5q-13 -10 -26 -20.5t-27 -23.5
q-15 -14 -29 -9.5t-20 24.5q-3 10 -3 20q-1 10 0.5 20.5t7.5 21.5q32 20 62.5 33.5t59.5 24.5q12 34 28 37.5t35 -1.5q22 -6 28 -14q14 2 27 3t26 1q57 0 99 -14.5t68.5 -39.5t38.5 -58t9 -70q-3 -32 -17 -66.5t-37.5 -68.5t-55 -65.5t-69.5 -58.5q30 -17 53.5 -41t39 -51
t22.5 -55.5t5 -54.5zM199 331q-2 -10 -4.5 -19.5t-5.5 -20.5q12 14 39.5 24t53.5 10q24 0 51 -5q28 18 53 45.5t44.5 60t31.5 65.5t15 61q5 68 -24 100.5t-81 32.5q-35 0 -73 -13q-8 -25 -19.5 -62.5t-25 -82.5t-28 -95t-27.5 -101zM183 267q-13 -52 -27 -114
q-13 -57 -28 -125t-31 -147q6 -5 16 -7.5t19 -3.5q11 -2 23 -2q44 0 89.5 18t83.5 51t64 80.5t31 106.5q5 52 -18 86t-52 53q-48 -27 -99 -41q-18 -5 -30.5 -2t-21 10.5t-13 17.5t-6.5 19z" />
    <glyph glyph-name="C" unicode="C" horiz-adv-x="549" 
d="M210 -182q-49 0 -88.5 23.5t-67.5 64.5t-42 96t-12 118q2 59 15.5 127.5t37.5 137t58.5 132.5t79.5 113t100 78.5t120 29.5q41 0 68.5 -16t44.5 -42.5t24 -59.5t6 -67q-1 -32 -9 -62.5t-21.5 -54t-32.5 -38t-43 -14.5q-11 1 -22 7q-10 6 -20 18t-19 34q26 11 41.5 38
t22.5 57q9 33 12 73q2 40 -16.5 58.5t-42.5 18.5q-46 0 -96.5 -47.5t-94 -129t-73.5 -190t-35 -229.5q-2 -55 8 -93t26.5 -62t38 -35t43.5 -11q34 0 64.5 14.5t55.5 35.5t43 44.5t27 40.5q7 13 15 16t14 -1t7.5 -14t-4.5 -22q-16 -33 -40 -66.5t-54 -60.5t-65 -43.5
t-74 -16.5z" />
    <glyph glyph-name="D" unicode="D" horiz-adv-x="633" 
d="M4 -126q-9 6 -9 13.5t3 13.5q4 7 12 15q8 6 18.5 34t23 67.5t24.5 86.5t22.5 92t19 83.5t11.5 60.5q5 27 11 60q5 29 10.5 66.5t10.5 82.5l78 35q17 8 23.5 -3.5t0.5 -46.5q-3 -18 -11 -57t-18 -86.5t-21.5 -97t-22.5 -87.5q-10 -36 -23 -83q-11 -42 -26.5 -96
t-35.5 -123q14 -23 51 -23q41 0 95.5 31t105.5 93.5t89.5 157t47.5 220.5q5 68 -6.5 120t-35.5 87t-59 52.5t-77 17.5q-98 0 -204 -82l-5 81q26 29 58.5 44t61.5 23q33 8 67 9q63 0 120.5 -24t100.5 -73t65.5 -122t15.5 -172q-4 -57 -23 -118t-50 -120t-73 -111t-91.5 -92
t-106.5 -63t-117 -23q-19 1 -40 7q-20 6 -42.5 17t-48.5 33z" />
    <glyph glyph-name="E" unicode="E" horiz-adv-x="523" 
d="M190 -182q-46 0 -85.5 15t-69 41t-47 62t-18.5 78q-1 54 17 97.5t48 76.5t68 56t78 37q-22 12 -41 29t-33.5 37t-23.5 42.5t-9 45.5q-2 68 27.5 123.5t77 95t105.5 61t113 21.5q37 0 63.5 -12t43.5 -30t25 -39t9 -39q1 -33 -8 -66t-23.5 -59.5t-32 -43.5t-34.5 -17
q-13 1 -27 4q-13 4 -27.5 10.5t-30.5 19.5q26 10 45.5 28t32.5 40t19.5 46t6.5 46q-1 31 -15 48t-44 17q-41 0 -82 -20t-72.5 -55.5t-49.5 -84.5t-12 -107q5 -45 26.5 -74.5t41.5 -46.5q15 2 29 3.5t26 1.5q17 0 33 -6t16 -17q0 -7 -3.5 -17t-11 -18.5t-18.5 -14.5t-25 -6
q-12 0 -28.5 5.5t-33.5 14.5q-37 -7 -67 -27.5t-51.5 -48t-33 -59t-10.5 -62.5q1 -28 9 -56.5t24.5 -51.5t43.5 -37t65 -14q43 0 79.5 25.5t64 58.5t45 64.5t23.5 43.5q3 6 8.5 9t10.5 1.5t8 -7.5t0 -18q-8 -34 -29.5 -77.5t-55 -82t-79 -64.5t-101.5 -26z" />
    <glyph glyph-name="F" unicode="F" horiz-adv-x="586" 
d="M374 344q20 41 40.5 81.5t37.5 75.5t28.5 63t13.5 44q5 35 -18.5 51t-60.5 18q-32 2 -76.5 -1.5t-86 -13t-71 -26t-31.5 -40.5q-1 -14 6 -25q5 -10 18 -16.5t39 -5.5q5 0 12 1q6 1 14.5 2.5t20.5 4.5l-48 -65q-14 -20 -29.5 -23.5t-28.5 -1.5q-7 2 -26.5 7t-40 17t-35 32
t-11.5 50q4 36 30.5 65.5t73.5 50.5t113.5 33t148.5 12q62 0 99 -13t54.5 -34.5t17 -49t-12.5 -56.5q-5 -13 -16.5 -37t-27 -56t-33 -70t-35.5 -79q26 -2 48.5 -5t34.5 -5q15 -4 10 -13q-9 -17 -17 -26t-18 -12.5t-21.5 -3t-26.5 1.5q-9 0 -18 0.5t-18 1.5
q-18 -44 -35.5 -87t-32 -81.5t-24.5 -70.5t-15 -54q-6 -29 -9 -56q-2 -25 -1.5 -48t7.5 -38q-20 -6 -35.5 -10t-25.5 -6l-20 -5q-27 -7 -38 1.5t-7 39.5q2 22 6.5 49t14 60.5t24.5 75t38 92.5q27 59 69 141q-43 0 -93 -6q-27 -4 -53 -9q-25 -4 -50 -10.5t-47 -14.5
q-3 8 -3 16v14q1 8 3 14q2 7 6 14q3 7 7.5 14t10.5 15q46 6 88 9t74 5q38 2 71 2q5 1 8.5 0.5t8.5 -0.5z" />
    <glyph glyph-name="G" unicode="G" horiz-adv-x="612" 
d="M214 -190q-48 0 -86 25t-64 67.5t-38.5 99.5t-9.5 120q4 68 20.5 139.5t44.5 140t66 129.5t83.5 107t97.5 73t108 27q38 0 62.5 -18.5t38.5 -48t18 -67t0 -74.5t-16 -70t-30 -55q-23 -29 -41 -30t-34 11q-7 5 -14 13q-7 7 -14.5 17.5t-16.5 25.5q19 8 34 23.5t26.5 36
t18 44t7.5 45.5q1 18 -1 35t-8 30.5t-16 21.5t-26 8q-39 0 -76 -30t-70 -79.5t-60.5 -113t-48.5 -130.5t-33.5 -133t-15.5 -119q-4 -67 5 -109.5t24 -66t33 -32t32 -8.5q28 0 61.5 25.5t65 69t57 100t35.5 119.5q-25 0 -50 -0.5t-47 -1.5t-39.5 -2.5t-27.5 -3.5
q-11 5 -14 16q-2 4 -2 9t2 11q2 5 5 10.5t8 11.5q32 5 62 9t62.5 6.5t70.5 4t84 2.5q19 1 23.5 -5t-3.5 -29q-5 -19 -14.5 -30.5t-31.5 -9.5q-6 0 -10 1q-9 -57 -37.5 -122t-69.5 -119.5t-90 -90.5t-100 -36z" />
    <glyph glyph-name="H" unicode="H" horiz-adv-x="649" 
d="M22 -185q-23 0 -28.5 5.5t-1.5 21.5q1 5 10 43t22 93.5t28.5 120t28.5 121.5q-21 -2 -30.5 3.5t-9 14.5t11 19t29.5 16q4 2 12 4l8 34q4 16 8 32.5t8 31.5l69 292q5 22 17.5 33.5t45.5 19.5q27 7 38 5.5t10 -6.5q-3 -10 -14.5 -51.5t-27.5 -100.5t-35 -130t-36 -140
q59 9 142 15q32 3 63 4t59 0q14 53 27 105.5t25 97.5t21 79.5t14 51.5q11 38 24.5 49t39.5 15q7 1 16 2h18.5t24.5 -2q-37 -100 -69 -202t-59 -199q18 -1 31 -2t21 -3q45 -7 25 -38q-4 -7 -11 -15q-6 -8 -15 -18t-22 -23q-7 3 -16 6t-17 6q-9 2 -18 5q-7 -23 -13 -45
t-11 -44q-12 -48 -22 -99q-10 -47 -18.5 -98.5t-13.5 -103.5q-8 -3 -16 -5t-14 -3q-7 -2 -13 -2h-1h-2h-2h-8t-8 2q-5 1 -9 3q-5 1 -9.5 3t-9.5 5q8 33 12 61l7 49q2 25 3 45q1 26 -5.5 56t-19.5 59t-32 55t-43 43t-46.5 21.5t-44.5 2.5q-7 -29 -13 -56.5t-10 -52.5
q-11 -56 -20 -110q-6 -31 -9.5 -52.5t-7 -44t-6.5 -44t-5 -39.5q-15 -8 -29 -12.5t-25 -6.5q-12 -3 -23 -3zM409 249q-34 4 -65 4.5t-54 0.5q20 -11 34.5 -28t31.5 -40q16 -21 26 -45t16 -47q17 82 34 153q-6 1 -11.5 1.5t-11.5 0.5z" />
    <glyph glyph-name="I" unicode="I" horiz-adv-x="537" 
d="M254 247q-18 19 -29.5 48.5t-17.5 57.5q-7 33 -10 68q-5 70 16 127.5t56 98.5t78.5 63.5t84.5 22.5q18 0 29 -9t17 -21.5t7.5 -26t1.5 -22.5q0 -31 -1.5 -61.5t-5 -64.5t-10 -73t-17.5 -87q-6 -26 -16.5 -67t-25.5 -91q44 -1 71 -3.5t35 -3.5q6 -1 9.5 -7t-4.5 -18
t-22 -14t-27 -2h-28.5t-49.5 -2q-20 -60 -46 -121.5t-57.5 -110.5t-68.5 -80t-79 -31q-61 0 -102.5 23t-67.5 54t-37.5 62t-11.5 47q0 30 15.5 60t49.5 56.5t87.5 47.5t128.5 31q31 4 59 6.5t54 4.5q20 73 40 149.5t35 140.5q6 26 11.5 57t9 58t4 46t-4.5 21q-3 2 -15 -7
t-27 -24.5t-30.5 -37.5t-25.5 -48q-17 -49 -27 -97q-6 -28 -8 -47.5t-1.5 -41t3.5 -42.5t11 -39q0 -7 -2 -12.5t-4 -9.5q-2 -5 -5 -9l-7 -7q-4 -3 -9 -6t-13 -6zM242 -25q11 22 26.5 69t33.5 108q-48 -6 -96.5 -16t-88.5 -27t-65 -41t-25 -58q0 -35 14 -61.5t34 -44.5
t41.5 -27t35.5 -9q15 0 28.5 11t24.5 27.5t20.5 35t16.5 33.5z" />
    <glyph glyph-name="J" unicode="J" horiz-adv-x="501" 
d="M69 -192q-28 0 -55.5 11t-49 31.5t-34 50.5t-10.5 68q3 66 26.5 122.5t54.5 97.5t63.5 64t53.5 23q14 0 25 -9t17.5 -23.5t8 -31.5t-4.5 -32q-10 7 -36 -5t-54.5 -39.5t-51 -68.5t-25.5 -92q-4 -66 19 -94.5t51 -28.5q36 0 65 26t53.5 73.5t46 113.5t40.5 146q9 36 25 98
t33.5 128.5t34 127.5t25.5 95q-34 -1 -65 -4q-29 -3 -57 -8t-48 -14q-2 1 -3.5 5t-1.5 9q-1 6 -2 13v16q1 7 2 15.5t4 16.5q26 8 59 12t63 6q35 3 70 3q26 0 55 -2q26 -2 55.5 -6t59.5 -12q6 -6 9 -15q1 -5 1 -9q-1 -8 -3 -15q-3 -6 -7 -12.5t-11 -10.5q-10 3 -26 5l-32 4
q-18 1 -37 2l-104 -461q-4 -17 -14 -52.5t-27 -78.5t-41 -89t-56 -84t-73 -62t-91 -24z" />
    <glyph glyph-name="K" unicode="K" horiz-adv-x="497" 
d="M19 195q-5 22 0 28t25 11q7 28 13 54t11 50q17 70 32 125t28.5 99.5t25.5 79.5t22 65q10 8 21.5 12.5t20.5 7.5q11 3 22 5q10 1 17 0t12.5 -3.5t5.5 -8.5q-37 -99 -63.5 -182.5t-43.5 -145.5q-21 -73 -35 -132q47 19 90 53t79.5 76.5t65 89t46.5 90t24 79.5t-2 57
q12 6 23 10t21 7q10 4 20 6q25 6 31.5 -9t4.5 -45q-3 -69 -34.5 -136t-80.5 -124.5t-108 -103.5t-117 -73q17 2 32.5 3t29.5 1q26 0 49 -5.5t39.5 -18t26 -33t8.5 -50.5q-2 -46 -12.5 -82.5t-23 -67.5t-23 -57.5t-11.5 -53.5t8 -45.5t22.5 -29.5t29.5 -16t29 -5
q17 0 36.5 3.5t34.5 8.5q6 2 9 -3t3 -9t-4.5 -14t-18.5 -16q-14 -7 -35.5 -13.5t-58.5 -6.5q-24 0 -50.5 11.5t-48 31t-34.5 46t-12 56.5q2 33 12 65t22 62t22.5 58t11.5 52q2 45 -22.5 66.5t-82.5 21.5q-20 0 -37 -2t-28 -4q-26 -132 -36 -199.5t-11 -88.5v-17t1 -16.5
t3 -15.5q-17 -12 -34 -19t-31 -10q-16 -4 -31 -4q-7 0 -13 2q-5 1 -10 3.5t-7 7.5q15 66 29.5 126.5t25.5 108.5q13 55 25 104q-4 4 -6.5 9t-4.5 13z" />
    <glyph glyph-name="L" unicode="L" horiz-adv-x="492" 
d="M161 332q-50 0 -80.5 11t-41.5 27q-5 7 -9 20.5t3 30.5q14 -10 30 -15t30 -8q16 -3 32 -3q58 0 112 18q12 58 23.5 105.5t25.5 76.5q32 65 71 102t105 37q25 0 39 -10t21 -24.5t8.5 -31.5t1.5 -31q0 -33 -15.5 -71t-44 -75t-68 -70t-88.5 -55q-16 -65 -32.5 -127.5
t-31.5 -103.5q-14 -38 -35 -85t-51 -90q19 -12 38 -24.5t38.5 -23t39.5 -17t42 -6.5q23 1 46 7q20 5 41.5 16t39.5 31q7 -12 4.5 -35.5t-15.5 -46.5t-36 -40.5t-58 -17.5q-37 0 -69.5 10t-61 25t-53 32t-46.5 31q-29 -28 -64.5 -45.5t-77.5 -17.5q-34 0 -55 19t-19 51
q1 12 7 28t22.5 31t44.5 25t73 10q16 0 31.5 -3.5t29.5 -8.5q22 40 45 103q23 61 39.5 123t28.5 121q-14 -3 -29 -4t-31 -1zM-1 -109q13 4 29.5 9t37.5 28q-13 5 -22 5q-35 0 -51 -10.5t-16 -20.5q0 -6 5.5 -9.5t16.5 -1.5zM368 570q-5 -14 -12.5 -42.5t-16.5 -65.5
q52 35 84 78.5t32 87.5q0 26 -16 26q-14 0 -35 -21t-36 -63z" />
    <glyph glyph-name="M" unicode="M" horiz-adv-x="733" 
d="M22 -183q-38 -1 -62.5 14t-38.5 42.5t-18.5 67t-0.5 86.5q4 37 17 76q12 35 33.5 74t59.5 77q13 -2 20 -10q3 -3 4 -7q2 -10 -5.5 -24t-15.5 -29q-22 -45 -32.5 -85t-13.5 -75q-2 -29 0.5 -53t7 -41t10.5 -26t11 -9t10.5 6.5t10.5 16.5q5 9 13 29.5t16.5 47t17 57
t15.5 61.5q14 63 29.5 142t45.5 164q10 36 24 79q13 40 30.5 88t41.5 105q0 5 8.5 10t18.5 9q12 5 27 10q20 7 31 7.5t16.5 -3t7.5 -10t2 -14.5q2 -32 2.5 -60t1.5 -50q1 -25 1 -46q1 -27 -2.5 -72.5t-8 -95.5t-7.5 -97t-2 -79q0 -16 1.5 -30.5t3.5 -27.5q12 35 28 73.5
t31.5 74t29 66.5t21.5 51q12 27 31 69t39 84.5t37.5 77.5t25.5 49q5 9 19.5 17t30.5 13.5t30.5 8.5t18.5 1q13 -3 18.5 -8t6.5 -7q2 -4 3 -13t-1 -29q-2 -23 -11 -71t-22.5 -109t-28.5 -130.5t-29 -136.5t-24 -125.5t-13 -98.5q-2 -45 6 -79q4 -20 9.5 -31.5t15 -21
t23 -14.5t32.5 -3q-25 -17 -48.5 -25t-45.5 -8q-49 -2 -75 30.5t-22 83.5q2 23 12.5 76.5t26 121.5t33.5 142t34 138.5t28 112t15 61.5q2 12 3.5 22t3.5 18q-10 -19 -24 -46.5t-30 -59t-32 -65t-31 -64.5q-24 -51 -47.5 -104t-42 -101t-30.5 -86t-14 -59v-14q0 -6 0.5 -13.5
t1.5 -14.5l-39 -30q-8 -3 -14.5 -5t-12.5 -2q-22 0 -34 23q-12 22 -21.5 84.5t-5.5 153.5q2 45 6.5 91t9 88t8 78t3.5 63q1 19 -1 35.5t-4 29.5q-8 -22 -19 -60.5t-23 -85.5t-24 -98.5t-23.5 -99.5t-21 -88.5t-15.5 -65.5q-10 -39 -19.5 -88.5t-24.5 -94t-38 -75.5t-61 -32z
" />
    <glyph glyph-name="N" unicode="N" horiz-adv-x="541" 
d="M152 461q-4 -17 -11.5 -50t-16 -75t-17.5 -88.5t-17 -91.5t-13.5 -84.5t-6.5 -66.5q-1 -30 0 -60q0 -27 3 -53.5t10 -48.5q-17 -7 -29 -11t-20 -6q-10 -2 -17 -2q-8 0 -18.5 1.5t-19.5 10t-15 27.5t-4 54t14.5 94.5t28.5 125.5t32 129t26 104q8 34 19 82q10 43 24 101.5
t32 138.5q7 6 14.5 10t13.5 7q7 4 14 6q31 11 44 2.5t15 -34.5q2 -17 5 -51t6 -74.5t5 -84t2 -80.5t2.5 -92t6.5 -112t10.5 -107.5t13.5 -78.5q4 -15 9 -28q6 23 13.5 55.5t15.5 69t15.5 75t13.5 72.5q5 27 11 70t14 93q-11 3 -20 8q-10 4 -18.5 9.5t-14.5 13.5q1 13 2.5 19
t9.5 1q6 -3 18 -7t29 -6q5 27 11 54.5t13 53.5q22 84 56.5 132.5t98.5 49.5q30 0 49.5 -24.5t16.5 -86.5q-2 -45 -19 -82t-41.5 -65t-53.5 -46t-56 -26q-9 -46 -16.5 -92.5t-15 -90t-14.5 -82.5t-15 -69q-6 -29 -14 -63q-7 -32 -16.5 -69t-20.5 -79q-4 -9 -10 -15t-12 -10
q-7 -5 -14 -8q-20 -8 -33 -3t-24 27t-19.5 55.5t-16.5 71.5q-9 42 -13.5 91.5t-7 101t-3.5 102t-4 95.5q-8 118 -20 184q-4 -20 -9 -44.5t-11 -49.5zM480 502q-2 -8 -3.5 -17t-3.5 -18q24 14 44 35t34.5 44t23 47t9.5 43q1 13 -2.5 21.5t-12.5 8.5q-4 0 -14.5 -5t-23 -22.5
t-26 -50t-25.5 -86.5z" />
    <glyph glyph-name="O" unicode="O" 
d="M512 328q-8 -92 -36 -184.5t-72 -166.5t-101.5 -120.5t-123.5 -46.5q-9 0 -27 3.5t-38.5 15.5t-41.5 35.5t-36.5 63t-22.5 98t0 141.5q11 131 48 238t84.5 183t98 117.5t89.5 41.5q16 0 26 -6.5t16 -15.5q7 2 15.5 3t19.5 1q28 0 50.5 -29t36.5 -82t18.5 -127t-3.5 -163z
M182 -134q38 0 78 39t74 106t58.5 156t33.5 188q3 40 3.5 95t-4.5 105.5t-16 85.5t-29 35q-12 -1 -25 -8q-12 -6 -25.5 -19t-27.5 -37q-4 4 -8 14q-2 4 -3 9q-2 3 -2 7.5t-1 9.5q-19 -21 -46.5 -60.5t-54 -98.5t-48.5 -138t-31 -181q-7 -90 -3 -149.5t15 -94.5t27.5 -49.5
t34.5 -14.5z" />
    <glyph glyph-name="P" unicode="P" horiz-adv-x="553" 
d="M-50 -140q4 3 12.5 10t19.5 25.5t24.5 54t28.5 95.5q8 33 20.5 82t27.5 106t31 117t30.5 114.5t26 98t18.5 68.5q-17 -12 -35 -26q-17 -14 -34.5 -29.5t-33.5 -33.5q-7 6 -12 12.5t-8 11.5l-6 12q-6 15 -6 30.5t24 32.5q13 9 39 25.5t64 32t88.5 27.5t112.5 12
t99.5 -24.5t57.5 -59.5t25.5 -74t2.5 -68q-6 -55 -35 -114.5t-80.5 -110t-126 -85.5t-170.5 -40q-7 -37 -15 -76.5t-17 -76.5t-18.5 -70t-18.5 -56q-10 -25 -25.5 -40.5t-49.5 -15.5q-18 0 -33 9t-28 24zM182 306q-3 -16 -7.5 -40.5t-10.5 -56.5q40 6 90 26.5t96 58t80 93
t41 131.5q5 49 -5.5 81.5t-30 52t-45 28t-50.5 8.5q-24 0 -48 -6.5t-47 -17.5q4 -2 7 -5t5.5 -7t3.5 -9q-23 -94 -38.5 -158t-24.5 -104q-10 -47 -16 -75z" />
    <glyph glyph-name="Q" unicode="Q" horiz-adv-x="583" 
d="M376 737q39 0 66.5 -16.5t47 -43.5t31.5 -60t18 -66.5t7.5 -63.5t0.5 -50q-5 -77 -22 -147t-42.5 -132t-58 -114.5t-67.5 -93.5l21 -21q28 -27 56 -46q26 -18 54.5 -28.5t54.5 -2.5q1 -14 -8 -22t-21 -11q-13 -4 -30 -5q-22 0 -46.5 9t-48 22.5t-43.5 29t-34 27.5
q-45 -42 -87.5 -64t-78.5 -22q-60 0 -85 26t-22 64q1 19 11.5 39.5t29.5 37t46 27.5t61 11q32 0 58 -5.5t52 -19.5q31 44 59 99t50.5 114.5t37 120t18.5 115.5q5 70 -3.5 116t-23 73t-32 37.5t-32.5 10.5q-33 0 -73.5 -33t-77.5 -91.5t-64.5 -138.5t-34.5 -175q-1 -41 8 -73
q4 -19 10 -30.5t16 -20.5t23.5 -15t32.5 -5q-2 -16 -12.5 -25t-22.5 -13q-14 -4 -31 -5q-15 0 -37 12t-41.5 38.5t-32 68t-8.5 99.5q3 39 14.5 88.5t31.5 100.5t49.5 100.5t67.5 87.5t84.5 61.5t102.5 23.5zM148 -116q26 0 54 17t55 46q-24 16 -50 16q-38 0 -60 -19.5
t-23 -39.5q-1 -8 5 -14t19 -6z" />
    <glyph glyph-name="R" unicode="R" horiz-adv-x="561" 
d="M176 211q11 2 23 4.5t26 6.5q-17 15 -44 19q-2 -7 -3 -14.5t-2 -15.5zM575 513q-4 -42 -22 -88t-50 -89t-78 -80t-105 -61q9 -16 17 -35t14 -42q8 -31 14.5 -64.5t11 -64.5t8 -57.5t5.5 -44.5q4 -29 19 -41.5t34 -14t38 4.5t30 13q-1 -1 -10.5 -17.5t-26.5 -34.5t-40 -31
t-51 -8q-38 6 -60.5 44t-27.5 127q-2 60 -4.5 115.5t-20.5 101.5q-3 8 -6 15.5t-7 13.5q-39 -10 -90 -13q-7 -37 -14.5 -76t-16 -76.5t-17.5 -70t-18 -55.5q-10 -24 -25.5 -39.5t-48.5 -15.5q-19 0 -34 9t-28 24q4 3 12.5 9.5t19.5 25.5t24 54t27 95q5 24 13 57t18 72
q-18 10 -28 25t-8 32q2 23 20.5 38.5t44.5 21.5q13 51 26.5 102.5t25 97.5t21 82.5t15.5 57.5q-17 -12 -35 -26q-17 -14 -34 -29.5t-33 -33.5q-7 6 -12 12.5t-9 12.5l-6 12q-6 14 -6 30t23 33q13 9 39 25t64 32t88.5 27.5t111.5 11.5q62 0 100 -24.5t58.5 -59.5t26.5 -74
t3 -68zM280 244q35 17 68.5 41.5t61 58.5t46 77.5t23.5 98.5q4 49 -7 81.5t-30.5 52t-45 27.5t-50.5 8q-24 0 -47.5 -6.5t-46.5 -17.5q4 -2 7 -5t5 -7t3 -9q-22 -94 -36.5 -158t-22.5 -104q-10 -47 -16 -75q-1 -4 -1.5 -8t-1.5 -9q22 -5 45 -15.5t46 -30.5z" />
    <glyph glyph-name="S" unicode="S" horiz-adv-x="475" 
d="M358 448q-1 5 12.5 29t25.5 57.5t13.5 72t-22.5 71.5q-14 18 -49 12.5t-72.5 -27.5t-67.5 -56.5t-34 -73.5q-4 -41 10.5 -70.5t25.5 -49.5q12 -21 41.5 -48t58 -67t47 -95t7.5 -130q-10 -72 -34 -120t-52 -77.5t-56 -43t-47 -17.5q-14 -3 -34.5 -5t-42.5 1t-44 13.5
t-40 31.5q-19 25 -32 53q-11 26 -16 56.5t5 65.5q7 9 16.5 16t18.5 12q10 6 20 10q13 5 26 7q11 3 23 3t22 -4q-8 -8 -12.5 -16t-7.5 -15q-4 -7 -6 -14q-4 -18 -2.5 -44t10.5 -50t27 -41t47 -18q70 -2 121 111q17 35 17 71t-9 69.5t-24.5 62t-30.5 49.5t-37.5 44.5t-44 52
t-38.5 62t-23 72.5q-8 54 10.5 100t49 80t67 55t65.5 27q155 31 206 -52q20 -33 22 -69t-4 -66.5t-15.5 -51.5t-12.5 -23q-6 -6 -18.5 -13t-41.5 -13q-8 -1 -16 -1q-7 -1 -14.5 0t-13.5 4z" />
    <glyph glyph-name="T" unicode="T" horiz-adv-x="424" 
d="M60 611q-12 -3 -18 0t-9 9.5t-3 15t1 15.5q3 14 9.5 32t23.5 21q45 8 88 12t77 6q40 3 75 3q8 0 15.5 -0.5t15.5 -0.5q9 2 14.5 1.5t8.5 -1.5q29 -1 59 -3q28 -2 58.5 -4.5t61.5 -6.5q2 -4 2 -9.5t-1 -10.5t-2 -11q-2 -6 -5 -11t-7 -9.5t-10 -7.5q-33 1 -64 1.5t-54 0.5
h-53q-12 -45 -31 -111t-38 -138.5t-36.5 -144.5t-26.5 -129q-11 -56 -20 -109q-5 -31 -8.5 -52.5t-7 -44t-6.5 -44t-5 -38.5q-15 -8 -29 -12.5t-25 -6.5q-12 -3 -23 -3q-23 0 -28.5 5.5t-1.5 21.5q3 13 18 74q7 31 15.5 68t21.5 91.5t30.5 127.5t39.5 169l65 271
q-29 -3 -57.5 -8.5t-53.5 -10.5t-44.5 -10t-31.5 -8z" />
    <glyph glyph-name="U" unicode="U" horiz-adv-x="574" 
d="M10 -9q2 63 18 160q14 89 43.5 215t86.5 308q5 10 15.5 16.5t21.5 11.5q12 5 26 8t27 5q11 1 22 1.5t19 -1.5q-34 -86 -58 -156t-40 -120q-19 -59 -31 -106q-16 -49 -28 -98t-19.5 -92t-10.5 -77.5t-3 -53.5q1 -59 19.5 -92.5t60.5 -33.5q35 0 66 33t56.5 81.5t44 104
t28.5 99.5q2 5 2.5 10.5t1.5 11.5v0v0q13 61 31 135q16 68 37 151.5t49 184.5q8 8 17.5 13t17.5 8q10 3 20 5t20 2t21 -1.5t23 -5.5q-19 -52 -37.5 -109.5t-33.5 -106.5q-17 -57 -33 -112q-22 -70 -36 -126.5t-22.5 -103.5t-13 -88t-7.5 -80q-2 -30 -1 -58q1 -26 6.5 -50
t17.5 -40q-5 -6 -14.5 -9.5t-18.5 -5.5q-11 -2 -23 -2q-25 0 -37 32t-13 101q-8 -15 -24.5 -39.5t-41.5 -47.5t-58 -39.5t-75 -16.5q-41 0 -68 14t-42.5 38t-22 55.5t-6.5 66.5z" />
    <glyph glyph-name="V" unicode="V" horiz-adv-x="504" 
d="M168 -189q-24 0 -42.5 24.5t-32.5 63.5t-23.5 89t-15 101t-7.5 99.5t-2 85.5q1 59 9 121t18.5 117t21 97t14.5 60q7 28 19 38.5t44 12.5q12 1 23 0q11 0 20.5 -1.5t16.5 -5.5q-34 -70 -56 -142.5t-33.5 -144.5t-14.5 -142.5t-1 -135.5q2 -51 6 -96t13 -90t20.5 -51.5
t24 9t24.5 46.5t21 62q6 20 18 59t26.5 86t30.5 97.5t29.5 94t24 76t14.5 42.5q6 16 16 43.5t22.5 58.5t25.5 62t25 54t26.5 27t28.5 -4.5t26.5 -25t20.5 -34.5q-12 -5 -25.5 -24.5t-23.5 -40.5q-13 -24 -25 -54q-8 -21 -20.5 -56.5t-27 -77.5t-29.5 -87t-28.5 -85
t-25 -71.5t-17.5 -47.5q-10 -24 -23 -54.5t-27 -62.5t-29 -64t-29 -57q-20 -37 -34.5 -54t-36.5 -17z" />
    <glyph glyph-name="W" unicode="W" horiz-adv-x="817" 
d="M141 -187q-29 0 -52.5 25t-39 71.5t-21.5 114.5t0 155q4 58 15.5 117.5t26.5 116t31.5 106.5t30.5 88t24 62t11 27q3 5 11 10.5t19.5 9.5t24.5 6.5t25 2.5q9 0 18 -1t16.5 -3t13.5 -6q-10 -6 -20.5 -21t-19.5 -30q-10 -18 -20 -38q-19 -41 -40.5 -99.5t-40.5 -124.5
t-33 -133.5t-19 -127.5q-8 -121 8.5 -180t46.5 -59q15 0 31.5 19t33.5 48t33.5 65.5t31.5 70.5q9 23 19.5 51t21 57.5t20 58t16.5 51.5q0 29 1 62t4.5 67t9.5 66.5t16 59.5q19 53 45 78t46 26q14 0 20 -12t5 -31q-2 -25 -8.5 -61t-16.5 -76.5t-21.5 -82t-22.5 -79.5
q-17 -100 -21.5 -182t1 -140.5t19.5 -90t32 -31.5q22 0 45.5 29.5t47.5 77.5t45.5 110t39.5 127t29.5 128t15.5 113q3 42 3 84q0 38 -2.5 76.5t-10.5 70.5q6 6 15.5 10.5t18.5 7.5q11 3 23 6q8 2 17 3q7 1 15 1.5t15 -1.5q6 -13 8.5 -34.5t3.5 -42.5q0 -24 -1 -51
q-7 -104 -26.5 -203.5t-47 -188.5t-61 -164t-69 -129t-71.5 -84.5t-68 -30.5q-34 0 -55 29t-31.5 72t-13.5 93t-2 92q-22 -54 -48 -105.5t-53.5 -91t-56 -63.5t-57.5 -24z" />
    <glyph glyph-name="X" unicode="X" horiz-adv-x="579" 
d="M684 665q-8 5 -18 3t-19 -6q-11 -5 -21 -12q-26 -21 -77.5 -79.5t-111.5 -149.5q-26 -40 -54 -81t-56 -83q4 -45 7 -81.5t8 -70.5t12.5 -68t19.5 -74q13 -42 27.5 -62t41.5 -20t50.5 13.5t42 30t30.5 30t14 13.5q4 0 6.5 -8.5t1.5 -16.5q0 -6 -13 -27t-36.5 -43
t-55.5 -39.5t-71 -17.5q-40 0 -65.5 28.5t-42 76.5t-26 110t-15.5 129q-19 -29 -37.5 -58.5t-37.5 -59.5q-42 -67 -67.5 -113.5t-46.5 -69.5q-15 -17 -28 -22t-29 -2q-13 3 -26 8q-12 6 -22.5 14t-18.5 22q13 3 25 12t22 18q12 11 22 23q8 10 31 44t55.5 82.5t70.5 106.5
l76 116q-5 51 -10.5 102.5t-13.5 99.5q-15 -20 -37 -39t-43 -19q-22 0 -44 13t-38.5 34.5t-25.5 51.5t-6 64q2 21 11.5 47.5t26.5 50t41 40t54 16.5t51 -12.5t37 -46t28.5 -93t24.5 -153.5q2 -16 3.5 -31t3.5 -29q33 51 60 91.5l41 61.5q26 39 51.5 75t51 64.5t50 45.5
t48.5 17q11 0 21 -7t19 -17.5t16 -22t11 -20.5zM179 513q11 0 22.5 4t19.5 7q-12 70 -29.5 115.5t-40.5 45.5q-20 0 -33 -21t-16 -59q-4 -37 17.5 -64.5t59.5 -27.5z" />
    <glyph glyph-name="Y" unicode="Y" horiz-adv-x="532" 
d="M153 75q-66 0 -95.5 42t-24.5 113q4 45 17 113q11 61 33 148.5t60 213.5q12 8 24 12.5t22 6.5q11 3 22 4q10 1 19 1q8 0 15.5 -1.5t12.5 -5.5q-50 -128 -78 -218.5t-41 -149.5q-17 -68 -21 -113q-3 -54 16 -76t57 -22q30 0 61.5 23t61 65.5t54.5 102.5t42 135l18 84
q8 39 17.5 79t18.5 76q9 8 19 12.5t19 7.5q11 3 21 4t20 0q8 -1 16 -2.5t13 -6.5q-16 -52 -28.5 -94t-21.5 -72l-18 -63q-7 -29 -19 -76q-11 -43 -26 -105t-38 -153q-6 -24 -14.5 -58.5t-23 -73t-35.5 -76t-52 -68t-72.5 -49t-97.5 -18.5q-31 1 -57 10q-24 7 -42.5 22.5
t-21.5 44.5q5 10 11 19.5t12 16.5q6 9 13 16t15 13q7 5 14.5 9t15.5 4q4 -9 12 -21t19.5 -22t26 -17t32.5 -7q24 0 49.5 15t51.5 52t51 99.5t46 157.5q-12 -22 -31.5 -49t-47 -50t-63 -39t-79.5 -16z" />
    <glyph glyph-name="Z" unicode="Z" horiz-adv-x="455" 
d="M70 163q30 38 76 93.5t92.5 115t87 116t60.5 95.5q6 12 10 24q4 11 6 22.5t0 21.5q-28 0 -67 -1.5t-82 -6.5t-86.5 -14.5t-80.5 -26.5q-5 3 -6 12.5t0 19.5q2 11 5 25q4 12 9 23q4 10 9.5 18.5t13.5 12.5q37 6 70 9t58 4q29 2 53 2q33 0 66 -1q30 -2 61 -4t58 -7
q5 -14 7.5 -28.5t3.5 -26.5q1 -14 1 -27q-2 -34 -30 -89t-72 -113q-21 -28 -61 -76t-85.5 -103.5t-91.5 -113t-81 -104.5q-25 -34 -42 -67t-27 -57q26 10 78.5 22t124.5 12q38 0 71 -3q31 -2 58 -7t40 -14q-2 -10 -10 -24q-7 -12 -21 -28.5t-40 -39.5q-38 8 -71.5 12.5
t-58.5 6.5q-29 3 -54 3t-53 -4q-26 -2 -56 -8t-64 -17q-9 6 -14.5 20.5t-9.5 29.5q-3 18 -5 38q26 58 52.5 104.5t48.5 79.5q25 39 49 69z" />
    <glyph glyph-name="bracketleft" unicode="[" horiz-adv-x="202" 
d="M113 358q-15 -56 -28.5 -114.5t-24 -108.5t-17 -85.5t-8.5 -45.5q-4 -20 3.5 -38t34.5 -18h26l-9 -54l-90 -5q-8 0 -17 0.5t-16 6.5t-10.5 18t0.5 34q3 22 11.5 65.5t21 99.5t27 121t29.5 131q17 71 35.5 140t34.5 126t27.5 96.5t15.5 50.5q15 46 46 50q8 1 22 1h28
t27 -0.5t20 -0.5l-16 -69q-13 0 -24.5 -1t-22 -6t-19 -15.5t-14.5 -30.5q-22 -75 -39 -138t-29 -110q-14 -55 -25 -100z" />
    <glyph glyph-name="backslash" unicode="\" horiz-adv-x="273" 
d="M116 729q1 -7 3.5 -35t7 -69t10 -91t12.5 -101.5t14.5 -101.5t16.5 -90q9 -46 19 -90q8 -41 17 -80t17 -68q-10 -7 -20 -11t-18 -6q-9 -2 -18 -2q-20 0 -26 4.5t-8 18.5q-2 11 -9 61q-7 44 -20 131.5t-37 246.5l-36 240q-3 19 3.5 28.5t31.5 16.5q20 5 29.5 3.5
t10.5 -5.5z" />
    <glyph glyph-name="bracketright" unicode="]" horiz-adv-x="217" 
d="M89 359q15 56 28.5 114.5t24 108.5t17.5 86t8 46q4 20 -3.5 37.5t-34.5 17.5h-27l9 55l91 4q8 0 17 -0.5t16 -6.5t10.5 -18t-0.5 -34q-3 -22 -12 -65t-21 -99.5t-26.5 -121.5t-30.5 -131q-16 -71 -34.5 -140t-34.5 -126t-27.5 -96t-15.5 -51q-15 -46 -46 -50
q-8 -1 -22 -1h-28t-27 0.5t-20 0.5l15 69q13 0 25 1t22.5 6t19 16t14.5 31q22 75 39 138t29 110q14 54 25 99z" />
    <glyph glyph-name="asciicircum" unicode="^" horiz-adv-x="287" 
d="M277 712q2 -18 3 -35t3 -33q6 -51 11 -100q6 -45 11.5 -89t11.5 -76q-8 -8 -16.5 -12t-16.5 -5q-9 -3 -17 -3q-19 0 -24 5t-7 20q0 3 -2 28.5t-4.5 64t-5.5 86t-6 94.5q-29 -51 -72 -124.5t-91 -152.5q-3 -4 -10 -8q-6 -3 -16 -5.5t-25 -2.5q-13 -1 -18 2t-6 7q-1 5 2 11
l5 9q2 3 4.5 7t4.5 7l161 273q6 10 11 17t11 13q5 5 21 9t32.5 5t30 -1.5t14.5 -10.5z" />
    <glyph glyph-name="underscore" unicode="_" horiz-adv-x="439" 
d="M389 56q8 -3 10 -10.5t-4 -25.5t-13 -23t-14 -7q-3 -1 -26.5 1t-57 4.5t-73 4t-74.5 0.5q-66 -2 -119.5 -4t-98.5 -7q-20 -2 -25 7.5t-3 21.5q3 12 9 27.5t21 17.5q46 5 89.5 7t77.5 3q40 1 75 0q45 2 85 0t70 -5.5t48.5 -7t22.5 -4.5z" />
    <glyph glyph-name="grave" unicode="`" 
d="M321 676q6 -3 21 -13.5t32 -23.5t32 -26t20 -22q11 -18 2.5 -27t-18.5 -15q-42 22 -69.5 37t-45.5 24l-32 16q-9 5 -7 18t13 25q15 15 27 14.5t25 -7.5z" />
    <glyph glyph-name="a" unicode="a" horiz-adv-x="436" 
d="M501 194q-14 -19 -35.5 -48t-44.5 -58t-44.5 -53t-36.5 -33q-20 -13 -48.5 -15.5t-45.5 10.5q-8 7 -14 20q-6 11 -10 28.5t-3 43.5q-23 -39 -51.5 -60t-53.5 -31q-30 -11 -59 -13q-14 0 -29.5 9.5t-26 29.5t-14 51.5t7.5 75.5q14 60 44 109t64.5 83.5t69 52t57.5 15.5
q27 -4 43 -16q14 -10 18 -28.5t-17 -50.5q15 3 23.5 4t13.5 1q6 0 8 -1t1.5 -8t-3.5 -23t-9 -44.5t-15 -73.5q-2 -9 -3.5 -16t-3 -14.5t-3.5 -17t-5 -24.5q-1 -9 -0.5 -19t3.5 -19t9.5 -14.5t18.5 -5.5q15 0 41 26t54 59.5t51.5 64.5t32.5 42q8 9 16 10.5t11.5 -4.5
t1.5 -17.5t-14 -27.5zM215 151q5 20 11.5 46.5t12 50.5t7.5 40.5t-2 15.5q-5 -1 -11 -3q-5 -1 -12 -2.5t-16 -3.5q8 15 9.5 25.5t1.5 16.5q-1 7 -5 11q-11 8 -38 -15t-62 -84q-15 -25 -23.5 -54t-12 -54.5t-1.5 -44.5t8 -25q16 -16 38 -8t42.5 25t35.5 36.5t17 26.5z" />
    <glyph glyph-name="b" unicode="b" horiz-adv-x="415" 
d="M224 560q-14 -58 -32.5 -111.5t-38 -100t-38 -85t-33.5 -66.5q-10 -70 0 -113t38 -43q24 0 46 21.5t40 53t30 67t15 63.5q-18 5 -31 17.5t-13 32.5q0 14 7.5 26t18.5 20.5t24 13.5t23 5q17 0 28.5 -21t15.5 -53q39 1 82 12t81 27q11 5 18 3t9 -7.5t-1 -12.5t-11 -12
q-45 -26 -94 -40t-84 -15q-4 -39 -24.5 -84t-50 -84t-64.5 -64.5t-70 -25.5q-10 0 -28 3t-34.5 20.5t-28 56t-9.5 110.5q1 48 10.5 101.5t23.5 107t30.5 104t32.5 91t29 68t20 35.5q9 11 20.5 16.5t23 7.5t21 1t13.5 -3q6 -4 3.5 -42.5t-18.5 -100.5z" />
    <glyph glyph-name="c" unicode="c" horiz-adv-x="363" 
d="M166 33q30 0 67 24t71.5 56.5t63 66t43.5 53.5q9 13 17 15.5t12 -2.5t3 -15t-9 -23q-11 -18 -40.5 -56.5t-70.5 -77.5t-89 -69t-95 -30q-43 0 -72 16t-46 41t-24 56t-7 61t14 75t41 87t68 71.5t96 29.5q31 0 53 -21.5t21 -58.5q0 -18 -5.5 -35t-15.5 -30t-23 -21t-29 -8
q-13 0 -19 9.5t-7.5 22t0 24t3.5 15.5q4 6 10 9l14 7q6 3 9 9t3 12.5t-3.5 11.5t-12.5 5t-31.5 -14t-46.5 -41.5t-43 -69.5t-20 -98q-1 -32 8.5 -52.5t24.5 -32.5t33 -17t34 -5z" />
    <glyph glyph-name="d" unicode="d" horiz-adv-x="483" 
d="M311 187q-5 -31 -9.5 -58.5t-5.5 -43.5q-1 -24 9 -35t21 -11q14 0 34 13.5t42 34t44.5 45t41.5 47t32.5 39t18.5 20.5q6 6 12.5 7t10.5 -2t4 -10.5t-8 -19.5q-18 -28 -50 -68.5t-69 -77.5t-74 -63t-65 -26q-13 0 -26 8t-22.5 20.5t-15 28t-4.5 30.5q2 8 3 24
q-41 -46 -82.5 -73t-79.5 -27q-14 0 -29.5 7t-28 22.5t-20 41t-5.5 61.5q3 57 22.5 107.5t49.5 88t67.5 59.5t75.5 22q17 0 30.5 -8.5t23 -21t16 -28t9.5 -29.5q7 29 13 56t12 51q9 36 20 79q10 38 23 83.5t28 97.5q9 8 18.5 12t16.5 6q9 2 17 2q10 0 17.5 -2.5t13 -12.5
t7.5 -30.5t0 -55.5q-2 -43 -15.5 -94t-34.5 -105t-49 -108.5t-60 -102.5zM253 174q4 18 7.5 36.5t8.5 38.5q-2 -1 -3.5 -2t-3.5 -2q-11 -5 -15 0.5t-4 17.5q0 5 -1 20t-5 31t-13 28.5t-25 12.5q-22 0 -45.5 -22.5t-44 -55.5t-34 -70t-15.5 -66q-2 -48 11.5 -68t36.5 -20
q18 0 39 14t41 33t37.5 40t27.5 34z" />
    <glyph glyph-name="e" unicode="e" horiz-adv-x="372" 
d="M442 203q-29 -42 -66.5 -83t-78.5 -72.5t-84.5 -51t-84.5 -19.5q-21 0 -46 10t-45.5 31.5t-33 56t-7.5 82.5q4 40 25 84.5t52 81.5t69.5 61.5t77.5 24.5q38 0 54 -18.5t14 -45.5q-3 -30 -17 -55.5t-33.5 -46t-41.5 -37t-42 -30.5q-21 -15 -40.5 -28t-34.5 -24
q2 -48 28.5 -67.5t57.5 -19.5q33 0 69.5 21t71 51t64 62.5t49.5 55.5q7 8 14 9.5t11.5 -2.5t5 -12t-7.5 -19zM192 354q-12 0 -28 -11.5t-31.5 -33.5t-29 -54t-20.5 -73q12 8 25.5 17.5t27.5 20.5q42 32 58.5 56.5t18.5 41.5q2 19 -4 27.5t-17 8.5z" />
    <glyph glyph-name="f" unicode="f" horiz-adv-x="325" 
d="M20 102q-11 10 -15.5 21t-6.5 20q-2 11 0 21q4 13 12 25q7 11 18.5 22.5t31.5 20.5q12 31 22.5 65.5t17.5 63.5q9 34 16 67q24 83 25.5 135t-1.5 69l-2 14q-1 6 -3 13l-4 14q10 6 18.5 9.5t14.5 5.5q7 3 13 4q22 5 42 5.5t22 -7.5q1 -4 2.5 -16.5t1.5 -31.5t-3 -42
t-11 -48q-6 -22 -18 -62q-11 -37 -28.5 -93.5t-45.5 -144.5q29 10 64.5 19t72 15t73 8.5t67.5 0.5q6 0 8.5 -5t0 -11t-10.5 -11.5t-24 -6.5q-39 -3 -91 -11t-96 -26q-17 -6 -33 -12q-15 -5 -29.5 -11t-24.5 -12l-22 -71q57 -40 87 -82t44 -77q17 -41 19 -80q0 -65 -27 -129
t-68 -114t-89.5 -80t-91.5 -26q-21 2 -34.5 13.5t-20.5 28.5t-8 38t4 41q4 21 17 77q12 49 34 137t60 237zM77 56q-13 -48 -23.5 -89.5t-17.5 -72.5q-8 -36 -14 -66q-9 -37 -18 -73t-14.5 -64.5t-4.5 -46.5t13 -18q28 -2 59 22t56.5 60.5t42 79t16.5 78.5q0 40 -13 79
q-8 20 -20 40q-11 19 -26 37.5t-36 33.5z" />
    <glyph glyph-name="g" unicode="g" horiz-adv-x="460" 
d="M258 -140q-5 -24 -12.5 -58.5t-17 -73.5t-21.5 -77.5t-26.5 -69.5t-32.5 -50.5t-39 -19.5q-32 0 -55.5 19t-38.5 47.5t-22.5 62t-7.5 61.5q0 39 6.5 65t24 49.5t47 50t75.5 65.5q23 20 43 37t39 32q5 20 9 36.5t7 30.5q-26 -34 -61.5 -57.5t-80.5 -23.5q-42 0 -68 38
t-26 111q0 36 13.5 82.5t39 88t62.5 69.5t83 28q22 0 37.5 -10.5t26 -26.5t16.5 -34.5t9 -33.5q2 6 3 12t3 11q10 33 22 45.5t37 12.5q14 0 23 -5t9 -9l-8 -16t-6 -12.5t-6 -16.5t-8 -28q-1 -7 -7 -32t-13.5 -59.5t-17 -75t-18.5 -79.5q27 16 56.5 38.5t55.5 45.5t46.5 44.5
t30.5 34.5q8 11 18 16t17 4t8.5 -8.5t-6.5 -20.5q-22 -36 -54 -69.5t-66 -62t-65.5 -51t-54.5 -36.5q-10 -44 -16.5 -71t-11.5 -50zM135 53q20 0 38 10.5t32.5 25t25 29t14.5 23.5t9 23t8 28.5t3 25t-7 11.5q-6 1 -9.5 7.5t-5.5 15t-2.5 18t-1.5 15.5q-5 34 -16.5 50
t-26.5 16q-24 0 -46 -20t-39 -50.5t-27 -67t-10 -69.5q0 -42 12 -66.5t49 -24.5zM90 -400q20 0 31.5 28.5t25.5 78.5l8.5 34t12.5 50.5t15.5 61t16.5 65.5q-8 -7 -16 -14.5t-17 -16.5q-22 -21 -42 -40t-35.5 -40t-24.5 -45.5t-9 -56.5t2.5 -52.5t7 -32t10.5 -16t14 -4.5z
" />
    <glyph glyph-name="h" unicode="h" horiz-adv-x="466" 
d="M504 215q7 8 14 8.5t11.5 -4t4 -13t-8.5 -19.5q-18 -25 -42.5 -52.5t-52 -53t-56.5 -47.5t-55 -37q-29 -17 -49 -16.5t-40 25.5q-17 22 -16.5 48t11.5 65q7 24 19 58t19 65t4.5 53t-25.5 22q-16 0 -34 -10.5t-36 -28t-34.5 -38.5t-29.5 -42q-8 -38 -15 -75
q-7 -34 -14.5 -69t-14.5 -64q-5 -5 -12 -6.5t-13 -2.5q-7 0 -14 1q-7 2 -14 6q-6 4 -12 10.5t-9 17.5q44 181 69.5 290t39.5 167q16 68 21 94q3 18 5 36q2 17 2 33.5t-3 29.5q8 5 17.5 8t18.5 6q10 2 21 4q10 2 19 2q8 0 15 -1.5t9 -6.5q6 -5 5.5 -19.5t-2.5 -29.5
q-3 -19 -9 -41q-21 -79 -46.5 -154t-46.5 -160q13 20 30.5 40.5t38.5 38t44.5 28.5t49.5 11q28 0 47.5 -19t18.5 -70q-1 -31 -13 -68.5t-37 -101.5q-9 -23 -14 -38.5t2 -27.5q9 -15 35 -7t77 50q12 10 26.5 25t28.5 30t26 28.5t19 21.5z" />
    <glyph glyph-name="i" unicode="i" horiz-adv-x="274" 
d="M215 575q-3 -10 -11 -20t-18.5 -17t-21.5 -9t-18 4q-20 16 -21 34t8.5 34t24.5 27.5t26 13.5t18.5 -4.5t11 -17t4 -23t-2.5 -22.5zM80 367q5 6 18.5 10t28.5 6.5t27 3t14 -0.5t-4.5 -20.5t-15.5 -46t-18.5 -54t-14.5 -45.5t-11.5 -39.5t-12 -43t-7.5 -39.5t3 -29
q9 -20 23 -20q20 0 50 21.5t60.5 51t56.5 60.5t39 49q8 11 16.5 13.5t13.5 -1.5t6 -12.5t-6 -20.5q-16 -27 -46 -65t-64.5 -72.5t-67 -59t-53.5 -25.5q-17 -1 -33 5.5t-29 17.5t-21.5 26t-10.5 32q-2 25 1 67.5t10.5 87t19.5 84t28 59.5z" />
    <glyph glyph-name="j" unicode="j" horiz-adv-x="268" 
d="M232 604q0 -9 -6.5 -21t-16.5 -22.5t-22.5 -18t-24.5 -7.5q-11 0 -19.5 11t-7.5 29q0 13 7.5 27t18.5 25.5t24 19t25 7.5q16 0 19.5 -15.5t2.5 -34.5zM-109 -443q-27 0 -46 14.5t-31.5 37t-18.5 49t-5 49.5q1 20 15 52.5t39.5 69.5t61.5 74t80 67q6 30 12.5 62t12.5 62
t12 56.5t12 46.5q7 27 15 56q7 27 16 57t18 61q10 5 18.5 7t15.5 3q8 1 15 0t13 -4q6 -2 12 -6.5t11 -11.5q-17 -52 -28.5 -89t-18.5 -62q-9 -29 -14 -48q-8 -27 -15 -62t-16 -75q41 26 83 60.5t76.5 67t58.5 57.5t29 31q7 8 14 8.5t11 -4.5t3.5 -14t-8.5 -21
q-13 -19 -40.5 -49t-63 -63t-76 -65t-80.5 -56q-9 -5 -20 -13q-13 -57 -26 -113t-28 -104q-15 -47 -26.5 -82.5t-24.5 -59t-29 -35t-39 -11.5zM-145 -320q-2 -35 5 -52t19 -17q8 0 17 17t17.5 42t16.5 55t14.5 56.5t10.5 45t5 21.5q2 7 4 16t4 20q-45 -47 -78 -100t-35 -104
z" />
    <glyph glyph-name="k" unicode="k" horiz-adv-x="440" 
d="M501 194q-23 -36 -51.5 -75.5t-60.5 -72.5t-66.5 -54.5t-68.5 -21.5t-49.5 22.5t-14.5 51.5q1 26 8 40t13 35q4 13 0.5 23t-8.5 18q-9 -10 -20 -17t-28 -7q-11 0 -21 11t-10 28q0 14 6.5 22.5t14.5 13.5t17 7t15 2q3 0 12 -1t20 -3q35 29 50 51.5t3 41.5q-8 12 -20 12.5
t-24.5 -5.5t-25 -16t-21.5 -19q-20 -19 -44 -46t-39 -45q-6 -29 -13 -61q-7 -30 -14 -65t-15 -73q-6 -3 -12 -4.5t-11 -2.5q-6 -1 -12 -1q-7 0 -14.5 0.5t-12 5t-5 14t5.5 27.5q8 25 20 67.5t24.5 93.5t26 106t25 105.5t20 91.5t11.5 64q4 26 6 48q2 21 2.5 39.5t-2.5 28.5
q5 5 14.5 8.5t19.5 5.5q12 3 25 5q16 2 27.5 1t16.5 -9q6 -10 2.5 -33t-14.5 -64q-13 -53 -27 -96.5t-27.5 -81.5t-26 -73.5t-22.5 -72.5q20 28 49.5 60t66.5 52t64 20q31 0 45 -21t13 -49q-1 -22 -11.5 -41t-25.5 -35t-31 -28t-28 -20q14 -8 24 -21t9 -33q-1 -26 -10 -46
t-9 -37q1 -12 5.5 -18t18.5 -6q27 0 55 22.5t54 51.5t47.5 58.5t33.5 42.5q8 9 15.5 10.5t12 -2t4.5 -11.5t-7 -19z" />
    <glyph glyph-name="l" unicode="l" horiz-adv-x="219" 
d="M-15 16q44 181 69.5 290t39.5 167q16 68 21 94q3 18 5 36q2 17 2 33.5t-3 29.5q8 5 17.5 8t18.5 6q10 2 21 4q10 2 19 2q8 0 15 -1.5t9 -6.5q6 -5 5.5 -19.5t-2.5 -29.5q-3 -19 -9 -41q-11 -42 -32 -121q-18 -72 -47 -185t-75 -292q-5 -5 -12 -6.5t-13 -2.5q-7 0 -14 1
q-7 2 -14 6q-6 4 -12 10.5t-9 17.5z" />
    <glyph glyph-name="m" unicode="m" horiz-adv-x="718" 
d="M455 45q0 20 4.5 46.5t11 54t14 54t11.5 47.5q6 25 -0.5 39t-23.5 14q-8 0 -31 -13.5t-50 -47t-53 -91t-40 -145.5q-10 -5 -19.5 -8.5t-16.5 -4.5q-8 -2 -15 -3q-19 -1 -25 6.5t2 35.5q4 14 14 44t19.5 65.5t17 71.5t7.5 62q0 19 -6.5 26t-17.5 7q-9 0 -29.5 -10
t-45.5 -38t-50.5 -78t-42.5 -131v2l-10 -45l-49 -22q-4 -2 -11.5 -3t-14 3t-9.5 14.5t2 31.5l62 255q3 13 5 25q1 11 1.5 21t-1.5 17q17 8 29.5 12t20.5 6q10 2 17 2q31 0 20 -54q-2 -6 -4.5 -17.5t-6.5 -27.5q19 23 39.5 44t42.5 37.5t44 26.5t43 10q17 0 28 -9.5t17 -26
t7 -38t-2 -45.5q15 20 34.5 41t40.5 38t43.5 27.5t44.5 10.5q27 0 41 -16t19.5 -40t3 -52.5t-8.5 -54.5l-33 -132q-11 -49 20 -49q25 0 54 23.5t57 56t53 66t41 54.5q6 7 12.5 8.5t10.5 -2.5t4.5 -12t-5.5 -19q-20 -34 -48 -75.5t-61.5 -77.5t-72 -60.5t-79.5 -24.5
q-13 0 -26.5 3t-24.5 10.5t-18 21t-7 33.5z" />
    <glyph glyph-name="n" unicode="n" horiz-adv-x="462" 
d="M290 -24q-45 0 -65 29.5t-10 70.5q5 21 17 60.5t20.5 79.5t8.5 69.5t-19 29.5q-16 0 -32.5 -10.5t-33.5 -27.5t-34 -40t-34 -48q-16 -65 -24.5 -102t-15.5 -65q-2 -10 -17 -19t-31.5 -14.5t-29 -6t-10.5 8.5q1 6 6.5 26.5t13 48t15.5 59.5t14 60q5 23 11 50q6 25 13 55.5
t16 66.5q7 6 15 9.5t15 6.5q8 2 16 3q8 0 16 -1q7 -1 14 -3.5t13 -7.5q-3 -6 -7 -18.5t-8 -25.5q-4 -16 -9 -33q13 18 29 36t35 32.5t40.5 24t43.5 9.5q19 0 33.5 -11t23 -30t9.5 -45.5t-7 -57.5q-4 -19 -10 -43q-6 -21 -13.5 -48t-17.5 -61q-6 -22 -4.5 -37.5t18.5 -15.5
q18 0 45 22t54.5 52t51.5 61.5t37 51.5q8 12 16 16t12.5 1t4.5 -13t-8 -26q-10 -21 -36.5 -59.5t-60 -76t-71 -65.5t-69.5 -28z" />
    <glyph glyph-name="o" unicode="o" horiz-adv-x="394" 
d="M289 155q-9 -37 -26 -69t-40 -55.5t-52 -37t-63 -13.5q-40 0 -62.5 17t-34 42.5t-14 56t-2.5 56.5q0 38 17 87.5t49 89.5q11 34 46 50.5t71 16.5q4 0 10 -2q13 -1 32.5 -9.5t37.5 -26.5t30.5 -45t12.5 -65q0 -8 -1 -19t-2 -19q22 8 46.5 21t47.5 27t42.5 28.5t31.5 26.5
q9 9 16 10t10 -3.5t1 -13.5t-11 -20q-5 -6 -24.5 -23.5t-47 -38t-59.5 -40t-62 -29.5zM124 304q-3 -9 -3 -19q0 -16 1.5 -33t10 -31t25.5 -23t47 -9q5 0 10 0.5t10 1.5q3 13 5 23.5t2 17.5q2 19 0 38.5t-7 35.5t-13.5 26.5t-20.5 10.5q-18 0 -35 -10.5t-32 -28.5zM62 132
q0 -18 2 -35t7.5 -30.5t15.5 -21.5t25 -8q18 0 32.5 8t26 21.5t21 31t16.5 35.5q-7 -1 -13.5 -1.5t-13.5 -0.5q-38 0 -64.5 22t-41.5 56q-6 -20 -9.5 -40t-3.5 -37z" />
    <glyph glyph-name="p" unicode="p" horiz-adv-x="451" 
d="M-70 -417q-7 4 -14 9q-6 5 -11.5 12.5t-9.5 17.5q27 105 46.5 182t32.5 128q15 60 25 102l20 78q8 37 17 75t17 72q9 38 11 60.5t-14 39.5q12 10 24 15t22 8q11 2 21 2q26 -2 32.5 -17t1.5 -47q-1 -5 -1.5 -8t-0.5 -7q14 15 30.5 30t34 27t35 19t34.5 7q23 0 37 -11.5
t21.5 -30t10 -41t1.5 -45.5q-1 -24 -8.5 -52t-20 -56t-29 -55.5t-35.5 -50.5q4 -1 5 -1.5t1 -1t1 -1t6 -0.5q34 0 69.5 24.5t66.5 56t53.5 61.5t30.5 40q16 20 26 13.5t-2 -32.5q-6 -13 -30.5 -49t-60 -74t-77 -68t-81.5 -30q-13 0 -21 1t-13 3.5l-10 5t-12 5.5
q-37 -28 -72 -28q-34 -1 -49.5 19.5t-20.5 42.5q-1 -4 -1.5 -7t-1.5 -7q-11 -47 -24 -109q-12 -57 -26.5 -130.5t-31.5 -170.5q-5 -26 -20.5 -30t-34.5 4zM108 188q-8 -29 -22 -90q16 11 37 11q11 0 27.5 -11t39.5 -24q15 18 31 40t29.5 45.5t22.5 47.5t10 47q2 29 -7 45.5
t-29 16.5q-30 0 -65.5 -35.5t-73.5 -92.5z" />
    <glyph glyph-name="q" unicode="q" horiz-adv-x="463" 
d="M238 52q-20 -30 -50 -56t-67 -26q-46 0 -71.5 18.5t-37.5 44t-14.5 52.5t-2.5 43q0 45 18 91.5t47 84.5t66.5 62t76.5 24q25 0 41.5 -10t27 -25t16 -31.5t7.5 -29.5l12 72q6 5 13.5 8.5t15.5 4.5q8 2 17 3q9 0 16 -1t13 -3.5t9 -7.5q-14 -46 -23.5 -79.5t-15.5 -55.5
q-7 -26 -11 -44q-4 -13 -11.5 -42t-17 -66t-20.5 -79t-21 -83q45 44 97.5 97.5t96.5 108.5q13 16 22 19.5t13 -1t2.5 -14.5t-10.5 -22q-31 -42 -72.5 -92.5t-79.5 -90.5q-20 -20 -43.5 -42t-45.5 -51q-4 -18 -6.5 -33l-4.5 -27q-4 -34 -6 -58t-2 -42t1 -33t1 -32
q1 -35 -2 -48.5t-23 -13.5q-10 0 -25.5 8.5t-30 24.5t-25 38.5t-10.5 50.5q0 38 15 73.5t39 69.5q7 25 15 55t17 62l18 64t16 60zM79 102q0 -29 7.5 -44.5t18 -23t21 -8.5t17.5 -1q20 0 39.5 17t36 42.5t28.5 55.5t18 55q3 15 5 26.5t4 19.5v0q-18 -2 -25 8t-8 34
q0 11 -2 22t-6.5 20t-12.5 15t-20 6q-25 0 -47 -23.5t-38.5 -59.5t-26 -79t-9.5 -82z" />
    <glyph glyph-name="r" unicode="r" horiz-adv-x="406" 
d="M-37 5q-7 -11 -15.5 -14t-14.5 -1t-8 10t4 20q3 6 13 26.5t24.5 49.5l31 62t31.5 63.5t27.5 55t18.5 34.5q-11 9 -14.5 13.5t-5.5 19.5q-1 13 6.5 33t20 39t28 33t30.5 14q27 0 38 -17.5t13 -36.5q2 -12 -1.5 -32t-14.5 -35q3 -2 7.5 -4.5t15.5 -2.5q17 0 22.5 2t19.5 2
q17 0 28 -8t17.5 -20.5t10 -26.5t4.5 -26q3 -24 -12.5 -50.5t-38.5 -58.5q-14 -20 -27.5 -43.5t-11.5 -43.5q2 -13 6.5 -21t27.5 -8q25 0 57.5 26t62.5 59.5t53.5 66t31.5 44.5q5 8 13 10.5t14 -0.5t7 -11.5t-7 -23.5q-6 -10 -20 -31.5t-34.5 -47.5t-45 -54t-51 -51
t-53 -37.5t-51.5 -14.5t-42 9.5t-27.5 24t-14.5 31t-3 31.5q2 23 19 53t31 56q17 28 27 48t10 34q0 9 -4 15.5t-13 6.5q-6 0 -8.5 -0.5t-5 -0.5t-6.5 -0.5t-13 -0.5q-13 0 -21.5 4t-16.5 6q-4 -7 -18 -29.5t-32 -52.5t-38 -63t-37 -62t-29.5 -49t-15.5 -24z" />
    <glyph glyph-name="s" unicode="s" horiz-adv-x="352" 
d="M138 33q6 -4 15 -4t18 4t17.5 11t12.5 18q5 11 0.5 30.5t-12.5 42.5t-18 47t-17 43l-9 27t-7.5 21.5t-5.5 13.5q-4 -7 -16.5 -24.5t-27 -36.5t-27 -35.5t-17.5 -22.5q-7 -9 -15 -10t-13 3t-5 12.5t8 19.5q5 8 17 25t24 35t21.5 32.5t10.5 17.5q1 4 -1 9t-4.5 11.5t-4 14
t1.5 15.5q4 14 18 32t32 32.5t37.5 21.5t35.5 -1q13 -7 20.5 -16.5t5.5 -19.5q-1 -4 -5 -12t-12 -19t-23 -29q3 -22 8.5 -41t10.5 -33q6 -16 13 -30q8 -17 18 -36t18 -37t12.5 -33.5t2.5 -26.5q-3 -16 -16.5 -39.5t-35 -45.5t-48.5 -37.5t-56 -15.5q-21 0 -40 13t-32 29.5
t-19 33.5t-2 25q6 12 11 19t15 16q4 3 10 6t14 6.5t20 6.5q9 -30 16.5 -47.5t13.5 -26.5q6 -11 11 -15z" />
    <glyph glyph-name="t" unicode="t" horiz-adv-x="302" 
d="M360 247q5 6 10.5 7.5t10 -1.5t5 -10t-5.5 -18q-19 -37 -51 -80t-67 -80.5t-68.5 -62t-55.5 -24.5q-32 0 -53.5 12.5t-34 31.5t-17 40.5t-3.5 40.5q1 16 7 56t16 93.5t22.5 114t25.5 117.5q-17 -2 -33.5 -3.5t-30.5 -1.5q-32 0 -59 7t-41 14q-8 4 -7.5 11.5t5.5 15
t12.5 12.5t13.5 5q18 -2 39.5 -3.5t47.5 -0.5q18 1 35 3t34 5q13 47 25 81.5t22 48.5q3 5 13.5 8.5t22 5t22.5 0t15 -7.5q5 -8 4 -40t-11 -82q42 0 73 -4.5t53.5 -10t36.5 -11t21 -7.5t7.5 -10t-3 -16t-11 -13.5t-17.5 -4.5q-19 3 -51.5 9t-95.5 6q-6 0 -13 -0.5t-15 -0.5
q-4 -15 -7.5 -30.5t-9.5 -31.5q-13 -39 -29 -85q-16 -42 -35.5 -93t-45.5 -110q-6 -42 1.5 -63.5t18.5 -31.5q13 -11 31 -12q15 -2 35.5 10.5t43 32.5t45.5 45t42.5 48t34 42t20.5 27z" />
    <glyph glyph-name="u" unicode="u" horiz-adv-x="469" 
d="M121 -16q-37 0 -60.5 11.5t-37 29t-18.5 37.5t-5 37q0 30 5 62t11.5 60t12.5 48t7 24q9 29 23 49.5t40 28.5q10 3 20 4t19 1t16 -3q-26 -67 -41 -112t-23 -73q-9 -33 -11 -52q-5 -44 8 -66.5t52 -22.5q25 0 48.5 19t42.5 49q-1 8 -1.5 16t-0.5 16q0 31 5 61t12.5 56.5
t15.5 46.5t14 32q11 23 19.5 28.5t28.5 6.5q8 1 13.5 0.5t9.5 -1.5q11 -3 11 -12q0 -15 -2 -46.5t-11 -64.5q-14 -54 -25.5 -78t-22.5 -37q2 -29 5 -46.5t7.5 -27.5t10.5 -13t14 -3q14 0 32.5 13t38.5 33.5t40 44t36.5 45t28 37.5t14.5 20q7 9 13.5 11t10.5 -1.5t4.5 -10.5
t-4.5 -16q-20 -37 -49 -78.5t-61 -77t-65.5 -59t-62.5 -23.5q-27 0 -42 18t-26 53q-22 -35 -52.5 -54.5t-67.5 -19.5z" />
    <glyph glyph-name="v" unicode="v" horiz-adv-x="428" 
d="M286 174q-25 -37 -52 -72.5t-51.5 -63t-45.5 -44.5t-34 -17q-30 0 -49.5 29t-30 71.5t-12.5 90.5t1 86q4 38 8.5 61t12 35.5t18 18.5t25.5 10q8 2 16.5 3t15.5 -0.5t11 -6.5t1 -15q-2 -9 -6.5 -26t-9 -38t-9 -44.5t-6.5 -45.5q-3 -37 0 -65t8.5 -47t12.5 -28.5t11 -9.5
q5 0 18 13t30 34.5t36 50t36 58.5q-6 16 -5 37q3 33 15 60t27 46t31.5 29t28.5 10q25 0 31.5 -13t4.5 -27q-2 -21 -18 -56.5t-42 -77.5q5 -2 11 -4t14 -2q33 0 60 8t47 19t34 22.5t23 19.5q13 11 21.5 3.5t-2.5 -21.5q-35 -43 -85 -69.5t-118 -26.5q-5 0 -14 1t-19 4z" />
    <glyph glyph-name="w" unicode="w" horiz-adv-x="646" 
d="M509 169q-14 -35 -31.5 -68.5t-38.5 -59.5t-46 -42t-53 -16q-47 0 -70 31t-32 76q-13 -21 -29 -41t-33.5 -36t-36 -25.5t-36.5 -9.5q-26 0 -43.5 11t-28.5 29.5t-16 43.5t-5 53v12q0 36 6 74t13.5 70.5t15 56t11.5 31.5q6 10 29.5 19.5t45.5 7.5q11 -1 11.5 -9t-2.5 -20
q-4 -16 -14 -49.5t-20 -72.5t-18 -77t-8 -63q0 -32 10 -45.5t30 -13.5q24 0 53.5 27t58.5 93q-1 6 -1 12v13q0 44 3.5 84t13.5 70t28.5 47.5t47.5 17.5q12 0 20 -6.5t8 -19.5q0 -32 -22 -88.5t-53 -125.5q-3 -4 -4 -8q3 -18 7.5 -38.5t12.5 -37.5t18.5 -28.5t25.5 -11.5
q22 0 40 20.5t32.5 49.5t24.5 62.5t16 58.5q-3 10 -5 20.5t-2 23.5q0 31 9 52.5t23 35.5t30 21t30 7q25 0 25 -22q0 -15 -8 -54t-23 -87q18 -8 45 -8q26 0 47 6t39 16t33 21.5t28 22.5q11 8 17.5 1t-2.5 -21q-8 -13 -27 -29.5t-45.5 -31.5t-59.5 -25.5t-69 -10.5
q-14 0 -26 4z" />
    <glyph glyph-name="x" unicode="x" horiz-adv-x="399" 
d="M427 129q-42 -52 -73.5 -82t-56 -45t-42.5 -18.5t-33 -3.5q-19 0 -32 9t-21.5 21.5t-13.5 26.5t-8 24t-7.5 23.5t-9.5 30.5q-20 -21 -41 -44q-20 -21 -43 -45t-47 -49q-8 -1 -15 0.5t-12 3.5t-10 6q-4 3 -6 7q-3 3 -4.5 7.5t-1.5 9.5q29 33 56.5 64.5t49.5 56.5
q26 29 49 56q-14 38 -24.5 70t-15.5 46q-9 28 -16.5 46.5t-25.5 26.5q12 11 23.5 17t19.5 9q10 4 19 4q22 0 39.5 -39.5t34.5 -108.5q0 -3 2 -7q21 24 40 45.5t33 38t23.5 27t10.5 11.5q19 23 34.5 25.5t28.5 -6.5q6 -4 13 -8q6 -3 13.5 -7t16.5 -8q-17 -15 -36.5 -35.5
t-37.5 -38.5q-20 -21 -41 -43q-15 -15 -34.5 -36.5t-42.5 -46.5q14 -49 30.5 -84.5t35.5 -35.5q16 0 35.5 8.5t40.5 23t43.5 34t43.5 40.5q8 8 15 9t10.5 -3t1.5 -12.5t-11 -20.5z" />
    <glyph glyph-name="y" unicode="y" horiz-adv-x="406" 
d="M257 359q12 10 24.5 15t21.5 8q12 2 22 2q26 -2 32.5 -17t1.5 -47q-2 -16 -10.5 -42t-20.5 -62t-25.5 -83t-25.5 -106q-11 -47 -25 -111q-13 -57 -28.5 -132.5t-34.5 -175.5q-4 -24 -20.5 -28t-33.5 4q-7 3 -13 9q-5 5 -10.5 11.5t-9.5 16.5q22 82 39.5 149.5t30.5 116.5
q15 58 27 104q5 21 9.5 41t9.5 39q-12 -20 -27 -38.5t-32.5 -32t-37.5 -21t-42 -4.5q-53 6 -75 38.5t-19 84.5q1 20 6 44.5t11 47t11.5 41t7.5 25.5q12 37 17.5 63.5t-8.5 43.5q13 9 25.5 13t22.5 5q12 1 22 0q26 -4 30.5 -19.5t-3.5 -47.5q-4 -16 -13 -42t-18.5 -53
t-17 -50t-9.5 -33q-8 -45 -0.5 -68.5t34.5 -23.5q20 0 44 24.5t47 59t41.5 73t26.5 65.5v0q7 35 8.5 56t-13.5 37z" />
    <glyph glyph-name="z" unicode="z" horiz-adv-x="350" 
d="M409 157q-6 -10 -21 -28t-36.5 -40t-48.5 -44.5t-57 -41.5q-4 -23 -15 -64.5t-28 -90t-40.5 -99.5t-52.5 -92t-63 -67t-72 -26t-59.5 13t-32 33t-12.5 44t-1 46q1 29 18 67.5t46.5 78t71.5 75.5t94 60q26 11 47 21.5t40 19.5q7 32 1 43t-18 11q-18 0 -42 -15.5t-59 -48.5
q-9 -1 -16.5 2.5t-12.5 7.5q-6 5 -10 12q-10 17 -9 33.5t15 26.5t40.5 34.5t52.5 60.5q8 11 19 27.5t22 35.5t21.5 39t16.5 39q-20 3 -57 -1q-19 -3 -42 -8q-20 -5 -44 -13.5t-52 -21.5q-4 2 -6 8.5t-3 13.5q-1 9 -1 19q0 28 15.5 38.5t28.5 14.5q7 2 26.5 5.5t45 6t53.5 4
t50 0.5q45 -2 57.5 -11.5t6.5 -29.5q-7 -20 -26.5 -66t-59.5 -106q-31 -46 -56 -77q16 8 32.5 12.5t33.5 4.5q23 0 30 -21.5t8 -46.5q39 24 70 51.5t66 70.5q9 11 16.5 12.5t11 -2.5t3.5 -12.5t-6 -17.5zM165 -56q2 8 4.5 14.5t4.5 13.5q-51 -28 -93 -60.5t-73 -67.5
t-48.5 -73t-19.5 -77q-1 -23 7.5 -39.5t30.5 -16.5q23 0 50 33.5t53 81.5t48.5 100.5t35.5 90.5z" />
    <glyph glyph-name="braceleft" unicode="{" horiz-adv-x="243" 
d="M108 -118q-17 0 -40 10.5t-43.5 29.5t-33.5 46t-11 59q3 42 17.5 74t31 59.5t31 54t17.5 58.5q1 20 -4 36q-4 15 -14.5 26.5t-31.5 14.5v11t1 10t2 9q3 11 7 19.5t6 10.5q29 -5 46.5 10.5t26.5 36.5q11 25 15 58q3 33 0.5 53t-4.5 37t-1.5 37.5t8.5 54.5q9 38 33 65
t53.5 43.5t60 22.5t52.5 2l-35 -98q-17 1 -34.5 -4.5t-31.5 -16.5t-24 -26.5t-13 -35.5q-3 -18 -2 -32.5t2.5 -29t3 -30.5t-0.5 -36q-4 -57 -29 -96.5t-70 -55.5q17 -14 29 -40t10 -52q-3 -43 -16 -73t-27 -53t-25.5 -41.5t-13.5 -38.5q-1 -13 1.5 -26.5t10.5 -26t24 -24
t41 -18.5z" />
    <glyph glyph-name="bar" unicode="|" horiz-adv-x="254" 
d="M214 731q23 5 32 3.5t8 -5.5l-10 -35t-20 -68.5t-25.5 -90.5t-27 -101.5t-24.5 -101.5t-18 -91q-9 -46 -16 -90q-8 -41 -14 -80t-9 -68q-13 -7 -24.5 -11t-20.5 -6q-10 -2 -19 -2q-19 0 -23.5 4.5t-1.5 18.5q3 11 15 61q11 44 32 131.5t58 246.5l56 240q5 19 15 28.5
t37 16.5z" />
    <glyph glyph-name="braceright" unicode="}" horiz-adv-x="243" 
d="M125 830q17 0 40.5 -10.5t43.5 -29.5t33.5 -46t10.5 -59q-3 -42 -17.5 -74t-31 -59.5t-31 -54t-17.5 -58.5q-1 -20 4 -36q4 -15 14.5 -26.5t31.5 -14.5v-11t-1 -10t-2 -9q-3 -11 -7 -19.5t-6 -10.5q-29 5 -46.5 -10.5t-26.5 -36.5q-11 -25 -15 -58q-3 -33 -0.5 -53
t4.5 -37t1.5 -37.5t-8.5 -54.5q-9 -38 -33 -65t-53.5 -43.5t-60 -22.5t-52.5 -2l35 98q17 -1 34.5 4.5t31.5 16.5t24 26.5t13 35.5q3 18 2 32.5t-2.5 29t-2.5 30.5t0 36q4 57 29 97t70 55q-17 14 -29 40t-10 52q3 43 16 73.5t27 53.5t26 41.5t13 37.5q1 13 -1.5 26.5
t-10.5 26.5t-23.5 24t-41.5 18z" />
    <glyph glyph-name="asciitilde" unicode="~" horiz-adv-x="329" 
d="M349 377q0 -15 -9.5 -29t-26 -24.5t-38.5 -15.5t-48 -1q-28 4 -49 11t-39 12.5t-35 7t-36 -5.5q-11 -4 -22 -9q-10 -5 -20.5 -10.5t-18.5 -12.5q-7 2 -12 5t-8 6q-4 4 -7 8q-4 8 -7 15q-2 7 -2.5 13.5t2.5 12.5q15 19 36.5 28t41.5 13q23 5 48 4q32 -1 52 -7.5
t36.5 -12.5t33.5 -10t44 0q9 2 19 7t20.5 12.5t22.5 21.5q10 -6 16 -16.5t6 -22.5z" />
    <glyph glyph-name="uni00A0" unicode="&#xa0;" horiz-adv-x="280" 
 />
    <glyph glyph-name="exclamdown" unicode="&#xa1;" horiz-adv-x="249" 
d="M39 -21q-10 -2 -20 -2t-20 2t-19 8l150 550q3 11 17.5 21.5t30.5 17t28 6.5t10 -10q-3 -15 -17 -76q-7 -32 -15.5 -68.5t-20.5 -90.5t-28.5 -126t-37.5 -166q-2 -7 -3 -14q-1 -6 -0.5 -11t2.5 -8q-8 -9 -18 -15.5t-18 -10.5q-11 -4 -21 -7zM189 638q-24 -4 -39.5 5
t-13.5 30q1 13 10.5 24t22.5 19.5t27.5 13.5t25.5 5q20 0 34.5 -8.5t12.5 -28.5q-2 -26 -26.5 -40.5t-53.5 -19.5z" />
    <glyph glyph-name="cent" unicode="&#xa2;" horiz-adv-x="322" 
d="M266 630q13 -3 26.5 -11t23 -23.5t14.5 -39.5t1 -60q-5 -40 -24 -68t-57 -28q-20 0 -30 20t-7 48q3 25 23 47.5t45 28.5q-2 17 -9.5 32t-25.5 15q-26 0 -58 -30t-60.5 -78t-47.5 -108t-19 -120q0 -18 3.5 -38.5t12 -38t22 -29t32.5 -11.5q29 0 56.5 18t50.5 49
q9 12 16 14t10.5 -1.5t3 -11.5t-6.5 -17q-20 -31 -48.5 -59.5t-69.5 -38.5l-32 -90q-5 -4 -11 -6t-12 -3t-12 -1t-10 1q-4 2 -6.5 4t-1.5 7q7 21 11.5 37.5l7.5 27.5q3 14 5 24q-45 17 -70 77.5t-14 154.5q5 44 23.5 92.5t47 91.5t65 75.5t78.5 43.5q2 6 4.5 17t5.5 23.5
t6.5 24.5t5.5 19q2 4 10 8t20 2q25 -3 21 -16q-3 -11 -8.5 -34.5t-10.5 -40.5z" />
    <glyph glyph-name="sterling" unicode="&#xa3;" horiz-adv-x="318" 
d="M272 680q23 -1 39 -12t26 -27t14 -35.5t2 -38.5q-5 -45 -33.5 -75.5t-66.5 -30.5q-15 0 -24 7t-13.5 16.5t-6 19.5t-1.5 16q5 -4 18.5 -4t28.5 7.5t27.5 24t15.5 45.5q2 23 -10.5 33t-26.5 10q-11 0 -26 -4.5t-30 -16.5t-28 -32.5t-21 -52.5q-9 -36 -16 -77t-20 -96h36
q16 0 35 1t39 4q-1 -6 -2.5 -12t-3.5 -10q-2 -6 -5 -11q-8 -13 -17.5 -21.5t-33.5 -8.5q-9 0 -25.5 0.5t-36.5 2.5q-6 -24 -14.5 -50.5t-20 -52.5t-25 -50t-30.5 -42q19 8 50.5 16t76.5 11q70 5 95 -3t18 -28l-6 -16q-3 -7 -7 -14.5t-9 -14.5q-3 6 -11.5 9.5t-16.5 5.5
q-10 2 -22 2q-15 0 -38.5 -1.5t-51.5 -4.5t-59 -6.5t-62 -8.5q-4 1 -7 5t-6 9t-5 11t-3 12q-2 6 -2 11t2 9q7 3 14 11t12 17q7 10 13 22q13 25 25.5 63.5t25.5 84.5q-15 2 -25.5 4.5t-15.5 6.5q-14 11 -8.5 24.5t9.5 20.5q9 -1 19 -1.5t17 -1.5q10 0 18 -1q11 41 20 82
t17 78q7 33 21.5 63t36.5 52.5t52 34.5t69 9z" />
    <glyph glyph-name="currency" unicode="&#xa4;" horiz-adv-x="345" 
d="M319 524q8 3 13.5 2.5t9.5 -2.5q4 -3 7 -7t4 -9q2 -5 2.5 -10t-1.5 -11l-75 -66q3 -14 2 -26q-2 -28 -10.5 -51t-21.5 -41l48 -71q2 -3 2.5 -16t-16.5 -24q-4 -3 -9 -3q-5 -1 -10 0.5t-11 7.5l-45 65q-30 -19 -61 -19q-32 0 -52 15l-62 -55q-12 -11 -23.5 -6.5
t-15.5 12.5q-6 13 -3.5 22.5t9.5 14.5q14 12 33 28.5t35 30.5q-1 6 -1.5 12t0.5 13q2 17 10 41.5t24 48.5l-45 66q-6 9 -3.5 20.5t9.5 19.5t17.5 8.5t20.5 -11.5l40 -59q14 11 30 17t35 6q15 0 27 -5.5t22 -14.5zM233 389q2 15 -5.5 31.5t-27.5 16.5q-15 0 -29.5 -9
t-26 -23.5t-18.5 -33t-9 -36.5q-2 -17 7 -30t24 -13q30 0 55.5 26t29.5 71z" />
    <glyph glyph-name="yen" unicode="&#xa5;" horiz-adv-x="326" 
d="M352 649q10 3 20 5.5t16 1.5t7.5 -6t-4.5 -17t-19.5 -35.5t-30.5 -51t-35 -55t-33 -47.5q-17 -21 -37.5 -44t-37.5 -41q-2 -8 -5.5 -18t-7.5 -24h56q14 -1 18 -6t0 -23q-5 -19 -10 -22t-13 -3q-7 0 -24 1.5t-41 3.5q-2 -8 -4.5 -17.5t-5.5 -19.5q29 1 45.5 -1t21.5 -4
q6 -3 7.5 -10t-5.5 -23q-2 -5 -5 -9t-6.5 -7t-7.5 -4q-7 2 -17.5 3.5t-20.5 2.5l-24 2q-6 -24 -10 -44q-4 -18 -7 -33t-3 -19q-7 -9 -15 -13.5t-15 -6.5q-7 -3 -15 -3t-14 2q-5 1 -9.5 3.5t-4.5 7.5q6 19 11 38t9 34q5 17 9 33q-29 -2 -44.5 -3.5t-26.5 -2.5q-6 -1 -8 5.5
t-0.5 14.5t5.5 15t8 8q7 2 28.5 5.5t50.5 5.5q1 5 2 9.5t2 9.5q2 5 2.5 10.5t2.5 10.5q-25 -2 -46.5 -4.5t-29.5 -3.5q-6 -1 -6.5 6t2.5 15.5t9 16t14 8.5q12 2 30 4.5t38 4.5q3 15 6 28t6 23q-10 22 -24 57t-20 78l-10 50q-4 22 -7 44.5t-4 40.5q8 5 15 8.5t13 5.5t11 4
q5 1 10 3q4 1 9.5 2t10.5 2q-2 -19 -0.5 -42.5t3.5 -44.5q2 -24 6 -49q6 -38 14 -68t14 -50q15 16 37 40.5t42 53.5q11 17 22 37q11 18 21.5 39.5t20.5 47.5q4 6 10.5 10.5t12.5 7.5q7 4 15 6z" />
    <glyph glyph-name="brokenbar" unicode="&#xa6;" horiz-adv-x="254" 
d="M214 731q23 5 32 3.5t8 -5.5q-2 -8 -10.5 -37t-20 -71t-25 -93.5t-27.5 -104.5q-2 -4 -7 -7q-4 -3 -12.5 -5.5t-22.5 -2.5q-12 0 -18.5 2.5t-8.5 6.5q-3 4 -2 9q1 4 2 7q2 9 3 13l57 240q5 19 15 28.5t37 16.5zM111 323q14 -1 20.5 -4t8.5 -7q3 -4 2 -9
q-4 -17 -7.5 -32.5t-5.5 -29.5q-9 -46 -16 -90q-8 -41 -14 -80t-9 -68q-13 -7 -24.5 -11t-20.5 -6q-10 -2 -19 -2q-20 0 -23.5 4.5t-1.5 18.5q1 4 8 33.5t17 72.5t22.5 94t23.5 97q2 6 7 10q4 4 11.5 7t20.5 2z" />
    <glyph glyph-name="section" unicode="&#xa7;" horiz-adv-x="298" 
d="M93 -23q-22 0 -44 5.5t-39.5 17t-28.5 28.5t-11 40t7.5 38.5t19 24t24.5 11.5t25 2q9 -1 16 -3q6 -2 11.5 -4.5t6.5 -6.5q-22 -8 -34.5 -30t-12.5 -45q0 -16 10.5 -33t33.5 -17q17 0 32.5 9t27 23.5t18.5 32.5t7 36q0 35 -18.5 55.5t-42.5 40.5q-16 13 -32.5 26t-30 27.5
t-22.5 32.5t-9 41q0 32 13.5 56t36 40.5t50.5 26.5t57 13q-5 5 -10.5 9.5t-10.5 9.5q-13 12 -26.5 24.5t-23.5 26t-16.5 29.5t-6.5 36q0 21 13 45t37 45t57.5 35t74.5 14q21 0 38.5 -8t30 -20t20 -27.5t7.5 -30.5q0 -46 -19 -67t-42 -21q-11 0 -21 1q-8 1 -16 3t-11 5
q17 15 25.5 30.5t13.5 29.5q4 15 5 30q0 22 -9 37t-26 15q-21 0 -40.5 -13.5t-34.5 -32t-24 -39t-9 -35.5q0 -20 9 -38t21 -32.5t25 -26t20 -17.5q8 -6 19 -17.5t21 -27t17.5 -35.5t7.5 -44q0 -31 -14.5 -53.5t-36 -38.5t-45 -25.5t-41.5 -14.5l3 -3q12 -11 27 -22.5t28 -26
t22 -31.5t9 -38q0 -26 -12 -49.5t-31.5 -41t-44.5 -27.5t-51 -10zM110 257q15 3 33.5 10t34.5 19t26.5 30.5t10.5 45.5q0 24 -6 41.5t-16 30.5q-33 -3 -55.5 -15t-36 -27.5t-19.5 -33t-6 -31.5q0 -20 10 -37t24 -33z" />
    <glyph glyph-name="dieresis" unicode="&#xa8;" 
d="M402 578q-20 0 -28.5 8t-8.5 21q0 19 21 33.5t47 14.5q24 0 33.5 -8t9.5 -22q0 -11 -7 -19.5t-18 -14.5t-24 -9.5t-25 -3.5zM321 631q0 -19 -22 -37t-58 -18q-18 0 -24 8.5t-6 17.5q0 18 17.5 36.5t51.5 18.5q16 0 28.5 -5t12.5 -21z" />
    <glyph glyph-name="copyright" unicode="&#xa9;" horiz-adv-x="456" 
d="M287 729q50 0 88 -18t64.5 -50t39.5 -75t12 -94t-23.5 -99.5t-58.5 -86t-83 -60.5t-97 -23t-89 17t-66 47t-41 70.5t-13 86.5q1 50 22.5 100.5t57.5 91.5t84 67t103 26zM437 518q1 32 -10 63t-29.5 55t-44 39t-54.5 15q-36 0 -74 -17.5t-70 -51t-53 -82t-23 -110.5
q-1 -35 9 -65.5t30 -53t50 -35t69 -12.5q36 0 71 20t63.5 54.5t46.5 81t19 99.5zM309 635q15 0 26 -9t18.5 -23t11 -30.5t3.5 -32.5q0 -6 -5.5 -11.5t-12.5 -9.5t-14.5 -6.5t-12.5 -2.5t-12 4.5t-11.5 11t-3.5 14t13 13.5q4 2 7.5 7.5t4.5 13.5q0 8 -6 11.5t-14 3.5
q-14 0 -32 -16t-34 -40t-27.5 -52.5t-11.5 -52.5q-1 -21 4 -34t12.5 -20t16.5 -9.5t15 -2.5q22 0 47.5 19.5t38.5 42.5q7 12 13 9t2 -15q-3 -9 -13.5 -25.5t-26.5 -33t-35.5 -29t-39.5 -12.5q-41 0 -64 34t-22 88q1 32 15 66t37 63t52.5 47.5t60.5 18.5z" />
    <glyph glyph-name="ordfeminine" unicode="&#xaa;" horiz-adv-x="373" 
d="M256 -9q-26 1 -67.5 0.5t-82.5 -1.5q-27 -1 -54 -4q-26 -2 -53.5 -6t-53.5 -11q-1 7 0 15t3 14q2 8 4 15q4 9 11 20t13 14q4 2 19 4t36 3.5t46 2.5t50 1q50 1 83.5 -0.5t64.5 -4.5q14 -2 16 -8.5t-4 -24.5q-6 -17 -12.5 -23.5t-18.5 -5.5zM47 104q-12 0 -26 8.5t-23.5 26
t-12.5 45.5t6 67q12 53 39 96.5t58 74t61.5 46t50.5 13.5q24 -3 38 -13q13 -10 16 -26t-15 -45q13 3 21 4t12 1t6 -1t1.5 -7t-3 -20.5t-7.5 -39.5l-13 -65q-4 -17 -6.5 -27t-6.5 -36q-1 -8 -1.5 -17.5t2 -18t8 -14t15.5 -5.5q13 0 30.5 12t35 28.5t32 33t22.5 25.5
q8 10 15 11.5t10 -4t0 -16.5t-15 -26q-25 -32 -48.5 -55.5t-49.5 -39.5q-18 -12 -43 -14t-41 9q-7 6 -12 17q-5 10 -8.5 25.5t-2.5 38.5q-21 -35 -46 -53.5t-47 -26.5q-26 -11 -52 -12zM96 338q-13 -22 -20.5 -47.5t-10.5 -48t-1.5 -39.5t7.5 -23q14 -14 33.5 -7t37.5 22
t31.5 32t14.5 24q5 17 11 41t10.5 45t6.5 36t-2 14t-9 -3q-5 -1 -11 -2.5t-14 -2.5q6 14 7.5 22.5t0.5 14.5t-4 9q-9 8 -32.5 -12.5t-55.5 -74.5z" />
    <glyph glyph-name="guillemotleft" unicode="&#xab;" horiz-adv-x="347" 
d="M191 380q-3 -5 -17 -23.5t-35 -45.5t-46 -59t-50 -65q3 -6 13 -29q8 -21 25 -59t47 -106q-3 -3 -8 -4l-10 -2t-11 -1q-13 0 -17 2.5t-6 8.5q0 1 -9 15t-22 35t-28 45t-27.5 44.5t-21 35t-8.5 15.5q2 4 19 23q16 17 47 51.5t89 97.5q11 12 20 18t31 10q19 3 23 -1t2 -6z
M311 387q18 3 22.5 -1t2.5 -6q-3 -5 -17.5 -23.5t-35.5 -45.5t-46 -59t-49 -65q3 -6 12 -29q8 -21 24 -59t44 -106q-3 -3 -8 -4l-10 -2t-11 -1q-13 0 -17 2.5t-6 8.5q0 1 -8.5 15t-21 35t-26.5 45t-26.5 44.5t-20.5 35t-8 15.5q2 4 19 23q15 17 46 51.5t89 97.5
q11 12 20.5 18t31.5 10z" />
    <glyph glyph-name="logicalnot" unicode="&#xac;" horiz-adv-x="513" 
d="M469 391q26 -2 24 -27.5t-13 -66.5q-10 -39 -17 -62.5t-13.5 -37t-14.5 -19t-20 -9.5l-16 -4q-7 -1 -15 -1.5t-16 1.5q10 22 20 48q9 24 18 53t17 64q-21 0 -47 1.5t-53.5 2t-54 0.5t-49.5 -2q-37 -1 -75 -3q-36 -2 -74 -6t-75 -11q-1 7 0.5 14.5t3.5 13.5q3 8 6 15
q5 9 15 20t18 14q6 2 26.5 4t50 3.5t64 2.5t68.5 1q69 0 124 -3t98 -6z" />
    <glyph glyph-name="sfthyphen" unicode="&#xad;" horiz-adv-x="354" 
d="M303 282q-27 1 -69 0.5t-84 -1.5q-27 -1 -55 -3q-27 -3 -55 -7t-55 -11q-1 7 0 15t3 14q2 8 4 15q4 9 11.5 20t13.5 14q5 2 20 4t36 3.5t47 2.5t51 1q51 1 85 -0.5t66 -4.5q14 -2 16.5 -9t-3.5 -24t-13 -23.5t-19 -5.5z" />
    <glyph glyph-name="registered" unicode="&#xae;" horiz-adv-x="456" 
d="M287 729q50 0 88 -18t64.5 -50t39.5 -75t12 -94t-23.5 -99.5t-58.5 -86t-83 -60.5t-97 -23t-89 17t-66 47t-41 70.5t-13 86.5q1 50 22.5 100.5t57.5 91.5t84 67t103 26zM437 518q1 32 -10 63t-29.5 55t-44 39t-54.5 15q-36 0 -74 -17.5t-70 -51t-53 -82t-23 -110.5
q-1 -35 9 -65.5t30 -53t50 -35t69 -12.5q36 0 71 20t63.5 54.5t46.5 81t19 99.5zM295 639q20 0 34.5 -7.5t22.5 -18.5q8 -12 10.5 -24.5t2.5 -23.5v-8q-2 -20 -13.5 -41.5t-31.5 -39.5q-8 -7 -17 -13t-20 -11q6 -9 12 -21q10 -20 14.5 -33t7.5 -24q5 -13 14 -14q4 0 8 1
q3 1 7 3t7 6q2 -9 0 -16t-5 -12q-3 -6 -8 -11q-5 -6 -12.5 -9t-13.5 -3v0v0q-4 0 -7 0.5t-7 1.5q-6 3 -11 10q-5 6 -8.5 15.5t-7.5 23.5t-8.5 28t-11.5 28q-2 4 -4 7l-4 6l-21 -3l-3 -12l-10 -40t-10 -34q-2 -4 -4.5 -8t-6.5 -8q-9 -6 -22 -6v0q-8 0 -14.5 4t-11.5 9l-7 7
l8 5q2 1 2 1.5t2 1.5q1 1 2 2.5t3 3.5q3 5 7.5 16t9.5 30q2 7 4 16t5 20q-10 8 -10 21v2q1 14 14 21q6 4 10 5q6 23 12 44.5t11 38.5q-12 -11 -14 -14h-1l-5 -6l-6 5q0 1 -4 4.5t-7 10.5q-2 6 -2 12t3 10q3 5 9 9q9 6 36 19t71 13zM317 561v7q0 12 -3 19t-8 11q-10 9 -26 9
q-5 0 -9.5 -1t-9.5 -3q0 -1 1 -1v-2l-1 -2l-11 -44q-5 -17 -9 -35t-6 -29q3 -2 6.5 -3.5t6.5 -3.5q5 -1 7 -4q5 2 8.5 4.5t7.5 4.5q17 11 30 29t16 44z" />
    <glyph glyph-name="macron" unicode="&#xaf;" 
d="M450 648q11 -1 12.5 -8t-3.5 -25q-5 -17 -9.5 -23.5t-14.5 -5.5q-20 2 -41.5 2.5t-53.5 -0.5q-54 -2 -79.5 -5t-28.5 -3t-6.5 5.5t1.5 25.5q2 9 7.5 20t10.5 13q7 5 37.5 7t68.5 2h33t24 -0.5t20.5 -1.5t21.5 -3z" />
    <glyph glyph-name="degree" unicode="&#xb0;" horiz-adv-x="145" 
d="M135 671q35 0 47.5 -17t12.5 -34q0 -10 -4.5 -22.5t-13.5 -23.5t-22.5 -18t-30.5 -7q-20 0 -32.5 5t-19.5 13t-9.5 17.5t-2.5 18.5q0 26 22.5 47t52.5 21zM126 584q13 0 19.5 11t6.5 19t-4.5 15t-17.5 7q-11 0 -19 -9t-8 -20q0 -8 4.5 -15.5t18.5 -7.5z" />
    <glyph glyph-name="plusminus" unicode="&#xb1;" horiz-adv-x="354" 
d="M325 363q-5 -17 -11.5 -24t-18.5 -6q-20 2 -49.5 1.5t-61.5 -1.5v-1q-6 -29 -11 -54q-5 -23 -8.5 -41.5t-4.5 -24.5q-3 -6 -9.5 -9.5t-13.5 -5.5q-7 -3 -16 -4q-8 -1 -15 -1t-13.5 1.5t-11.5 5.5l31 132l-46 -4q-21 -3 -44 -6.5t-44 -8.5q-1 7 -0.5 14.5t1.5 14.5
q2 7 4 15q3 8 10 19t13 14q8 4 43.5 7t78.5 5l26 110q8 8 16.5 12t16.5 5q9 2 18 2q9 -1 15 -2q6 -2 10 -4t2 -6q-6 -18 -11.5 -38.5t-10.5 -37.5q-5 -21 -10 -41q34 -1 60 -2t51 -4q14 -1 17 -8t-3 -24zM253 71q-27 2 -69 1l-84 -2q-27 -1 -55 -3q-27 -3 -55 -7t-55 -11
q-1 7 0 15t3 14q2 8 4 15q4 9 11.5 20t13.5 14q4 2 19.5 4t36.5 4t47 3t51 1q51 0 85 -1.5t66 -4.5q14 -2 16.5 -8.5t-3.5 -24.5q-6 -17 -13 -23.5t-19 -5.5z" />
    <glyph glyph-name="twosuperior" unicode="&#xb2;" horiz-adv-x="269" 
d="M270 733q14 -8 22 -23q8 -14 10 -28t2 -25v-13q-2 -39 -24.5 -79t-52.5 -76t-61.5 -66t-54.5 -49q-18 -15 -28 -32q16 5 36.5 10t44.5 5q26 0 41.5 -3t24.5 -6t13 -6t5 -5l1 -1v-1q0 -1 0.5 -5t0.5 -11v-8.5t-2 -9.5q-3 -13 -8 -21.5t-6 -9.5l-10 -16l-3 19v1l-2.5 2.5
t-5.5 3.5q-8 4 -24.5 7.5t-48.5 3.5q-36 0 -50.5 -5t-16.5 -7q-1 0 -1 -1v0h-1l-1 -1v-2l-1 1q-8 -4 -15 -4q-10 0 -18 7q-9 6 -12 20q-3 11 -5.5 17t-4.5 8l-1 1l-3 4l2 4q9 19 19.5 33.5t23.5 28.5q14 14 29 27.5t35 30.5q18 15 37.5 35.5t36.5 46.5t28.5 56.5t13.5 65.5
v5q0 13 -2.5 20.5t-6.5 12.5q-10 8 -22 8q-6 0 -15 -6q-10 -7 -19 -17q-9 -11 -15.5 -25.5t-7.5 -31.5v-2q0 -6 3 -9q0 -1 1 -2v0l10 -5l-8 -7q-1 -1 -3 -2q-3 -3 -7 -5t-9.5 -4t-12.5 -2h-9t-10 2q-13 3 -20 15q-5 8 -5 20q0 1 0.5 1.5t0.5 1.5q0 12 10 32q5 10 12 19.5
t17 19.5q19 19 48 32.5t67 13.5q12 0 21 -2.5t17 -6.5z" />
    <glyph glyph-name="threesuperior" unicode="&#xb3;" horiz-adv-x="263" 
d="M274 720q29 -24 29 -67v-4q-2 -50 -45 -100q-9 -11 -20.5 -21t-24.5 -19q7 -2 14 -5t14 -8q12 -9 19.5 -24.5t7.5 -38.5v-4q-1 -24 -11 -51.5t-29 -51.5t-45.5 -40t-58.5 -16h-1q-31 0 -51 9t-32 23q-11 14 -15.5 28.5t-4.5 25.5v2q0 13 10 20q8 7 20 10q11 3 21.5 3.5
t18.5 0.5h10l-3 -9q-1 -2 -2 -7.5t-1 -11.5q0 -7 1.5 -14.5t6.5 -12.5q8 -13 31 -13q12 -1 26 9q14 11 24 28t16 37t7 38v2q0 17 -7 27q-7 9 -21 9q-15 1 -29 -5t-18 -8h-1v0l-7 -4l-18 48l7 2q20 8 41.5 22t41.5 33q19 20 31 44t14 54v1q0 14 -9 25q-9 9 -26 9
q-9 0 -20.5 -4.5t-21.5 -12.5q-23 -19 -24 -46v-2q0 -8 2.5 -12t4.5 -6q3 -3 7 -3h3h-3h22l-18 -13l-4 -2q-5 -4 -10 -6q-6 -3 -14 -5.5t-16 -3.5q-8 0 -16 3t-14 9q-15 14 -14 39v3q0 14 8 32.5t25 35.5t43.5 28.5t64.5 11.5q17 0 33.5 -5t30.5 -16z" />
    <glyph glyph-name="acute" unicode="&#xb4;" 
d="M392 680q8 6 19 -1.5t16 -23.5q7 -20 1 -30.5t-18 -18.5q-6 -4 -22 -13t-35 -18.5t-37.5 -16.5t-28.5 -8q-21 -2 -25.5 10t-5.5 23q39 27 65 45.5t42 30.5q18 13 29 21z" />
    <glyph glyph-name="mu" unicode="&#xb5;" horiz-adv-x="453" 
d="M427 176q13 17 22 9t1 -25q-33 -76 -74.5 -123.5t-103.5 -47.5q-25 0 -43 21t-28 53q-21 -32 -49.5 -50t-62.5 -18q-42 0 -70 18q-8 -33 -16 -61.5t-19 -67.5q-10 -34 -24.5 -50.5t-30.5 -22.5t-31.5 -5t-27.5 2q8 8 15.5 23.5t13.5 31.5q7 19 13 40q8 27 20.5 76
t25.5 102t25 101t20 73q3 11 5 17.5t3 8.5q8 26 21 45.5t37 26.5q10 3 19 4q8 1 16.5 0.5t15.5 -3.5q-25 -62 -38.5 -103.5t-20.5 -66.5q-9 -30 -11 -48q-5 -42 7.5 -62.5t48.5 -20.5q23 0 45 17.5t39 45.5q-1 8 -1.5 15t-0.5 14q0 29 5 57.5t12 52.5t14.5 43t12.5 29
q10 22 18 27t27 6q16 0 21 -1q10 -3 10 -11q0 -14 -2 -43.5t-10 -60.5q-14 -50 -24 -72t-20 -34q2 -54 13.5 -73t28.5 -19q27 0 50 18t40 41t28 44t15 27z" />
    <glyph glyph-name="paragraph" unicode="&#xb6;" horiz-adv-x="411" 
d="M193 347q-28 4 -58.5 14t-55 29.5t-38.5 49.5t-10 74q5 52 28 86.5t54 54.5t63.5 28.5t56.5 8.5h43l6 24q5 5 11 8.5t12 5.5q7 3 14 4t12 1q6 0 10 -1.5t5 -6.5q-1 -5 -2.5 -11t-3.5 -11q-1 -7 -3 -13l50 -1l1 5q1 5 2 8q4 10 14.5 15.5t21.5 8.5q13 3 28 3
q-2 -6 -3.5 -12.5t-2.5 -13.5q-2 -7 -3 -14h56q-2 -30 -24 -46.5t-48 -22.5q-13 -56 -28 -124t-28 -125q-11 -53 -24 -113.5t-25.5 -113t-23 -90t-18.5 -44.5q-6 -10 -18 -15t-24 -8q-15 -3 -31 -3q13 15 24 42.5t19 54.5q10 31 18 66q11 46 20.5 93.5t18.5 93t17.5 88
t16.5 78.5q7 30 14 60.5t13 56.5l-51 2q-11 -48 -26.5 -113t-34.5 -143q-10 -43 -23 -98q-11 -51 -26.5 -116t-35.5 -150q-14 -8 -29.5 -12t-28.5 -6q-15 -2 -30 -2q14 23 24 49.5t18 49.5q8 26 14 52q5 19 11 45t13 55t14 59t14 56z" />
    <glyph glyph-name="periodcentered" unicode="&#xb7;" horiz-adv-x="169" 
d="M90 384q25 4 40.5 -4.5t13.5 -30.5q-1 -13 -10.5 -24t-22.5 -19.5t-27.5 -13.5t-25.5 -5q-20 0 -35 8.5t-13 28.5q2 26 27 40.5t53 19.5z" />
    <glyph glyph-name="cedilla" unicode="&#xb8;" 
d="M332 21q54 2 79.5 -16t20.5 -49q-2 -17 -15 -32t-33 -27.5t-46.5 -21t-56.5 -11.5q-13 -2 -19.5 2t-7 10t5.5 11.5t19 8.5q32 8 55.5 21.5t26.5 30.5q2 17 -17.5 26.5t-52.5 6.5q-26 -2 -23 19q1 4 5.5 16.5t10 26t10.5 24.5t6 13q3 5 13 9.5t25 5.5q11 0 20.5 -3t7.5 -7
q-2 -3 -6 -11t-10.5 -20t-17.5 -33z" />
    <glyph glyph-name="onesuperior" unicode="&#xb9;" horiz-adv-x="150" 
d="M173 730q7 -6 13 -13q4 -6 4 -11q0 -2 -1 -3v0l-66 -267v0q-5 -23 -12 -52t-7 -57q0 -9 1 -18t4 -17l1 -6l-5 -2q-1 -1 -12 -4.5t-32 -3.5v0q-15 0 -24 9q-7 10 -7 23q0 12 5 27q6 20 24.5 82.5t39.5 171.5q4 17 6 30t4 23q-7 5 -14.5 11.5t-12.5 14.5l-2 4l2 4q2 2 3 4
q1 1 2 2.5t3 3.5q4 4 7.5 8t8.5 9q10 9 20.5 17.5t19.5 13.5q6 3 12 3q2 0 8 -2q2 -2 3.5 -2.5t3.5 -2.5z" />
    <glyph glyph-name="ordmasculine" unicode="&#xba;" horiz-adv-x="319" 
d="M219 53q12 -1 14 -8t-3 -24t-10.5 -24t-16.5 -6q-22 2 -57 1l-70 -2q-22 -1 -45 -4q-22 -2 -45 -6t-46 -11q0 7 0.5 15t2.5 14q1 8 3 15q3 9 9.5 20t11.5 13q3 2 15.5 4.5t30.5 4t39 3t42 1.5q42 0 70.5 -1.5t54.5 -4.5zM354 382q17 17 23.5 6t-8.5 -30
q-4 -5 -14.5 -16.5t-25 -25.5t-33.5 -29t-42 -27q-8 -33 -23 -62t-36 -51t-47 -35t-56 -13q-36 0 -56 15t-29.5 38t-12 50t-2.5 50q0 34 14.5 78t43.5 79q11 30 41.5 44.5t62.5 14.5q7 0 9 -1q12 -1 29 -9t32.5 -23.5t27 -40t11.5 -57.5v-14.5t-1 -13.5q26 14 48.5 33.5
t43.5 39.5zM96 150q31 0 51.5 26.5t33.5 58.5q-6 -1 -12 -1h-12q-34 0 -57 19.5t-37 49.5q-11 -38 -11 -69q0 -16 2 -31t6.5 -27t13.5 -19t22 -7zM202 323q2 17 0 34t-6.5 31.5t-12 23.5t-17.5 9q-17 0 -31.5 -9t-28.5 -25q-1 -5 -1.5 -9t-0.5 -9q0 -13 1.5 -28t8.5 -27.5
t22 -20.5t42 -8h9t9 1q6 24 6 37z" />
    <glyph glyph-name="guillemotright" unicode="&#xbb;" horiz-adv-x="347" 
d="M75 -6q3 4 17.5 22.5t35.5 45.5t46 59.5t50 65.5q-3 6 -13 29q-9 21 -26 59t-47 106q4 2 9 3.5t9 1.5q6 1 11 1q13 0 17.5 -2t6.5 -8q1 -1 9.5 -15.5t21.5 -35t28 -44.5t27.5 -45t21 -35t8.5 -15q-2 -4 -19 -23q-16 -18 -47 -52.5t-89 -97.5q-11 -11 -20 -17t-32 -11
q-18 -3 -22.5 1.5t-2.5 6.5zM-44 -14q-19 -3 -23 1.5t-2 6.5q3 4 17 22.5t35 45.5t46 59.5t50 65.5q-3 6 -12 29q-8 21 -24 59t-45 106q4 2 9 3.5t10 1.5q5 1 11 1q13 0 17 -2t6 -8q1 -1 9 -15.5t20.5 -35t26.5 -44.5t26.5 -45t20.5 -35t8 -15q-2 -4 -19 -23
q-16 -18 -47 -52.5t-89 -97.5q-11 -11 -20 -17t-31 -11z" />
    <glyph glyph-name="onequarter" unicode="&#xbc;" horiz-adv-x="579" 
d="M530 445q6 -4 7 -8q1 -3 1 -8q0 -7 -3 -16l-7 -28t-11 -46t-12.5 -55.5t-12.5 -57.5q2 -1 4 -1t4 -1q13 -6 18 -13q5 -8 5 -16q0 -7 -3 -15l-4 -10t-3 -9q-3 -6 -5 -11l-6 -13l-7 12v0v1l-2 2t-3.5 4t-4.5 4q-2 1 -2.5 1.5t-2.5 1.5q-8 -45 -12 -83.5t-4 -63.5v-9v-4
l-2 -2q-1 0 -4.5 -3t-9.5 -6q-6 -4 -14.5 -6.5t-18.5 -2.5v0q-16 0 -24 11q-6 9 -6 23v4q1 12 4 24t5 23q5 20 11.5 46.5t14.5 56.5q-27 -2 -55.5 -6t-61.5 -12l-3 -1l-3 2q-1 1 -8.5 8t-14.5 22q-6 12 -6 24q-2 15 12 24q5 4 13.5 13t21.5 23q12 14 27 30.5t32 36.5
q48 55 62 77q5 8 5 10l1 4l3 1l6.5 2.5t16 5.5t20 6.5t19.5 4.5q5 1 12 1t11 -2zM453 297q11 42 18 69q-14 -17 -31 -37t-32 -38q-17 -19 -33.5 -38t-30.5 -36v-1q5 1 16 1q25 2 42.5 4t31.5 4l9.5 38t9.5 34zM126 436q-5 -23 -12 -52t-7 -57q0 -20 4 -35l2 -6l-5 -2
q-1 -1 -12 -4.5t-32 -3.5h-1q-15 0 -23 9q-7 10 -7 23q0 12 5 27q6 20 24.5 82.5t39.5 171.5q3 17 5.5 30t4.5 23q-8 5 -15 11.5t-12 14.5l-3 4l2 4l4 4q1 1 2 2.5t3 3.5q3 4 7 8l9 9q10 9 20.5 17.5t19.5 13.5q6 3 11 3q3 0 5 -0.5t4 -1.5q1 -1 7 -5q8 -6 12 -13
q4 -6 4 -11v-3v0zM515 731q24 5 32.5 3.5t6.5 -5.5q-5 -7 -26 -35t-50.5 -68.5t-65.5 -90.5t-72.5 -101.5t-70.5 -101.5t-59 -91q-29 -46 -57 -90q-16 -26 -27 -43.5t-22 -36t-21.5 -36.5t-18.5 -32q-16 -7 -29 -11t-23 -6q-11 -2 -20 -2q-20 0 -22 5t7 18q8 11 42 61
q18 26 39 56.5t52 75.5t72.5 106t95.5 140l165 240q13 19 27.5 28.5t44.5 16.5z" />
    <glyph glyph-name="onehalf" unicode="&#xbd;" horiz-adv-x="604" 
d="M131 436q-6 -23 -12.5 -52t-6.5 -57q0 -20 4 -35l2 -6l-5 -2q-1 -1 -12 -4.5t-32 -3.5h-1q-15 0 -23 9q-7 10 -7 23q0 12 5 27q6 20 24.5 82.5t39.5 171.5q3 17 5.5 30t4.5 23q-8 5 -15 11.5t-12 14.5l-3 4l2 4l4 4q1 1 2 2.5t3 3.5q3 4 7 8l9 9q10 9 20.5 17.5
t19.5 13.5q6 3 11 3q3 0 5 -0.5t4 -1.5q1 -1 7 -5q8 -6 12 -13q4 -6 4 -11v-3v0zM545 443q16 -10 22 -23q8 -14 10 -28t2 -25v-13q-2 -39 -24.5 -79t-52.5 -76q-29 -36 -61 -66t-55 -49q-18 -15 -28 -32q16 5 36.5 10t45.5 5t40.5 -3t24.5 -6q10 -3 13.5 -6t4.5 -5l1 -1v-1
q0 -1 0.5 -5t0.5 -11v-8.5t-2 -9.5q-3 -13 -8 -21.5t-5 -9.5l-11 -16l-2 19q-1 0 -1 1l-2.5 2.5t-5.5 3.5q-8 4 -24.5 7.5t-48.5 3.5q-36 0 -50.5 -5t-16.5 -7l-1 -1v0h-1l-1 -1v-2l-1 1q-8 -4 -14 -4q-11 0 -19 7q-9 6 -12 20q-3 11 -5.5 17t-4.5 8l-1 1v0l-3 4l2 4
q9 19 19.5 33.5t23.5 28.5q14 14 29 27.5t35 30.5q18 15 37.5 35.5t36.5 46.5t28.5 56.5t13.5 65.5v5q0 13 -2.5 20.5t-6.5 12.5q-8 8 -22 8q-6 0 -15 -6q-10 -7 -19 -17q-9 -11 -15.5 -25.5t-7.5 -31.5v-2q0 -6 3 -9q0 -1 1 -2v0l10 -5l-8 -7q-1 -1 -3 -2q-3 -3 -7 -5
t-9.5 -4t-12.5 -2h-9t-10 2q-13 4 -20 15q-4 7 -4 20v3q0 12 10 32q5 10 12 19.5t17 19.5q19 19 48 32.5t67 12.5q22 0 38 -8zM520 731q24 5 32.5 3.5t6.5 -5.5q-5 -7 -26 -35t-50.5 -68.5t-65.5 -90.5t-72.5 -101.5t-70.5 -101.5t-59 -91q-29 -46 -57 -90
q-16 -26 -27 -43.5t-22 -36t-21.5 -36.5t-18.5 -32q-16 -7 -29 -11t-23 -6q-11 -2 -20 -2q-20 0 -22 5t7 18q8 11 42 61q18 26 39 56.5t52 75.5t72.5 106t95.5 140l165 240q13 19 27.5 28.5t44.5 16.5z" />
    <glyph glyph-name="threequarters" unicode="&#xbe;" horiz-adv-x="670" 
d="M123 270q-31 0 -51 9t-32 23q-11 14 -15.5 28.5t-4.5 25.5v2q0 13 10 20q8 7 20 10q11 3 21.5 3.5t18.5 0.5h10l-3 -9q-1 -2 -2 -7.5t-1 -11.5q0 -7 1.5 -14.5t6.5 -12.5q8 -13 31 -13q12 -1 26 9q14 11 24 28t16 37t7 38v2q0 17 -7 27q-7 9 -21 9q-15 1 -29 -5t-18 -8
h-1l-7 -4l-18 48l7 2q20 8 41.5 22t41.5 33q19 20 31 44t14 54v1q0 14 -9 25q-9 9 -26 9q-9 0 -20.5 -4.5t-21.5 -12.5q-23 -19 -24 -46v-2q0 -8 2.5 -12t4.5 -6q3 -3 7 -3h3h-3h22l-18 -13l-4 -2q-5 -4 -10 -6q-6 -3 -14 -5.5t-16 -3.5q-8 0 -16 3t-14 9q-15 14 -14 39v3
q0 14 8 32.5t25 35.5t43.5 28.5t64.5 11.5q17 0 33.5 -5t30.5 -16q29 -24 29 -67v-4q-2 -50 -45 -100q-9 -11 -20.5 -21t-24.5 -19q7 -2 14 -5t14 -8q12 -9 19.5 -24.5t7.5 -38.5v-4q-1 -24 -11 -51.5t-29 -51.5t-45.5 -40t-58.5 -16h-1zM620 445q6 -3 8 -8q1 -3 1 -8
q0 -7 -3 -16l-7 -28l-11.5 -46t-13 -55.5t-12.5 -57.5q2 -1 4 -1t4 -1q12 -4 19 -13q4 -7 4 -16q0 -7 -3 -15l-4 -10t-3 -9q-3 -6 -5 -11l-6 -13l-6 12h-1v1l-2 2q-2 3 -8 8q-1 1 -2 1.5t-2 1.5q-8 -45 -12.5 -83.5t-4.5 -63.5q0 -6 1 -9v-4l-3 -2q-2 -1 -4 -3q-5 -4 -10 -6
q-6 -4 -14 -6.5t-18 -2.5h-1q-15 0 -23 11q-4 5 -5 11t-1 12v4q1 12 3.5 24t4.5 23q5 20 11.5 46.5t14.5 56.5q-26 -2 -55 -6t-62 -12l-3 -1l-3 2q0 1 -7.5 8t-14.5 22q-7 14 -7 24q0 15 12 24q5 4 14 13t21 23q13 14 27.5 30.5t31.5 36.5q26 29 41 47.5t22 29.5q4 7 4 10
l1 4l4 1l22 8q10 3 20.5 6t19.5 5q4 1 11 1q8 0 11 -2zM543 297q12 42 18 69q-14 -17 -30.5 -37t-32.5 -38q-16 -19 -32.5 -38t-30.5 -36q-1 0 -1 -1q4 1 8 1h9q24 2 41.5 4t31.5 4q5 20 10 38t9 34zM605 731q25 5 33.5 3.5t5.5 -5.5q-5 -7 -25.5 -35t-50.5 -68.5t-66 -90.5
t-72.5 -101.5t-70 -101.5t-58.5 -91q-30 -46 -57 -90q-17 -26 -28 -43.5t-22 -36t-21.5 -36.5t-18.5 -32q-15 -7 -28.5 -11t-22.5 -6q-12 -2 -21 -2q-19 0 -21 5t7 18q7 11 42 61q18 26 38.5 56.5t51.5 75.5t73 106t96 140l164 240q13 19 27.5 28.5t44.5 16.5z" />
    <glyph glyph-name="questiondown" unicode="&#xbf;" horiz-adv-x="413" 
d="M125 -29q-24 0 -56.5 7t-60.5 24.5t-45.5 47t-11.5 74.5q9 72 45 124t81.5 86.5t91.5 53t76 22.5l24 101q4 17 12 32.5t21 27.5t32 19t45 5l-50 -197q-4 -16 -16.5 -27t-45.5 -18q-43 -8 -87 -27.5t-79 -58.5q-9 -11 -19.5 -27t-20 -35t-16.5 -40t-10 -41q-3 -19 1 -36.5
t16 -30.5t33 -20.5t53 -7.5q26 0 48 8t39 21t27.5 30t12.5 34q1 10 0 20q-1 9 -4 18t-11 16q45 12 66.5 3t30.5 -24q10 -18 8 -45q-5 -37 -32 -63t-63 -43t-73 -25t-62 -8zM344 640q-26 0 -43.5 10.5t-15.5 30.5q2 10 9 20.5t18 19t25.5 14t30.5 5.5q26 0 44 -11t16 -30
q-3 -21 -23 -40t-61 -19z" />
    <glyph glyph-name="Agrave" unicode="&#xc0;" horiz-adv-x="553" 
d="M423 735q34 0 56 -18.5t19 -69.5q-1 -16 -7.5 -61.5t-16.5 -106.5t-22 -132t-23 -139h21q10 0 21.5 1t23.5 3q-5 -12 -11 -22t-11 -18q-7 -9 -14 -16q-19 -21 -43 -32q-7 -48 -11.5 -85.5t-5.5 -61.5q-1 -36 3 -69q3 -31 12 -59t27 -46l-113 -37q-12 17 -17 44.5t-7 54.5
q-2 32 -1 67q2 34 10.5 89t19.5 121q-19 5 -42 9t-52 4q-26 0 -53.5 -2t-54.5 -5q-12 -42 -24 -90q-13 -52 -23 -88.5t-19.5 -61.5t-18.5 -39t-20 -21q-10 -6 -29 -11q-16 -5 -41.5 -10t-65.5 -8q15 17 25.5 32t21 36.5t24 55t33.5 88.5q18 46 38 105q-35 -5 -59.5 -9
t-29.5 -6q-7 -1 -12 0q-5 0 -9 3t-5 10q1 13 9.5 18t24.5 12q8 4 36 14.5t68 21.5q14 41 28.5 81.5t28 78t26.5 69.5t23 56q17 36 43 79.5t59.5 81.5t74 63.5t85.5 25.5zM412 532q11 44 15 72.5t3 45t-6.5 22.5t-13.5 6q-13 0 -31.5 -9.5t-38.5 -28t-40 -45t-36 -61.5
q-22 -50 -51 -124t-62 -188q20 3 39 5t38 2q32 0 62.5 -2.5t56.5 -5.5q9 47 18 92.5t17.5 86.5t16 75t13.5 57zM401 926q6 -3 21 -13.5t32 -23.5t32 -26t20 -22q11 -18 2.5 -27t-18.5 -15q-42 22 -69.5 37t-45.5 24l-32 16q-9 5 -7 18t13 25q15 15 27 14.5t25 -7.5z" />
    <glyph glyph-name="Aacute" unicode="&#xc1;" horiz-adv-x="553" 
d="M423 735q34 0 56 -18.5t19 -69.5q-1 -16 -7.5 -61.5t-16.5 -106.5t-22 -132t-23 -139h21q10 0 21.5 1t23.5 3q-5 -12 -11 -22t-11 -18q-7 -9 -14 -16q-19 -21 -43 -32q-7 -48 -11.5 -85.5t-5.5 -61.5q-1 -36 3 -69q3 -31 12 -59t27 -46l-113 -37q-12 17 -17 44.5t-7 54.5
q-2 32 -1 67q2 34 10.5 89t19.5 121q-19 5 -42 9t-52 4q-26 0 -53.5 -2t-54.5 -5q-12 -42 -24 -90q-13 -52 -23 -88.5t-19.5 -61.5t-18.5 -39t-20 -21q-10 -6 -29 -11q-16 -5 -41.5 -10t-65.5 -8q15 17 25.5 32t21 36.5t24 55t33.5 88.5q18 46 38 105q-35 -5 -59.5 -9
t-29.5 -6q-7 -1 -12 0q-5 0 -9 3t-5 10q1 13 9.5 18t24.5 12q8 4 36 14.5t68 21.5q14 41 28.5 81.5t28 78t26.5 69.5t23 56q17 36 43 79.5t59.5 81.5t74 63.5t85.5 25.5zM412 532q11 44 15 72.5t3 45t-6.5 22.5t-13.5 6q-13 0 -31.5 -9.5t-38.5 -28t-40 -45t-36 -61.5
q-22 -50 -51 -124t-62 -188q20 3 39 5t38 2q32 0 62.5 -2.5t56.5 -5.5q9 47 18 92.5t17.5 86.5t16 75t13.5 57zM472 920q8 6 19 -1.5t16 -23.5q7 -20 1 -30.5t-18 -18.5q-6 -4 -22 -13t-35 -18.5t-37.5 -16.5t-28.5 -8q-21 -2 -25.5 10t-5.5 23q39 27 65 45.5t42 30.5
q18 13 29 21z" />
    <glyph glyph-name="Acircumflex" unicode="&#xc2;" horiz-adv-x="553" 
d="M423 735q34 0 56 -18.5t19 -69.5q-1 -16 -7.5 -61.5t-16.5 -106.5t-22 -132t-23 -139h21q10 0 21.5 1t23.5 3q-5 -12 -11 -22t-11 -18q-7 -9 -14 -16q-19 -21 -43 -32q-7 -48 -11.5 -85.5t-5.5 -61.5q-1 -36 3 -69q3 -31 12 -59t27 -46l-113 -37q-12 17 -17 44.5t-7 54.5
q-2 32 -1 67q2 34 10.5 89t19.5 121q-19 5 -42 9t-52 4q-26 0 -53.5 -2t-54.5 -5q-12 -42 -24 -90q-13 -52 -23 -88.5t-19.5 -61.5t-18.5 -39t-20 -21q-10 -6 -29 -11q-16 -5 -41.5 -10t-65.5 -8q15 17 25.5 32t21 36.5t24 55t33.5 88.5q18 46 38 105q-35 -5 -59.5 -9
t-29.5 -6q-7 -1 -12 0q-5 0 -9 3t-5 10q1 13 9.5 18t24.5 12q8 4 36 14.5t68 21.5q14 41 28.5 81.5t28 78t26.5 69.5t23 56q17 36 43 79.5t59.5 81.5t74 63.5t85.5 25.5zM412 532q11 44 15 72.5t3 45t-6.5 22.5t-13.5 6q-13 0 -31.5 -9.5t-38.5 -28t-40 -45t-36 -61.5
q-22 -50 -51 -124t-62 -188q20 3 39 5t38 2q32 0 62.5 -2.5t56.5 -5.5q9 47 18 92.5t17.5 86.5t16 75t13.5 57zM527 837q9 -14 17 -24.5t20 -16.5q-7 -4 -17 -5.5t-20 -1.5q-12 0 -24 2q-18 3 -30.5 15t-29.5 49q0 1 -0.5 1.5t-0.5 1.5q-36 -29 -49.5 -40t-15.5 -13
q-16 -14 -31.5 -12t-29.5 1h-12q-5 0 -10.5 -0.5t-10.5 -1.5q5 4 17 13.5t24 19.5q14 12 31 25q6 5 16 12.5t20 15.5t18.5 14.5t11.5 8.5q3 3 13.5 4.5t22.5 1.5t22.5 -2t12.5 -5t7 -12t10.5 -19t10.5 -19t7 -13z" />
    <glyph glyph-name="Atilde" unicode="&#xc3;" horiz-adv-x="553" 
d="M423 735q34 0 56 -18.5t19 -69.5q-1 -16 -7.5 -61.5t-16.5 -106.5t-22 -132t-23 -139h21q10 0 21.5 1t23.5 3q-5 -12 -11 -22t-11 -18q-7 -9 -14 -16q-19 -21 -43 -32q-7 -48 -11.5 -85.5t-5.5 -61.5q-1 -36 3 -69q3 -31 12 -59t27 -46l-113 -37q-12 17 -17 44.5t-7 54.5
q-2 32 -1 67q2 34 10.5 89t19.5 121q-19 5 -42 9t-52 4q-26 0 -53.5 -2t-54.5 -5q-12 -42 -24 -90q-13 -52 -23 -88.5t-19.5 -61.5t-18.5 -39t-20 -21q-10 -6 -29 -11q-16 -5 -41.5 -10t-65.5 -8q15 17 25.5 32t21 36.5t24 55t33.5 88.5q18 46 38 105q-35 -5 -59.5 -9
t-29.5 -6q-7 -1 -12 0q-5 0 -9 3t-5 10q1 13 9.5 18t24.5 12q8 4 36 14.5t68 21.5q14 41 28.5 81.5t28 78t26.5 69.5t23 56q17 36 43 79.5t59.5 81.5t74 63.5t85.5 25.5zM412 532q11 44 15 72.5t3 45t-6.5 22.5t-13.5 6q-13 0 -31.5 -9.5t-38.5 -28t-40 -45t-36 -61.5
q-22 -50 -51 -124t-62 -188q20 3 39 5t38 2q32 0 62.5 -2.5t56.5 -5.5q9 47 18 92.5t17.5 86.5t16 75t13.5 57zM575 881q17 -10 17 -32q0 -12 -7.5 -23.5t-20.5 -20t-31.5 -12.5t-39.5 -1q-22 3 -39.5 9t-32 10.5t-28 6t-29.5 -4.5l-18 -8q-8 -4 -16 -8.5t-15 -9.5
q-9 2 -17 9q-3 3 -5 6q-4 6 -6 12q-2 5 -2.5 10.5t2.5 10.5q12 15 29.5 23t33.5 11q19 4 39 3q26 -1 42.5 -6t30 -10t27.5 -8t36 0q7 1 16 5q7 4 16 10.5t18 17.5z" />
    <glyph glyph-name="Adieresis" unicode="&#xc4;" horiz-adv-x="553" 
d="M423 735q34 0 56 -18.5t19 -69.5q-1 -16 -7.5 -61.5t-16.5 -106.5t-22 -132t-23 -139h21q10 0 21.5 1t23.5 3q-5 -12 -11 -22t-11 -18q-7 -9 -14 -16q-19 -21 -43 -32q-7 -48 -11.5 -85.5t-5.5 -61.5q-1 -36 3 -69q3 -31 12 -59t27 -46l-113 -37q-12 17 -17 44.5t-7 54.5
q-2 32 -1 67q2 34 10.5 89t19.5 121q-19 5 -42 9t-52 4q-26 0 -53.5 -2t-54.5 -5q-12 -42 -24 -90q-13 -52 -23 -88.5t-19.5 -61.5t-18.5 -39t-20 -21q-10 -6 -29 -11q-16 -5 -41.5 -10t-65.5 -8q15 17 25.5 32t21 36.5t24 55t33.5 88.5q18 46 38 105q-35 -5 -59.5 -9
t-29.5 -6q-7 -1 -12 0q-5 0 -9 3t-5 10q1 13 9.5 18t24.5 12q8 4 36 14.5t68 21.5q14 41 28.5 81.5t28 78t26.5 69.5t23 56q17 36 43 79.5t59.5 81.5t74 63.5t85.5 25.5zM412 532q11 44 15 72.5t3 45t-6.5 22.5t-13.5 6q-13 0 -31.5 -9.5t-38.5 -28t-40 -45t-36 -61.5
q-22 -50 -51 -124t-62 -188q20 3 39 5t38 2q32 0 62.5 -2.5t56.5 -5.5q9 47 18 92.5t17.5 86.5t16 75t13.5 57zM512 798q-20 0 -28.5 8t-8.5 21q0 19 21 33.5t47 14.5q24 0 33.5 -8t9.5 -22q0 -11 -7 -19.5t-18 -14.5t-24 -9.5t-25 -3.5zM431 851q0 -19 -22 -37t-58 -18
q-18 0 -24 8.5t-6 17.5q0 18 17.5 36.5t51.5 18.5q16 0 28.5 -5t12.5 -21z" />
    <glyph glyph-name="Aring" unicode="&#xc5;" horiz-adv-x="553" 
d="M412 532q11 44 15 72.5t3 45t-6.5 22.5t-13.5 6q-13 0 -31.5 -9.5t-38.5 -28t-40 -45t-36 -61.5q-22 -50 -51 -124t-62 -188q20 3 39 5t38 2q32 0 62.5 -2.5t56.5 -5.5q9 47 18 92.5t17.5 86.5t16 75t13.5 57zM436 845q35 0 47.5 -17t12.5 -34q0 -16 -10.5 -35t-30.5 -29
q21 -7 33 -26t10 -57q-1 -16 -7.5 -61.5t-16.5 -106.5t-22 -132t-23 -139h21q10 0 21.5 1t23.5 3q-5 -12 -11 -22t-11 -18q-7 -9 -14 -16q-19 -21 -43 -32q-7 -48 -11.5 -85.5t-5.5 -61.5q-1 -36 3 -69q3 -31 12 -59t27 -46l-113 -37q-12 17 -17 44.5t-7 54.5q-2 32 -1 67
q2 34 10.5 89t19.5 121q-19 5 -42 9t-52 4q-26 0 -53.5 -2t-54.5 -5q-12 -42 -24 -90q-13 -52 -23 -88.5t-19.5 -61.5t-18.5 -39t-20 -21q-10 -6 -29 -11q-16 -5 -41.5 -10t-65.5 -8q15 17 25.5 32t21 36.5t24 55t33.5 88.5q18 46 38 105q-35 -5 -59.5 -9t-29.5 -6
q-7 -1 -12 0q-5 0 -9 3t-5 10q1 13 9.5 18t24.5 12q8 4 36 14.5t68 21.5q14 41 28.5 81.5t28 78t26.5 69.5t23 56q15 33 37.5 71.5t52 74t64 63t73.5 36.5q-17 8 -22 21.5t-5 25.5q0 26 22.5 47t52.5 21zM427 758q13 0 19.5 11t6.5 19t-4.5 15t-17.5 7q-11 0 -19 -9t-8 -20
q0 -8 4.5 -15.5t18.5 -7.5z" />
    <glyph glyph-name="AE" unicode="&#xc6;" horiz-adv-x="869" 
d="M743 736q38 0 64.5 -12t43.5 -30t25 -39t8 -39q1 -33 -8 -66t-23.5 -59.5t-32 -43.5t-33.5 -17q-13 1 -27 4q-13 4 -27.5 10.5t-30.5 19.5q25 10 44.5 28t33 40t20 46t5.5 46q-1 31 -14.5 48t-44.5 17q-40 0 -81 -20t-72.5 -55.5t-49.5 -84.5t-12 -107q5 -45 26.5 -74.5
t41.5 -46.5q15 2 28.5 3.5t26.5 1.5q16 0 32 -6t17 -17q0 -7 -4 -17t-11.5 -18.5t-18.5 -14.5t-25 -6q-12 0 -28.5 5.5t-33.5 14.5q-36 -7 -66.5 -27.5t-52 -48t-33 -59t-10.5 -62.5q1 -28 9 -56.5t25 -51.5t43.5 -37t65.5 -14q43 0 79 25.5t63.5 58.5t45 64.5t23.5 43.5
q3 6 8.5 9t10.5 1.5t8 -7.5t0 -18q-8 -34 -29.5 -77.5t-55 -82t-79 -64.5t-101.5 -26q-34 0 -65 8.5t-57 23.5l8 -18q4 -8 8.5 -16t10.5 -13l-113 -37q-12 17 -17 44.5t-7 54.5q-2 32 -1 67q2 34 10.5 89t19.5 121q-19 5 -42 9t-52 4q-26 0 -53.5 -2t-54.5 -5
q-12 -42 -24 -90q-13 -52 -23 -88.5t-19.5 -61.5t-18.5 -39t-20 -21q-10 -6 -29 -11q-16 -5 -41.5 -10t-65.5 -8q15 17 25.5 32t21 36.5t24 55t33.5 88.5q18 46 38 105q-35 -5 -59.5 -9t-29.5 -6q-7 -1 -12 0q-5 0 -9 3t-5 10q1 13 9.5 18t24.5 12q8 4 36 14.5t68 21.5
q14 41 28.5 81.5t28 78t26.5 69.5t23 56q17 36 43 79.5t59.5 81.5t74 63.5t85.5 25.5q34 0 56 -18.5t19 -69.5q0 -4 -0.5 -9t-1.5 -12q49 52 116 81t131 29zM412 532q11 45 15 73t3 44.5t-6.5 22.5t-13.5 6q-13 0 -31.5 -9.5t-38.5 -28t-40 -45t-36 -61.5q-22 -50 -51 -124
t-62 -188q20 3 39 5t38 2q32 0 62.5 -2.5t56.5 -5.5q9 47 18 92.5t17.5 86.5t16 75t13.5 57zM433 234q45 30 94 47q-22 12 -41.5 29t-33.5 38q-5 -29 -9.5 -57.5t-9.5 -56.5z" />
    <glyph glyph-name="Ccedilla" unicode="&#xc7;" horiz-adv-x="549" 
d="M193 -233q54 2 79.5 -16t20.5 -49q-2 -17 -15 -32t-33 -27.5t-46.5 -21t-56.5 -11.5q-13 -2 -19.5 2t-7 10t5.5 11.5t19 8.5q32 8 55.5 21.5t26.5 30.5q2 17 -17.5 26.5t-52.5 6.5q-26 -2 -23 19q1 4 5 15.5t9.5 24t10 24t6.5 15.5q-38 11 -68.5 38t-51.5 66t-31.5 88
t-8.5 103q2 59 15.5 127.5t37.5 137t58.5 132.5t79.5 113t100 78.5t120 29.5q41 0 68.5 -16t44.5 -42.5t24 -59.5t6 -67q-1 -32 -9 -62.5t-21.5 -54t-32.5 -38t-43 -14.5q-11 1 -22 7q-10 6 -20 18t-19 34q26 11 41.5 38t22.5 57q9 33 12 73q2 40 -16.5 58.5t-42.5 18.5
q-46 0 -96.5 -47.5t-94 -129t-73.5 -190t-35 -229.5q-2 -55 8 -93t26.5 -62t38 -35t43.5 -11q34 0 64.5 14.5t55.5 35.5t43 44.5t27 40.5q7 13 15 16t14 -1t7.5 -14t-4.5 -22q-15 -32 -38 -64.5t-51.5 -58.5t-62.5 -43.5t-71 -20.5q-3 -7 -9.5 -19t-17.5 -32z" />
    <glyph glyph-name="Egrave" unicode="&#xc8;" horiz-adv-x="523" 
d="M190 -182q-46 0 -85.5 15t-69 41t-47 62t-18.5 78q-1 54 17 97.5t48 76.5t68 56t78 37q-22 12 -41 29t-33.5 37t-23.5 42.5t-9 45.5q-2 68 27.5 123.5t77 95t105.5 61t113 21.5q37 0 63.5 -12t43.5 -30t25 -39t9 -39q1 -33 -8 -66t-23.5 -59.5t-32 -43.5t-34.5 -17
q-13 1 -27 4q-13 4 -27.5 10.5t-30.5 19.5q26 10 45.5 28t32.5 40t19.5 46t6.5 46q-1 31 -15 48t-44 17q-41 0 -82 -20t-72.5 -55.5t-49.5 -84.5t-12 -107q5 -45 26.5 -74.5t41.5 -46.5q15 2 29 3.5t26 1.5q17 0 33 -6t16 -17q0 -7 -3.5 -17t-11 -18.5t-18.5 -14.5t-25 -6
q-12 0 -28.5 5.5t-33.5 14.5q-37 -7 -67 -27.5t-51.5 -48t-33 -59t-10.5 -62.5q1 -28 9 -56.5t24.5 -51.5t43.5 -37t65 -14q43 0 79.5 25.5t64 58.5t45 64.5t23.5 43.5q3 6 8.5 9t10.5 1.5t8 -7.5t0 -18q-8 -34 -29.5 -77.5t-55 -82t-79 -64.5t-101.5 -26zM371 916
q6 -3 21 -13.5t32 -23.5t32 -26t20 -22q11 -18 2.5 -27t-18.5 -15q-42 22 -69.5 37t-45.5 24l-32 16q-9 5 -7 18t13 25q15 15 27 14.5t25 -7.5z" />
    <glyph glyph-name="Eacute" unicode="&#xc9;" horiz-adv-x="523" 
d="M190 -182q-46 0 -85.5 15t-69 41t-47 62t-18.5 78q-1 54 17 97.5t48 76.5t68 56t78 37q-22 12 -41 29t-33.5 37t-23.5 42.5t-9 45.5q-2 68 27.5 123.5t77 95t105.5 61t113 21.5q37 0 63.5 -12t43.5 -30t25 -39t9 -39q1 -33 -8 -66t-23.5 -59.5t-32 -43.5t-34.5 -17
q-13 1 -27 4q-13 4 -27.5 10.5t-30.5 19.5q26 10 45.5 28t32.5 40t19.5 46t6.5 46q-1 31 -15 48t-44 17q-41 0 -82 -20t-72.5 -55.5t-49.5 -84.5t-12 -107q5 -45 26.5 -74.5t41.5 -46.5q15 2 29 3.5t26 1.5q17 0 33 -6t16 -17q0 -7 -3.5 -17t-11 -18.5t-18.5 -14.5t-25 -6
q-12 0 -28.5 5.5t-33.5 14.5q-37 -7 -67 -27.5t-51.5 -48t-33 -59t-10.5 -62.5q1 -28 9 -56.5t24.5 -51.5t43.5 -37t65 -14q43 0 79.5 25.5t64 58.5t45 64.5t23.5 43.5q3 6 8.5 9t10.5 1.5t8 -7.5t0 -18q-8 -34 -29.5 -77.5t-55 -82t-79 -64.5t-101.5 -26zM462 920
q8 6 19 -1.5t16 -23.5q7 -20 1 -30.5t-18 -18.5q-6 -4 -22 -13t-35 -18.5t-37.5 -16.5t-28.5 -8q-21 -2 -25.5 10t-5.5 23q39 27 65 45.5t42 30.5q18 13 29 21z" />
    <glyph glyph-name="Ecircumflex" unicode="&#xca;" horiz-adv-x="523" 
d="M190 -182q-46 0 -85.5 15t-69 41t-47 62t-18.5 78q-1 54 17 97.5t48 76.5t68 56t78 37q-22 12 -41 29t-33.5 37t-23.5 42.5t-9 45.5q-2 68 27.5 123.5t77 95t105.5 61t113 21.5q37 0 63.5 -12t43.5 -30t25 -39t9 -39q1 -33 -8 -66t-23.5 -59.5t-32 -43.5t-34.5 -17
q-13 1 -27 4q-13 4 -27.5 10.5t-30.5 19.5q26 10 45.5 28t32.5 40t19.5 46t6.5 46q-1 31 -15 48t-44 17q-41 0 -82 -20t-72.5 -55.5t-49.5 -84.5t-12 -107q5 -45 26.5 -74.5t41.5 -46.5q15 2 29 3.5t26 1.5q17 0 33 -6t16 -17q0 -7 -3.5 -17t-11 -18.5t-18.5 -14.5t-25 -6
q-12 0 -28.5 5.5t-33.5 14.5q-37 -7 -67 -27.5t-51.5 -48t-33 -59t-10.5 -62.5q1 -28 9 -56.5t24.5 -51.5t43.5 -37t65 -14q43 0 79.5 25.5t64 58.5t45 64.5t23.5 43.5q3 6 8.5 9t10.5 1.5t8 -7.5t0 -18q-8 -34 -29.5 -77.5t-55 -82t-79 -64.5t-101.5 -26zM517 847
q9 -14 17 -24.5t20 -16.5q-7 -4 -17 -5.5t-20 -1.5q-12 0 -24 2q-18 3 -30.5 15t-29.5 49q0 1 -0.5 1.5t-0.5 1.5q-36 -29 -49.5 -40t-15.5 -13q-16 -14 -31.5 -12t-29.5 1h-12q-5 0 -10.5 -0.5t-10.5 -1.5q5 4 17 13.5t24 19.5q14 12 31 25q6 5 16 12.5t20 15.5t18.5 14.5
t11.5 8.5q3 3 13.5 4.5t22.5 1.5t22.5 -2t12.5 -5t7 -12t10.5 -19t10.5 -19t7 -13z" />
    <glyph glyph-name="Edieresis" unicode="&#xcb;" horiz-adv-x="523" 
d="M190 -182q-46 0 -85.5 15t-69 41t-47 62t-18.5 78q-1 54 17 97.5t48 76.5t68 56t78 37q-22 12 -41 29t-33.5 37t-23.5 42.5t-9 45.5q-2 68 27.5 123.5t77 95t105.5 61t113 21.5q37 0 63.5 -12t43.5 -30t25 -39t9 -39q1 -33 -8 -66t-23.5 -59.5t-32 -43.5t-34.5 -17
q-13 1 -27 4q-13 4 -27.5 10.5t-30.5 19.5q26 10 45.5 28t32.5 40t19.5 46t6.5 46q-1 31 -15 48t-44 17q-41 0 -82 -20t-72.5 -55.5t-49.5 -84.5t-12 -107q5 -45 26.5 -74.5t41.5 -46.5q15 2 29 3.5t26 1.5q17 0 33 -6t16 -17q0 -7 -3.5 -17t-11 -18.5t-18.5 -14.5t-25 -6
q-12 0 -28.5 5.5t-33.5 14.5q-37 -7 -67 -27.5t-51.5 -48t-33 -59t-10.5 -62.5q1 -28 9 -56.5t24.5 -51.5t43.5 -37t65 -14q43 0 79.5 25.5t64 58.5t45 64.5t23.5 43.5q3 6 8.5 9t10.5 1.5t8 -7.5t0 -18q-8 -34 -29.5 -77.5t-55 -82t-79 -64.5t-101.5 -26zM482 798
q-20 0 -28.5 8t-8.5 21q0 19 21 33.5t47 14.5q24 0 33.5 -8t9.5 -22q0 -11 -7 -19.5t-18 -14.5t-24 -9.5t-25 -3.5zM401 851q0 -19 -22 -37t-58 -18q-18 0 -24 8.5t-6 17.5q0 18 17.5 36.5t51.5 18.5q16 0 28.5 -5t12.5 -21z" />
    <glyph glyph-name="Igrave" unicode="&#xcc;" horiz-adv-x="537" 
d="M254 247q-18 19 -29.5 48.5t-17.5 57.5q-7 33 -10 68q-5 70 16 127.5t56 98.5t78.5 63.5t84.5 22.5q18 0 29 -9t17 -21.5t7.5 -26t1.5 -22.5q0 -31 -1.5 -61.5t-5 -64.5t-10 -73t-17.5 -87q-6 -26 -16.5 -67t-25.5 -91q44 -1 71 -3.5t35 -3.5q6 -1 9.5 -7t-4.5 -18
t-22 -14t-27 -2h-28.5t-49.5 -2q-20 -60 -46 -121.5t-57.5 -110.5t-68.5 -80t-79 -31q-61 0 -102.5 23t-67.5 54t-37.5 62t-11.5 47q0 30 15.5 60t49.5 56.5t87.5 47.5t128.5 31q31 4 59 6.5t54 4.5q20 73 40 149.5t35 140.5q6 26 11.5 57t9 58t4 46t-4.5 21q-3 2 -15 -7
t-27 -24.5t-30.5 -37.5t-25.5 -48q-17 -49 -27 -97q-6 -28 -8 -47.5t-1.5 -41t3.5 -42.5t11 -39q0 -7 -2 -12.5t-4 -9.5q-2 -5 -5 -9l-7 -7q-4 -3 -9 -6t-13 -6zM242 -25q11 22 26.5 69t33.5 108q-48 -6 -96.5 -16t-88.5 -27t-65 -41t-25 -58q0 -35 14 -61.5t34 -44.5
t41.5 -27t35.5 -9q15 0 28.5 11t24.5 27.5t20.5 35t16.5 33.5zM391 916q6 -3 21 -13.5t32 -23.5t32 -26t20 -22q11 -18 2.5 -27t-18.5 -15q-42 22 -69.5 37t-45.5 24l-32 16q-9 5 -7 18t13 25q15 15 27 14.5t25 -7.5z" />
    <glyph glyph-name="Iacute" unicode="&#xcd;" horiz-adv-x="537" 
d="M254 247q-18 19 -29.5 48.5t-17.5 57.5q-7 33 -10 68q-5 70 16 127.5t56 98.5t78.5 63.5t84.5 22.5q18 0 29 -9t17 -21.5t7.5 -26t1.5 -22.5q0 -31 -1.5 -61.5t-5 -64.5t-10 -73t-17.5 -87q-6 -26 -16.5 -67t-25.5 -91q44 -1 71 -3.5t35 -3.5q6 -1 9.5 -7t-4.5 -18
t-22 -14t-27 -2h-28.5t-49.5 -2q-20 -60 -46 -121.5t-57.5 -110.5t-68.5 -80t-79 -31q-61 0 -102.5 23t-67.5 54t-37.5 62t-11.5 47q0 30 15.5 60t49.5 56.5t87.5 47.5t128.5 31q31 4 59 6.5t54 4.5q20 73 40 149.5t35 140.5q6 26 11.5 57t9 58t4 46t-4.5 21q-3 2 -15 -7
t-27 -24.5t-30.5 -37.5t-25.5 -48q-17 -49 -27 -97q-6 -28 -8 -47.5t-1.5 -41t3.5 -42.5t11 -39q0 -7 -2 -12.5t-4 -9.5q-2 -5 -5 -9l-7 -7q-4 -3 -9 -6t-13 -6zM242 -25q11 22 26.5 69t33.5 108q-48 -6 -96.5 -16t-88.5 -27t-65 -41t-25 -58q0 -35 14 -61.5t34 -44.5
t41.5 -27t35.5 -9q15 0 28.5 11t24.5 27.5t20.5 35t16.5 33.5zM492 920q8 6 19 -1.5t16 -23.5q7 -20 1 -30.5t-18 -18.5q-6 -4 -22 -13t-35 -18.5t-37.5 -16.5t-28.5 -8q-21 -2 -25.5 10t-5.5 23q39 27 65 45.5t42 30.5q18 13 29 21z" />
    <glyph glyph-name="Icircumflex" unicode="&#xce;" horiz-adv-x="537" 
d="M254 247q-18 19 -29.5 48.5t-17.5 57.5q-7 33 -10 68q-5 70 16 127.5t56 98.5t78.5 63.5t84.5 22.5q18 0 29 -9t17 -21.5t7.5 -26t1.5 -22.5q0 -31 -1.5 -61.5t-5 -64.5t-10 -73t-17.5 -87q-6 -26 -16.5 -67t-25.5 -91q44 -1 71 -3.5t35 -3.5q6 -1 9.5 -7t-4.5 -18
t-22 -14t-27 -2h-28.5t-49.5 -2q-20 -60 -46 -121.5t-57.5 -110.5t-68.5 -80t-79 -31q-61 0 -102.5 23t-67.5 54t-37.5 62t-11.5 47q0 30 15.5 60t49.5 56.5t87.5 47.5t128.5 31q31 4 59 6.5t54 4.5q20 73 40 149.5t35 140.5q6 26 11.5 57t9 58t4 46t-4.5 21q-3 2 -15 -7
t-27 -24.5t-30.5 -37.5t-25.5 -48q-17 -49 -27 -97q-6 -28 -8 -47.5t-1.5 -41t3.5 -42.5t11 -39q0 -7 -2 -12.5t-4 -9.5q-2 -5 -5 -9l-7 -7q-4 -3 -9 -6t-13 -6zM242 -25q11 22 26.5 69t33.5 108q-48 -6 -96.5 -16t-88.5 -27t-65 -41t-25 -58q0 -35 14 -61.5t34 -44.5
t41.5 -27t35.5 -9q15 0 28.5 11t24.5 27.5t20.5 35t16.5 33.5zM557 837q9 -14 17 -24.5t20 -16.5q-7 -4 -17 -5.5t-20 -1.5q-12 0 -24 2q-18 3 -30.5 15t-29.5 49q0 1 -0.5 1.5t-0.5 1.5q-36 -29 -49.5 -40t-15.5 -13q-16 -14 -31.5 -12t-29.5 1h-12q-5 0 -10.5 -0.5
t-10.5 -1.5q5 4 17 13.5t24 19.5q14 12 31 25q6 5 16 12.5t20 15.5t18.5 14.5t11.5 8.5q3 3 13.5 4.5t22.5 1.5t22.5 -2t12.5 -5t7 -12t10.5 -19t10.5 -19t7 -13z" />
    <glyph glyph-name="Idieresis" unicode="&#xcf;" horiz-adv-x="537" 
d="M254 247q-18 19 -29.5 48.5t-17.5 57.5q-7 33 -10 68q-5 70 16 127.5t56 98.5t78.5 63.5t84.5 22.5q18 0 29 -9t17 -21.5t7.5 -26t1.5 -22.5q0 -31 -1.5 -61.5t-5 -64.5t-10 -73t-17.5 -87q-6 -26 -16.5 -67t-25.5 -91q44 -1 71 -3.5t35 -3.5q6 -1 9.5 -7t-4.5 -18
t-22 -14t-27 -2h-28.5t-49.5 -2q-20 -60 -46 -121.5t-57.5 -110.5t-68.5 -80t-79 -31q-61 0 -102.5 23t-67.5 54t-37.5 62t-11.5 47q0 30 15.5 60t49.5 56.5t87.5 47.5t128.5 31q31 4 59 6.5t54 4.5q20 73 40 149.5t35 140.5q6 26 11.5 57t9 58t4 46t-4.5 21q-3 2 -15 -7
t-27 -24.5t-30.5 -37.5t-25.5 -48q-17 -49 -27 -97q-6 -28 -8 -47.5t-1.5 -41t3.5 -42.5t11 -39q0 -7 -2 -12.5t-4 -9.5q-2 -5 -5 -9l-7 -7q-4 -3 -9 -6t-13 -6zM242 -25q11 22 26.5 69t33.5 108q-48 -6 -96.5 -16t-88.5 -27t-65 -41t-25 -58q0 -35 14 -61.5t34 -44.5
t41.5 -27t35.5 -9q15 0 28.5 11t24.5 27.5t20.5 35t16.5 33.5zM512 798q-20 0 -28.5 8t-8.5 21q0 19 21 33.5t47 14.5q24 0 33.5 -8t9.5 -22q0 -11 -7 -19.5t-18 -14.5t-24 -9.5t-25 -3.5zM431 851q0 -19 -22 -37t-58 -18q-18 0 -24 8.5t-6 17.5q0 18 17.5 36.5t51.5 18.5
q16 0 28.5 -5t12.5 -21z" />
    <glyph glyph-name="Eth" unicode="&#xd0;" horiz-adv-x="633" 
d="M293 252q-35 2 -91 0q-3 -12 -6 -23.5t-6 -22.5q-10 -36 -23 -83q-11 -42 -26.5 -96t-35.5 -123q14 -23 51 -23q41 0 95.5 31t105.5 93.5t89.5 157t47.5 220.5q5 68 -6.5 120t-35.5 87t-59 52.5t-77 17.5q-98 0 -204 -82l-5 81q26 29 58.5 44t61.5 23q33 8 67 9
q63 0 120.5 -24t100.5 -73t65.5 -122t15.5 -172q-4 -57 -23 -118t-50 -120t-73 -111t-91.5 -92t-106.5 -63t-117 -23q-19 1 -40 7q-20 6 -42.5 17t-48.5 33q-9 6 -9 13.5t3 13.5q4 7 12 15q9 7 22 42.5t27 84.5t28 104t24 102q-25 -2 -63 -6t-73 -13q-1 7 0 15t3 14
q2 8 4 15q4 9 11.5 20t13.5 14q8 3 42 6t77 5q2 12 3 21q5 27 11 60q5 29 10.5 66.5t10.5 82.5l78 35q17 8 23.5 -3.5t0.5 -46.5q-2 -12 -6.5 -34.5t-10.5 -52t-13 -62.5t-15 -66q28 -1 50.5 -2t43.5 -3q14 -2 16.5 -9t-3.5 -24t-13 -23.5t-19 -5.5z" />
    <glyph glyph-name="Ntilde" unicode="&#xd1;" horiz-adv-x="541" 
d="M152 461q-4 -17 -11.5 -50t-16 -75t-17.5 -88.5t-17 -91.5t-13.5 -84.5t-6.5 -66.5q-1 -30 0 -60q0 -27 3 -53.5t10 -48.5q-17 -7 -29 -11t-20 -6q-10 -2 -17 -2q-8 0 -18.5 1.5t-19.5 10t-15 27.5t-4 54t14.5 94.5t28.5 125.5t32 129t26 104q8 34 19 82q10 43 24 101.5
t32 138.5q7 6 14.5 10t13.5 7q7 4 14 6q31 11 44 2.5t15 -34.5q2 -17 5 -51t6 -74.5t5 -84t2 -80.5t2.5 -92t6.5 -112t10.5 -107.5t13.5 -78.5q4 -15 9 -28q6 23 13.5 55.5t15.5 69t15.5 75t13.5 72.5q5 27 11 70t14 93q-11 3 -20 8q-10 4 -18.5 9.5t-14.5 13.5q1 13 2.5 19
t9.5 1q6 -3 18 -7t29 -6q5 27 11 54.5t13 53.5q22 84 56.5 132.5t98.5 49.5q30 0 49.5 -24.5t16.5 -86.5q-2 -45 -19 -82t-41.5 -65t-53.5 -46t-56 -26q-9 -46 -16.5 -92.5t-15 -90t-14.5 -82.5t-15 -69q-6 -29 -14 -63q-7 -32 -16.5 -69t-20.5 -79q-4 -9 -10 -15t-12 -10
q-7 -5 -14 -8q-20 -8 -33 -3t-24 27t-19.5 55.5t-16.5 71.5q-9 42 -13.5 91.5t-7 101t-3.5 102t-4 95.5q-8 118 -20 184q-4 -20 -9 -44.5t-11 -49.5zM480 502q-2 -8 -3.5 -17t-3.5 -18q24 14 44 35t34.5 44t23 47t9.5 43q1 13 -2.5 21.5t-12.5 8.5q-4 0 -14.5 -5t-23 -22.5
t-26 -50t-25.5 -86.5zM515 861q17 -10 17 -32q0 -12 -7.5 -23.5t-20.5 -20t-31.5 -12.5t-39.5 -1q-22 3 -39.5 9t-32 10.5t-28 6t-29.5 -4.5l-18 -8q-8 -4 -16 -8.5t-15 -9.5q-9 2 -17 9q-3 3 -5 6q-4 6 -6 12q-2 5 -2.5 10.5t2.5 10.5q12 15 29.5 23t33.5 11q19 4 39 3
q26 -1 42.5 -6t30 -10t27.5 -8t36 0q7 1 16 5q7 4 16 10.5t18 17.5z" />
    <glyph glyph-name="Ograve" unicode="&#xd2;" 
d="M512 328q-8 -92 -36 -184.5t-72 -166.5t-101.5 -120.5t-123.5 -46.5q-9 0 -27 3.5t-38.5 15.5t-41.5 35.5t-36.5 63t-22.5 98t0 141.5q11 131 48 238t84.5 183t98 117.5t89.5 41.5q16 0 26 -6.5t16 -15.5q7 2 15.5 3t19.5 1q28 0 50.5 -29t36.5 -82t18.5 -127t-3.5 -163z
M182 -134q38 0 78 39t74 106t58.5 156t33.5 188q3 40 3.5 95t-4.5 105.5t-16 85.5t-29 35q-12 -1 -25 -8q-12 -6 -25.5 -19t-27.5 -37q-4 4 -8 14q-2 4 -3 9q-2 3 -2 7.5t-1 9.5q-19 -21 -46.5 -60.5t-54 -98.5t-48.5 -138t-31 -181q-7 -90 -3 -149.5t15 -94.5t27.5 -49.5
t34.5 -14.5zM371 916q6 -3 21 -13.5t32 -23.5t32 -26t20 -22q11 -18 2.5 -27t-18.5 -15q-42 22 -69.5 37t-45.5 24l-32 16q-9 5 -7 18t13 25q15 15 27 14.5t25 -7.5z" />
    <glyph glyph-name="Oacute" unicode="&#xd3;" 
d="M512 328q-8 -92 -36 -184.5t-72 -166.5t-101.5 -120.5t-123.5 -46.5q-9 0 -27 3.5t-38.5 15.5t-41.5 35.5t-36.5 63t-22.5 98t0 141.5q11 131 48 238t84.5 183t98 117.5t89.5 41.5q16 0 26 -6.5t16 -15.5q7 2 15.5 3t19.5 1q28 0 50.5 -29t36.5 -82t18.5 -127t-3.5 -163z
M182 -134q38 0 78 39t74 106t58.5 156t33.5 188q3 40 3.5 95t-4.5 105.5t-16 85.5t-29 35q-12 -1 -25 -8q-12 -6 -25.5 -19t-27.5 -37q-4 4 -8 14q-2 4 -3 9q-2 3 -2 7.5t-1 9.5q-19 -21 -46.5 -60.5t-54 -98.5t-48.5 -138t-31 -181q-7 -90 -3 -149.5t15 -94.5t27.5 -49.5
t34.5 -14.5zM442 920q8 6 19 -1.5t16 -23.5q7 -20 1 -30.5t-18 -18.5q-6 -4 -22 -13t-35 -18.5t-37.5 -16.5t-28.5 -8q-21 -2 -25.5 10t-5.5 23q39 27 65 45.5t42 30.5q18 13 29 21z" />
    <glyph glyph-name="Ocircumflex" unicode="&#xd4;" 
d="M512 328q-8 -92 -36 -184.5t-72 -166.5t-101.5 -120.5t-123.5 -46.5q-9 0 -27 3.5t-38.5 15.5t-41.5 35.5t-36.5 63t-22.5 98t0 141.5q11 131 48 238t84.5 183t98 117.5t89.5 41.5q16 0 26 -6.5t16 -15.5q7 2 15.5 3t19.5 1q28 0 50.5 -29t36.5 -82t18.5 -127t-3.5 -163z
M182 -134q38 0 78 39t74 106t58.5 156t33.5 188q3 40 3.5 95t-4.5 105.5t-16 85.5t-29 35q-12 -1 -25 -8q-12 -6 -25.5 -19t-27.5 -37q-4 4 -8 14q-2 4 -3 9q-2 3 -2 7.5t-1 9.5q-19 -21 -46.5 -60.5t-54 -98.5t-48.5 -138t-31 -181q-7 -90 -3 -149.5t15 -94.5t27.5 -49.5
t34.5 -14.5zM487 847q9 -14 17 -24.5t20 -16.5q-7 -4 -17 -5.5t-20 -1.5q-12 0 -24 2q-18 3 -30.5 15t-29.5 49q0 1 -0.5 1.5t-0.5 1.5q-36 -29 -49.5 -40t-15.5 -13q-16 -14 -31.5 -12t-29.5 1h-12q-5 0 -10.5 -0.5t-10.5 -1.5q5 4 17 13.5t24 19.5q14 12 31 25
q6 5 16 12.5t20 15.5t18.5 14.5t11.5 8.5q3 3 13.5 4.5t22.5 1.5t22.5 -2t12.5 -5t7 -12t10.5 -19t10.5 -19t7 -13z" />
    <glyph glyph-name="Otilde" unicode="&#xd5;" 
d="M512 328q-8 -92 -36 -184.5t-72 -166.5t-101.5 -120.5t-123.5 -46.5q-9 0 -27 3.5t-38.5 15.5t-41.5 35.5t-36.5 63t-22.5 98t0 141.5q11 131 48 238t84.5 183t98 117.5t89.5 41.5q16 0 26 -6.5t16 -15.5q7 2 15.5 3t19.5 1q28 0 50.5 -29t36.5 -82t18.5 -127t-3.5 -163z
M182 -134q38 0 78 39t74 106t58.5 156t33.5 188q3 40 3.5 95t-4.5 105.5t-16 85.5t-29 35q-12 -1 -25 -8q-12 -6 -25.5 -19t-27.5 -37q-4 4 -8 14q-2 4 -3 9q-2 3 -2 7.5t-1 9.5q-19 -21 -46.5 -60.5t-54 -98.5t-48.5 -138t-31 -181q-7 -90 -3 -149.5t15 -94.5t27.5 -49.5
t34.5 -14.5zM515 891q17 -10 17 -32q0 -12 -7.5 -23.5t-20.5 -20t-31.5 -12.5t-39.5 -1q-22 3 -39.5 9t-32 10.5t-28 6t-29.5 -4.5l-18 -8q-8 -4 -16 -8.5t-15 -9.5q-9 2 -17 9q-3 3 -5 6q-4 6 -6 12q-2 5 -2.5 10.5t2.5 10.5q12 15 29.5 23t33.5 11q19 4 39 3
q26 -1 42.5 -6t30 -10t27.5 -8t36 0q7 1 16 5q7 4 16 10.5t18 17.5z" />
    <glyph glyph-name="Odieresis" unicode="&#xd6;" 
d="M512 328q-8 -92 -36 -184.5t-72 -166.5t-101.5 -120.5t-123.5 -46.5q-9 0 -27 3.5t-38.5 15.5t-41.5 35.5t-36.5 63t-22.5 98t0 141.5q11 131 48 238t84.5 183t98 117.5t89.5 41.5q16 0 26 -6.5t16 -15.5q7 2 15.5 3t19.5 1q28 0 50.5 -29t36.5 -82t18.5 -127t-3.5 -163z
M182 -134q38 0 78 39t74 106t58.5 156t33.5 188q3 40 3.5 95t-4.5 105.5t-16 85.5t-29 35q-12 -1 -25 -8q-12 -6 -25.5 -19t-27.5 -37q-4 4 -8 14q-2 4 -3 9q-2 3 -2 7.5t-1 9.5q-19 -21 -46.5 -60.5t-54 -98.5t-48.5 -138t-31 -181q-7 -90 -3 -149.5t15 -94.5t27.5 -49.5
t34.5 -14.5zM452 798q-20 0 -28.5 8t-8.5 21q0 19 21 33.5t47 14.5q24 0 33.5 -8t9.5 -22q0 -11 -7 -19.5t-18 -14.5t-24 -9.5t-25 -3.5zM371 851q0 -19 -22 -37t-58 -18q-18 0 -24 8.5t-6 17.5q0 18 17.5 36.5t51.5 18.5q16 0 28.5 -5t12.5 -21z" />
    <glyph glyph-name="multiply" unicode="&#xd7;" horiz-adv-x="281" 
d="M221 196q0 -2 -2 -8t-5 -12t-6.5 -11.5t-5.5 -6.5q-5 -2 -7 -1.5t-5 1.5q-11 2 -20.5 9.5t-17.5 18.5t-13.5 23t-8.5 23q-4 15 -12 39q-16 -17 -33 -35q-15 -17 -33 -35.5t-36 -38.5q-7 -1 -13 0.5l-10 2.5q-4 2 -8 5q-3 3 -5 6q-3 3 -4 6.5t-1 7.5q23 26 45.5 51.5
t39.5 46.5q21 24 40 45q-10 32 -18 60t-12 40q-8 23 -17.5 38.5t-23.5 22.5q8 8 19.5 12.5t21.5 6.5q12 3 24 3q18 0 29 -31.5t25 -89.5q0 -2 0.5 -2.5t0.5 -2.5q35 40 61 69.5t28 31.5q16 18 28.5 21t23.5 -5q5 -3 11 -6q5 -4 11 -7t14 -6q-14 -13 -30.5 -29.5t-30.5 -31.5
l-34 -36q-13 -13 -29 -31t-36 -38q10 -35 20.5 -66t22.5 -45q5 -7 8 -8.5t4 -6.5z" />
    <glyph glyph-name="Oslash" unicode="&#xd8;" horiz-adv-x="598" 
d="M547 755q31 7 42 5t9 -7q-6 -10 -29.5 -49t-57.5 -96q13 -52 17 -123t-3 -157q-8 -92 -36 -184.5t-72.5 -166.5t-102 -120.5t-123.5 -46.5q-12 0 -37.5 6.5t-52.5 30.5l-15 -33q-16 -9 -31 -14t-26 -7q-13 -3 -25 -3q-25 0 -28 6t6 23q2 5 19.5 36t43.5 79
q-14 40 -20 96.5t1 136.5q11 131 47.5 238t84 183t98.5 117.5t90 41.5q16 0 25.5 -6.5t15.5 -15.5q8 2 16 3t19 1q27 0 49 -28q7 11 12.5 19.5t13.5 15t20 11t30 8.5zM326 677v0v0zM120 174q-2 -32 -3.5 -60.5t-1.5 -52.5q26 46 55 99q27 48 59 105t68 122l130 234
q-6 25 -14.5 40t-19.5 15q-12 -1 -25 -8q-12 -6 -26 -19t-28 -37q-4 4 -8 14q-2 4 -3 9t-3 17q-19 -21 -46 -60.5t-54 -98.5t-49 -138t-31 -181zM438 355q2 27 3 62t0 72q-27 -46 -55.5 -95t-55.5 -97t-51 -92.5t-43 -82.5q-33 -64 -58 -114t-42 -87q11 -30 26 -42.5
t32 -12.5q38 0 78 39t74 106t58.5 156t33.5 188z" />
    <glyph glyph-name="Ugrave" unicode="&#xd9;" horiz-adv-x="574" 
d="M10 -9q2 63 18 160q14 89 43.5 215t86.5 308q5 10 15.5 16.5t21.5 11.5q12 5 26 8t27 5q11 1 22 1.5t19 -1.5q-34 -86 -58 -156t-40 -120q-19 -59 -31 -106q-16 -49 -28 -98t-19.5 -92t-10.5 -77.5t-3 -53.5q1 -59 19.5 -92.5t60.5 -33.5q35 0 66 33t56.5 81.5t44 104
t28.5 99.5q2 5 2.5 10.5t1.5 11.5v0v0q13 61 31 135q16 68 37 151.5t49 184.5q8 8 17.5 13t17.5 8q10 3 20 5t20 2t21 -1.5t23 -5.5q-19 -52 -37.5 -109.5t-33.5 -106.5q-17 -57 -33 -112q-22 -70 -36 -126.5t-22.5 -103.5t-13 -88t-7.5 -80q-2 -30 -1 -58q1 -26 6.5 -50
t17.5 -40q-5 -6 -14.5 -9.5t-18.5 -5.5q-11 -2 -23 -2q-25 0 -37 32t-13 101q-8 -15 -24.5 -39.5t-41.5 -47.5t-58 -39.5t-75 -16.5q-41 0 -68 14t-42.5 38t-22 55.5t-6.5 66.5zM371 886q6 -3 21 -13.5t32 -23.5t32 -26t20 -22q11 -18 2.5 -27t-18.5 -15q-42 22 -69.5 37
t-45.5 24l-32 16q-9 5 -7 18t13 25q15 15 27 14.5t25 -7.5z" />
    <glyph glyph-name="Uacute" unicode="&#xda;" horiz-adv-x="574" 
d="M10 -9q2 63 18 160q14 89 43.5 215t86.5 308q5 10 15.5 16.5t21.5 11.5q12 5 26 8t27 5q11 1 22 1.5t19 -1.5q-34 -86 -58 -156t-40 -120q-19 -59 -31 -106q-16 -49 -28 -98t-19.5 -92t-10.5 -77.5t-3 -53.5q1 -59 19.5 -92.5t60.5 -33.5q35 0 66 33t56.5 81.5t44 104
t28.5 99.5q2 5 2.5 10.5t1.5 11.5v0v0q13 61 31 135q16 68 37 151.5t49 184.5q8 8 17.5 13t17.5 8q10 3 20 5t20 2t21 -1.5t23 -5.5q-19 -52 -37.5 -109.5t-33.5 -106.5q-17 -57 -33 -112q-22 -70 -36 -126.5t-22.5 -103.5t-13 -88t-7.5 -80q-2 -30 -1 -58q1 -26 6.5 -50
t17.5 -40q-5 -6 -14.5 -9.5t-18.5 -5.5q-11 -2 -23 -2q-25 0 -37 32t-13 101q-8 -15 -24.5 -39.5t-41.5 -47.5t-58 -39.5t-75 -16.5q-41 0 -68 14t-42.5 38t-22 55.5t-6.5 66.5zM492 890q8 6 19 -1.5t16 -23.5q7 -20 1 -30.5t-18 -18.5q-6 -4 -22 -13t-35 -18.5t-37.5 -16.5
t-28.5 -8q-21 -2 -25.5 10t-5.5 23q39 27 65 45.5t42 30.5q18 13 29 21z" />
    <glyph glyph-name="Ucircumflex" unicode="&#xdb;" horiz-adv-x="574" 
d="M10 -9q2 63 18 160q14 89 43.5 215t86.5 308q5 10 15.5 16.5t21.5 11.5q12 5 26 8t27 5q11 1 22 1.5t19 -1.5q-34 -86 -58 -156t-40 -120q-19 -59 -31 -106q-16 -49 -28 -98t-19.5 -92t-10.5 -77.5t-3 -53.5q1 -59 19.5 -92.5t60.5 -33.5q35 0 66 33t56.5 81.5t44 104
t28.5 99.5q2 5 2.5 10.5t1.5 11.5v0v0q13 61 31 135q16 68 37 151.5t49 184.5q8 8 17.5 13t17.5 8q10 3 20 5t20 2t21 -1.5t23 -5.5q-19 -52 -37.5 -109.5t-33.5 -106.5q-17 -57 -33 -112q-22 -70 -36 -126.5t-22.5 -103.5t-13 -88t-7.5 -80q-2 -30 -1 -58q1 -26 6.5 -50
t17.5 -40q-5 -6 -14.5 -9.5t-18.5 -5.5q-11 -2 -23 -2q-25 0 -37 32t-13 101q-8 -15 -24.5 -39.5t-41.5 -47.5t-58 -39.5t-75 -16.5q-41 0 -68 14t-42.5 38t-22 55.5t-6.5 66.5zM517 827q9 -14 17 -24.5t20 -16.5q-7 -4 -17 -5.5t-20 -1.5q-12 0 -24 2q-18 3 -30.5 15
t-29.5 49q0 1 -0.5 1.5t-0.5 1.5q-36 -29 -49.5 -40t-15.5 -13q-16 -14 -31.5 -12t-29.5 1h-12q-5 0 -10.5 -0.5t-10.5 -1.5q5 4 17 13.5t24 19.5q14 12 31 25q6 5 16 12.5t20 15.5t18.5 14.5t11.5 8.5q3 3 13.5 4.5t22.5 1.5t22.5 -2t12.5 -5t7 -12t10.5 -19t10.5 -19
t7 -13z" />
    <glyph glyph-name="Udieresis" unicode="&#xdc;" horiz-adv-x="574" 
d="M10 -9q2 63 18 160q14 89 43.5 215t86.5 308q5 10 15.5 16.5t21.5 11.5q12 5 26 8t27 5q11 1 22 1.5t19 -1.5q-34 -86 -58 -156t-40 -120q-19 -59 -31 -106q-16 -49 -28 -98t-19.5 -92t-10.5 -77.5t-3 -53.5q1 -59 19.5 -92.5t60.5 -33.5q35 0 66 33t56.5 81.5t44 104
t28.5 99.5q2 5 2.5 10.5t1.5 11.5v0v0q13 61 31 135q16 68 37 151.5t49 184.5q8 8 17.5 13t17.5 8q10 3 20 5t20 2t21 -1.5t23 -5.5q-19 -52 -37.5 -109.5t-33.5 -106.5q-17 -57 -33 -112q-22 -70 -36 -126.5t-22.5 -103.5t-13 -88t-7.5 -80q-2 -30 -1 -58q1 -26 6.5 -50
t17.5 -40q-5 -6 -14.5 -9.5t-18.5 -5.5q-11 -2 -23 -2q-25 0 -37 32t-13 101q-8 -15 -24.5 -39.5t-41.5 -47.5t-58 -39.5t-75 -16.5q-41 0 -68 14t-42.5 38t-22 55.5t-6.5 66.5zM472 788q-20 0 -28.5 8t-8.5 21q0 19 21 33.5t47 14.5q24 0 33.5 -8t9.5 -22q0 -11 -7 -19.5
t-18 -14.5t-24 -9.5t-25 -3.5zM391 841q0 -19 -22 -37t-58 -18q-18 0 -24 8.5t-6 17.5q0 18 17.5 36.5t51.5 18.5q16 0 28.5 -5t12.5 -21z" />
    <glyph glyph-name="Yacute" unicode="&#xdd;" horiz-adv-x="532" 
d="M153 75q-66 0 -95.5 42t-24.5 113q4 45 17 113q11 61 33 148.5t60 213.5q12 8 24 12.5t22 6.5q11 3 22 4q10 1 19 1q8 0 15.5 -1.5t12.5 -5.5q-50 -128 -78 -218.5t-41 -149.5q-17 -68 -21 -113q-3 -54 16 -76t57 -22q30 0 61.5 23t61 65.5t54.5 102.5t42 135l18 84
q8 39 17.5 79t18.5 76q9 8 19 12.5t19 7.5q11 3 21 4t20 0q8 -1 16 -2.5t13 -6.5q-16 -52 -28.5 -94t-21.5 -72l-18 -63q-7 -29 -19 -76q-11 -43 -26 -105t-38 -153q-6 -24 -14.5 -58.5t-23 -73t-35.5 -76t-52 -68t-72.5 -49t-97.5 -18.5q-31 1 -57 10q-24 7 -42.5 22.5
t-21.5 44.5q5 10 11 19.5t12 16.5q6 9 13 16t15 13q7 5 14.5 9t15.5 4q4 -9 12 -21t19.5 -22t26 -17t32.5 -7q24 0 49.5 15t51.5 52t51 99.5t46 157.5q-12 -22 -31.5 -49t-47 -50t-63 -39t-79.5 -16zM452 890q8 6 19 -1.5t16 -23.5q7 -20 1 -30.5t-18 -18.5q-6 -4 -22 -13
t-35 -18.5t-37.5 -16.5t-28.5 -8q-21 -2 -25.5 10t-5.5 23q39 27 65 45.5t42 30.5q18 13 29 21z" />
    <glyph glyph-name="Thorn" unicode="&#xde;" horiz-adv-x="569" 
d="M538 335q-6 -56 -36.5 -117.5t-86 -113t-137 -85.5t-188.5 -35q-5 -28 -9 -54q-3 -24 -6.5 -47.5t-5.5 -40.5q-15 -8 -29 -12.5t-25 -6.5q-12 -3 -23 -3q-23 0 -28.5 5.5t-1.5 21.5q3 13 17 74q8 31 16.5 68t21.5 91.5t30.5 127.5t39.5 169l6 23q-6 -6 -13 -12l-12 -12
t-11 -12q-7 6 -12 12.5t-8 12.5l-6 12q-6 15 -6 30.5t24 32.5q10 7 27 18t42 24l38 161q5 23 17.5 34t45.5 19q27 7 38 5.5t9 -6.5q-3 -11 -16 -59t-32 -116q29 8 63 12.5t72 4.5q62 0 99.5 -24.5t57.5 -59.5t25.5 -74t2.5 -68zM97 29q44 2 100 20t108 55t90.5 95.5
t46.5 141.5q5 49 -5.5 81.5t-30 52t-45 28t-50.5 8.5q-28 0 -56 -9t-54 -23q-12 -44 -24 -90.5t-23.5 -92t-21 -88t-16.5 -78.5q-5 -28 -9.5 -53t-9.5 -48z" />
    <glyph glyph-name="germandbls" unicode="&#xdf;" horiz-adv-x="495" 
d="M311 345q2 -17 18.5 -42.5t38.5 -57.5q11 -16 25 -35.5t26 -39t20 -37t6 -28.5q-3 -16 -16.5 -39.5t-35 -45.5t-48.5 -37.5t-56 -15.5q-21 0 -40 13t-32 29.5t-19 33.5t-2 25q6 12 11 19t15 16q4 3 10 6t14 6.5t20 6.5q9 -30 16.5 -47.5t13.5 -26.5q6 -11 11 -15
q6 -4 15 -4t18 4t17.5 11t12.5 18q5 11 -2.5 30.5t-19.5 43t-26 47t-23 41.5q-17 37 -32 63.5t-19 54.5q-1 13 8.5 37t23 53t27 59.5t20.5 55t4 40.5t-24 16t-39.5 -9.5t-33.5 -26t-26.5 -37.5t-19.5 -44q-10 -28 -27 -77l-37.5 -115t-56.5 -176q57 -40 87 -82t44 -77
q17 -41 19 -80q0 -65 -27 -129t-68 -114t-89.5 -80t-91.5 -26q-21 2 -34 13.5t-19.5 28.5t-7 38t2.5 41q2 13 9.5 44.5l17.5 73.5t22.5 90.5t24.5 95t23 87.5t18 67q-18 11 -35.5 19t-31.5 14q-16 6 -22 14t-4 14t11.5 8.5t25.5 -2.5q26 -6 67 -25q19 67 37.5 133t41.5 147
q32 110 81 170t130 60q20 0 39.5 -8t34.5 -23t24 -35t9 -44q0 -29 -15.5 -61.5t-33.5 -61.5t-32.5 -51.5t-13.5 -31.5zM135 -53q-8 21 -20 42q-10 19 -25 40t-37 40q-14 -53 -25 -97t-18 -76q-9 -38 -15 -68q-9 -37 -18 -73t-14.5 -64.5t-4.5 -46.5t13 -18q28 -2 59 22
t56.5 60.5t42.5 79t17 78.5q0 20 -1.5 40.5t-9.5 40.5z" />
    <glyph glyph-name="agrave" unicode="&#xe0;" horiz-adv-x="436" 
d="M501 194q-14 -19 -35.5 -48t-44.5 -58t-44.5 -53t-36.5 -33q-20 -13 -48.5 -15.5t-45.5 10.5q-8 7 -14 20q-6 11 -10 28.5t-3 43.5q-23 -39 -51.5 -60t-53.5 -31q-30 -11 -59 -13q-14 0 -29.5 9.5t-26 29.5t-14 51.5t7.5 75.5q14 60 44 109t64.5 83.5t69 52t57.5 15.5
q27 -4 43 -16q14 -10 18 -28.5t-17 -50.5q15 3 23.5 4t13.5 1q6 0 8 -1t1.5 -8t-3.5 -23t-9 -44.5t-15 -73.5q-2 -9 -3.5 -16t-3 -14.5t-3.5 -17t-5 -24.5q-1 -9 -0.5 -19t3.5 -19t9.5 -14.5t18.5 -5.5q15 0 41 26t54 59.5t51.5 64.5t32.5 42q8 9 16 10.5t11.5 -4.5
t1.5 -17.5t-14 -27.5zM215 151q5 20 11.5 46.5t12 50.5t7.5 40.5t-2 15.5q-5 -1 -11 -3q-5 -1 -12 -2.5t-16 -3.5q8 15 9.5 25.5t1.5 16.5q-1 7 -5 11q-11 8 -38 -15t-62 -84q-15 -25 -23.5 -54t-12 -54.5t-1.5 -44.5t8 -25q16 -16 38 -8t42.5 25t35.5 36.5t17 26.5z
M191 596q6 -3 21 -13.5t32 -23.5t32 -26t20 -22q11 -18 2.5 -27t-18.5 -15q-42 22 -69.5 37t-45.5 24l-32 16q-9 5 -7 18t13 25q15 15 27 14.5t25 -7.5z" />
    <glyph glyph-name="aacute" unicode="&#xe1;" horiz-adv-x="436" 
d="M501 194q-14 -19 -35.5 -48t-44.5 -58t-44.5 -53t-36.5 -33q-20 -13 -48.5 -15.5t-45.5 10.5q-8 7 -14 20q-6 11 -10 28.5t-3 43.5q-23 -39 -51.5 -60t-53.5 -31q-30 -11 -59 -13q-14 0 -29.5 9.5t-26 29.5t-14 51.5t7.5 75.5q14 60 44 109t64.5 83.5t69 52t57.5 15.5
q27 -4 43 -16q14 -10 18 -28.5t-17 -50.5q15 3 23.5 4t13.5 1q6 0 8 -1t1.5 -8t-3.5 -23t-9 -44.5t-15 -73.5q-2 -9 -3.5 -16t-3 -14.5t-3.5 -17t-5 -24.5q-1 -9 -0.5 -19t3.5 -19t9.5 -14.5t18.5 -5.5q15 0 41 26t54 59.5t51.5 64.5t32.5 42q8 9 16 10.5t11.5 -4.5
t1.5 -17.5t-14 -27.5zM215 151q5 20 11.5 46.5t12 50.5t7.5 40.5t-2 15.5q-5 -1 -11 -3q-5 -1 -12 -2.5t-16 -3.5q8 15 9.5 25.5t1.5 16.5q-1 7 -5 11q-11 8 -38 -15t-62 -84q-15 -25 -23.5 -54t-12 -54.5t-1.5 -44.5t8 -25q16 -16 38 -8t42.5 25t35.5 36.5t17 26.5z
M282 600q8 6 19 -1.5t16 -23.5q7 -20 1 -30.5t-18 -18.5q-6 -4 -22 -13t-35 -18.5t-37.5 -16.5t-28.5 -8q-21 -2 -25.5 10t-5.5 23q39 27 65 45.5t42 30.5q18 13 29 21z" />
    <glyph glyph-name="acircumflex" unicode="&#xe2;" horiz-adv-x="436" 
d="M501 194q-14 -19 -35.5 -48t-44.5 -58t-44.5 -53t-36.5 -33q-20 -13 -48.5 -15.5t-45.5 10.5q-8 7 -14 20q-6 11 -10 28.5t-3 43.5q-23 -39 -51.5 -60t-53.5 -31q-30 -11 -59 -13q-14 0 -29.5 9.5t-26 29.5t-14 51.5t7.5 75.5q14 60 44 109t64.5 83.5t69 52t57.5 15.5
q27 -4 43 -16q14 -10 18 -28.5t-17 -50.5q15 3 23.5 4t13.5 1q6 0 8 -1t1.5 -8t-3.5 -23t-9 -44.5t-15 -73.5q-2 -9 -3.5 -16t-3 -14.5t-3.5 -17t-5 -24.5q-1 -9 -0.5 -19t3.5 -19t9.5 -14.5t18.5 -5.5q15 0 41 26t54 59.5t51.5 64.5t32.5 42q8 9 16 10.5t11.5 -4.5
t1.5 -17.5t-14 -27.5zM215 151q5 20 11.5 46.5t12 50.5t7.5 40.5t-2 15.5q-5 -1 -11 -3q-5 -1 -12 -2.5t-16 -3.5q8 15 9.5 25.5t1.5 16.5q-1 7 -5 11q-11 8 -38 -15t-62 -84q-15 -25 -23.5 -54t-12 -54.5t-1.5 -44.5t8 -25q16 -16 38 -8t42.5 25t35.5 36.5t17 26.5z
M327 517q9 -14 17 -24.5t20 -16.5q-7 -4 -17 -5.5t-20 -1.5q-12 0 -24 2q-18 3 -30.5 15t-29.5 49q0 1 -0.5 1.5t-0.5 1.5q-36 -29 -49.5 -40t-15.5 -13q-16 -14 -31.5 -12t-29.5 1h-12q-5 0 -10.5 -0.5t-10.5 -1.5q5 4 17 13.5t24 19.5q14 12 31 25q6 5 16 12.5t20 15.5
t18.5 14.5t11.5 8.5q3 3 13.5 4.5t22.5 1.5t22.5 -2t12.5 -5t7 -12t10.5 -19t10.5 -19t7 -13z" />
    <glyph glyph-name="atilde" unicode="&#xe3;" horiz-adv-x="436" 
d="M501 194q-14 -19 -35.5 -48t-44.5 -58t-44.5 -53t-36.5 -33q-20 -13 -48.5 -15.5t-45.5 10.5q-8 7 -14 20q-6 11 -10 28.5t-3 43.5q-23 -39 -51.5 -60t-53.5 -31q-30 -11 -59 -13q-14 0 -29.5 9.5t-26 29.5t-14 51.5t7.5 75.5q14 60 44 109t64.5 83.5t69 52t57.5 15.5
q27 -4 43 -16q14 -10 18 -28.5t-17 -50.5q15 3 23.5 4t13.5 1q6 0 8 -1t1.5 -8t-3.5 -23t-9 -44.5t-15 -73.5q-2 -9 -3.5 -16t-3 -14.5t-3.5 -17t-5 -24.5q-1 -9 -0.5 -19t3.5 -19t9.5 -14.5t18.5 -5.5q15 0 41 26t54 59.5t51.5 64.5t32.5 42q8 9 16 10.5t11.5 -4.5
t1.5 -17.5t-14 -27.5zM215 151q5 20 11.5 46.5t12 50.5t7.5 40.5t-2 15.5q-5 -1 -11 -3q-5 -1 -12 -2.5t-16 -3.5q8 15 9.5 25.5t1.5 16.5q-1 7 -5 11q-11 8 -38 -15t-62 -84q-15 -25 -23.5 -54t-12 -54.5t-1.5 -44.5t8 -25q16 -16 38 -8t42.5 25t35.5 36.5t17 26.5z
M365 561q17 -10 17 -32q0 -12 -7.5 -23.5t-20.5 -20t-31.5 -12.5t-39.5 -1q-22 3 -39.5 9t-32 10.5t-28 6t-29.5 -4.5l-18 -8q-8 -4 -16 -8.5t-15 -9.5q-9 2 -17 9q-3 3 -5 6q-4 6 -6 12q-2 5 -2.5 10.5t2.5 10.5q12 15 29.5 23t33.5 11q19 4 39 3q26 -1 42.5 -6t30 -10
t27.5 -8t36 0q7 1 16 5q7 4 16 10.5t18 17.5z" />
    <glyph glyph-name="adieresis" unicode="&#xe4;" horiz-adv-x="436" 
d="M501 194q-14 -19 -35.5 -48t-44.5 -58t-44.5 -53t-36.5 -33q-20 -13 -48.5 -15.5t-45.5 10.5q-8 7 -14 20q-6 11 -10 28.5t-3 43.5q-23 -39 -51.5 -60t-53.5 -31q-30 -11 -59 -13q-14 0 -29.5 9.5t-26 29.5t-14 51.5t7.5 75.5q14 60 44 109t64.5 83.5t69 52t57.5 15.5
q27 -4 43 -16q14 -10 18 -28.5t-17 -50.5q15 3 23.5 4t13.5 1q6 0 8 -1t1.5 -8t-3.5 -23t-9 -44.5t-15 -73.5q-2 -9 -3.5 -16t-3 -14.5t-3.5 -17t-5 -24.5q-1 -9 -0.5 -19t3.5 -19t9.5 -14.5t18.5 -5.5q15 0 41 26t54 59.5t51.5 64.5t32.5 42q8 9 16 10.5t11.5 -4.5
t1.5 -17.5t-14 -27.5zM215 151q5 20 11.5 46.5t12 50.5t7.5 40.5t-2 15.5q-5 -1 -11 -3q-5 -1 -12 -2.5t-16 -3.5q8 15 9.5 25.5t1.5 16.5q-1 7 -5 11q-11 8 -38 -15t-62 -84q-15 -25 -23.5 -54t-12 -54.5t-1.5 -44.5t8 -25q16 -16 38 -8t42.5 25t35.5 36.5t17 26.5z
M312 468q-20 0 -28.5 8t-8.5 21q0 19 21 33.5t47 14.5q24 0 33.5 -8t9.5 -22q0 -11 -7 -19.5t-18 -14.5t-24 -9.5t-25 -3.5zM231 521q0 -19 -22 -37t-58 -18q-18 0 -24 8.5t-6 17.5q0 18 17.5 36.5t51.5 18.5q16 0 28.5 -5t12.5 -21z" />
    <glyph glyph-name="aring" unicode="&#xe5;" horiz-adv-x="436" 
d="M501 194q-14 -19 -35.5 -48t-44.5 -58t-44.5 -53t-36.5 -33q-20 -13 -48.5 -15.5t-45.5 10.5q-8 7 -14 20q-6 11 -10 28.5t-3 43.5q-23 -39 -51.5 -60t-53.5 -31q-30 -11 -59 -13q-14 0 -29.5 9.5t-26 29.5t-14 51.5t7.5 75.5q14 60 44 109t64.5 83.5t69 52t57.5 15.5
q27 -4 43 -16q14 -10 18 -28.5t-17 -50.5q15 3 23.5 4t13.5 1q6 0 8 -1t1.5 -8t-3.5 -23t-9 -44.5t-15 -73.5q-2 -9 -3.5 -16t-3 -14.5t-3.5 -17t-5 -24.5q-1 -9 -0.5 -19t3.5 -19t9.5 -14.5t18.5 -5.5q15 0 41 26t54 59.5t51.5 64.5t32.5 42q8 9 16 10.5t11.5 -4.5
t1.5 -17.5t-14 -27.5zM215 151q5 20 11.5 46.5t12 50.5t7.5 40.5t-2 15.5q-5 -1 -11 -3q-5 -1 -12 -2.5t-16 -3.5q8 15 9.5 25.5t1.5 16.5q-1 7 -5 11q-11 8 -38 -15t-62 -84q-15 -25 -23.5 -54t-12 -54.5t-1.5 -44.5t8 -25q16 -16 38 -8t42.5 25t35.5 36.5t17 26.5z
M231 571q35 0 47.5 -17t12.5 -34q0 -10 -4.5 -22.5t-13.5 -23.5t-22.5 -18t-30.5 -7q-20 0 -32.5 5t-19.5 13t-9.5 17.5t-2.5 18.5q0 26 22.5 47t52.5 21zM222 484q13 0 19.5 11t6.5 19t-4.5 15t-17.5 7q-11 0 -19 -9t-8 -20q0 -8 4.5 -15.5t18.5 -7.5z" />
    <glyph glyph-name="ae" unicode="&#xe6;" horiz-adv-x="595" 
d="M222 84q-7 -12 -21 -29t-34.5 -32.5t-48.5 -26.5t-63 -11q-14 0 -29.5 9.5t-26 29.5t-14 51.5t7.5 75.5q14 60 44 109t64.5 83.5t69 52t57.5 15.5q33 -3 45.5 -15.5t14 -27.5t-4.5 -29t-9 -20l10 2l10 2q31 38 69.5 62t78.5 24q37 0 53.5 -18.5t13.5 -45.5
q-3 -30 -17 -55.5t-33 -46t-41 -37t-42 -30.5q-21 -15 -41 -28t-35 -24q3 -48 29 -67.5t58 -19.5t68 20.5t70 50t64 62t51 56.5q7 8 14.5 9.5t12 -2t5 -11t-6.5 -18.5q-29 -42 -66.5 -83t-79 -73t-85 -51.5t-84.5 -19.5q-17 0 -36 6t-37 19t-32.5 33.5t-22.5 48.5zM413 354
q-12 0 -28 -11.5t-31.5 -33.5t-28.5 -54t-20 -73q11 8 24.5 17.5t28.5 20.5q42 32 58 56.5t18 41.5q4 36 -21 36zM82 71q14 -14 32.5 -10.5t37 16.5t35 30.5t27.5 32.5q0 23 4 48.5t9 49t10 41.5t6 24l-10 -2q-6 -2 -12.5 -3t-15.5 -3q8 15 9.5 25.5t1.5 16.5q-1 7 -5 11
q-11 8 -38 -15t-62 -84q-15 -25 -23.5 -54t-12 -54.5t-1.5 -44.5t8 -25z" />
    <glyph glyph-name="ccedilla" unicode="&#xe7;" horiz-adv-x="363" 
d="M123 -72q54 2 79.5 -16t20.5 -49q-2 -17 -15 -32t-33 -27.5t-46.5 -21t-56.5 -11.5q-13 -2 -19.5 2t-7 10t5.5 11.5t19 8.5q32 8 55.5 21.5t26.5 30.5q2 17 -17.5 26.5t-52.5 6.5q-26 -2 -23 19q0 3 4 13t8.5 22t9 23t7.5 17q-28 9 -47 27t-30.5 40.5t-16 48.5t-4.5 51
q0 30 14 75t41 87t68 71.5t96 29.5q31 0 53 -21.5t21 -58.5q0 -18 -5.5 -35t-15.5 -30t-23 -21t-29 -8q-13 0 -19 9.5t-7.5 22t0 24t3.5 15.5q4 6 10 9l14 7q6 3 9 9t3 12.5t-3.5 11.5t-12.5 5t-31.5 -14t-46.5 -41.5t-43 -69.5t-20 -98q-1 -32 8.5 -52.5t24.5 -32.5t33 -17
t34 -5q30 0 67 24t71.5 56.5t63 66t43.5 53.5q9 13 17 15.5t12 -2.5t3 -15t-9 -23q-10 -17 -39 -54.5t-68 -76t-85.5 -69t-93.5 -33.5q-8 -14 -25 -47z" />
    <glyph glyph-name="egrave" unicode="&#xe8;" horiz-adv-x="372" 
d="M442 203q-29 -42 -66.5 -83t-78.5 -72.5t-84.5 -51t-84.5 -19.5q-21 0 -46 10t-45.5 31.5t-33 56t-7.5 82.5q4 40 25 84.5t52 81.5t69.5 61.5t77.5 24.5q38 0 54 -18.5t14 -45.5q-3 -30 -17 -55.5t-33.5 -46t-41.5 -37t-42 -30.5q-21 -15 -40.5 -28t-34.5 -24
q2 -48 28.5 -67.5t57.5 -19.5q33 0 69.5 21t71 51t64 62.5t49.5 55.5q7 8 14 9.5t11.5 -2.5t5 -12t-7.5 -19zM192 354q-12 0 -28 -11.5t-31.5 -33.5t-29 -54t-20.5 -73q12 8 25.5 17.5t27.5 20.5q42 32 58.5 56.5t18.5 41.5q2 19 -4 27.5t-17 8.5zM181 596q6 -3 21 -13.5
t32 -23.5t32 -26t20 -22q11 -18 2.5 -27t-18.5 -15q-42 22 -69.5 37t-45.5 24l-32 16q-9 5 -7 18t13 25q15 15 27 14.5t25 -7.5z" />
    <glyph glyph-name="eacute" unicode="&#xe9;" horiz-adv-x="372" 
d="M442 203q-29 -42 -66.5 -83t-78.5 -72.5t-84.5 -51t-84.5 -19.5q-21 0 -46 10t-45.5 31.5t-33 56t-7.5 82.5q4 40 25 84.5t52 81.5t69.5 61.5t77.5 24.5q38 0 54 -18.5t14 -45.5q-3 -30 -17 -55.5t-33.5 -46t-41.5 -37t-42 -30.5q-21 -15 -40.5 -28t-34.5 -24
q2 -48 28.5 -67.5t57.5 -19.5q33 0 69.5 21t71 51t64 62.5t49.5 55.5q7 8 14 9.5t11.5 -2.5t5 -12t-7.5 -19zM192 354q-12 0 -28 -11.5t-31.5 -33.5t-29 -54t-20.5 -73q12 8 25.5 17.5t27.5 20.5q42 32 58.5 56.5t18.5 41.5q2 19 -4 27.5t-17 8.5zM272 600q8 6 19 -1.5
t16 -23.5q7 -20 1 -30.5t-18 -18.5q-6 -4 -22 -13t-35 -18.5t-37.5 -16.5t-28.5 -8q-21 -2 -25.5 10t-5.5 23q39 27 65 45.5t42 30.5q18 13 29 21z" />
    <glyph glyph-name="ecircumflex" unicode="&#xea;" horiz-adv-x="372" 
d="M442 203q-29 -42 -66.5 -83t-78.5 -72.5t-84.5 -51t-84.5 -19.5q-21 0 -46 10t-45.5 31.5t-33 56t-7.5 82.5q4 40 25 84.5t52 81.5t69.5 61.5t77.5 24.5q38 0 54 -18.5t14 -45.5q-3 -30 -17 -55.5t-33.5 -46t-41.5 -37t-42 -30.5q-21 -15 -40.5 -28t-34.5 -24
q2 -48 28.5 -67.5t57.5 -19.5q33 0 69.5 21t71 51t64 62.5t49.5 55.5q7 8 14 9.5t11.5 -2.5t5 -12t-7.5 -19zM192 354q-12 0 -28 -11.5t-31.5 -33.5t-29 -54t-20.5 -73q12 8 25.5 17.5t27.5 20.5q42 32 58.5 56.5t18.5 41.5q2 19 -4 27.5t-17 8.5zM317 517q9 -14 17 -24.5
t20 -16.5q-7 -4 -17 -5.5t-20 -1.5q-12 0 -24 2q-18 3 -30.5 15t-29.5 49q0 1 -0.5 1.5t-0.5 1.5q-36 -29 -49.5 -40t-15.5 -13q-16 -14 -31.5 -12t-29.5 1h-12q-5 0 -10.5 -0.5t-10.5 -1.5q5 4 17 13.5t24 19.5q14 12 31 25q6 5 16 12.5t20 15.5t18.5 14.5t11.5 8.5
q3 3 13.5 4.5t22.5 1.5t22.5 -2t12.5 -5t7 -12t10.5 -19t10.5 -19t7 -13z" />
    <glyph glyph-name="edieresis" unicode="&#xeb;" horiz-adv-x="372" 
d="M442 203q-29 -42 -66.5 -83t-78.5 -72.5t-84.5 -51t-84.5 -19.5q-21 0 -46 10t-45.5 31.5t-33 56t-7.5 82.5q4 40 25 84.5t52 81.5t69.5 61.5t77.5 24.5q38 0 54 -18.5t14 -45.5q-3 -30 -17 -55.5t-33.5 -46t-41.5 -37t-42 -30.5q-21 -15 -40.5 -28t-34.5 -24
q2 -48 28.5 -67.5t57.5 -19.5q33 0 69.5 21t71 51t64 62.5t49.5 55.5q7 8 14 9.5t11.5 -2.5t5 -12t-7.5 -19zM192 354q-12 0 -28 -11.5t-31.5 -33.5t-29 -54t-20.5 -73q12 8 25.5 17.5t27.5 20.5q42 32 58.5 56.5t18.5 41.5q2 19 -4 27.5t-17 8.5zM282 468q-20 0 -28.5 8
t-8.5 21q0 19 21 33.5t47 14.5q24 0 33.5 -8t9.5 -22q0 -11 -7 -19.5t-18 -14.5t-24 -9.5t-25 -3.5zM201 521q0 -19 -22 -37t-58 -18q-18 0 -24 8.5t-6 17.5q0 18 17.5 36.5t51.5 18.5q16 0 28.5 -5t12.5 -21z" />
    <glyph glyph-name="igrave" unicode="&#xec;" horiz-adv-x="274" 
d="M80 367q5 6 18.5 10t28.5 6.5t27 3t14 -0.5t-4.5 -20.5t-15.5 -46t-18.5 -54t-14.5 -45.5t-11.5 -39.5t-12 -43t-7.5 -39.5t3 -29q9 -20 23 -20q20 0 50 21.5t60.5 51t56.5 60.5t39 49q8 11 16.5 13.5t13.5 -1.5t6 -12.5t-6 -20.5q-16 -27 -46 -65t-64.5 -72.5t-67 -59
t-53.5 -25.5q-17 -1 -33 5.5t-29 17.5t-21.5 26t-10.5 32q-2 25 1 67.5t10.5 87t19.5 84t28 59.5zM81 596q6 -3 21 -13.5t32 -23.5t32 -26t20 -22q11 -18 2.5 -27t-18.5 -15q-42 22 -69.5 37t-45.5 24l-32 16q-9 5 -7 18t13 25q15 15 27 14.5t25 -7.5z" />
    <glyph glyph-name="iacute" unicode="&#xed;" horiz-adv-x="274" 
d="M80 367q5 6 18.5 10t28.5 6.5t27 3t14 -0.5t-4.5 -20.5t-15.5 -46t-18.5 -54t-14.5 -45.5t-11.5 -39.5t-12 -43t-7.5 -39.5t3 -29q9 -20 23 -20q20 0 50 21.5t60.5 51t56.5 60.5t39 49q8 11 16.5 13.5t13.5 -1.5t6 -12.5t-6 -20.5q-16 -27 -46 -65t-64.5 -72.5t-67 -59
t-53.5 -25.5q-17 -1 -33 5.5t-29 17.5t-21.5 26t-10.5 32q-2 25 1 67.5t10.5 87t19.5 84t28 59.5zM252 600q8 6 19 -1.5t16 -23.5q7 -20 1 -30.5t-18 -18.5q-6 -4 -22 -13t-35 -18.5t-37.5 -16.5t-28.5 -8q-21 -2 -25.5 10t-5.5 23q39 27 65 45.5t42 30.5q18 13 29 21z" />
    <glyph glyph-name="icircumflex" unicode="&#xee;" horiz-adv-x="274" 
d="M80 367q5 6 18.5 10t28.5 6.5t27 3t14 -0.5t-4.5 -20.5t-15.5 -46t-18.5 -54t-14.5 -45.5t-11.5 -39.5t-12 -43t-7.5 -39.5t3 -29q9 -20 23 -20q20 0 50 21.5t60.5 51t56.5 60.5t39 49q8 11 16.5 13.5t13.5 -1.5t6 -12.5t-6 -20.5q-16 -27 -46 -65t-64.5 -72.5t-67 -59
t-53.5 -25.5q-17 -1 -33 5.5t-29 17.5t-21.5 26t-10.5 32q-2 25 1 67.5t10.5 87t19.5 84t28 59.5zM247 507q9 -14 17 -24.5t20 -16.5q-7 -4 -17 -5.5t-20 -1.5q-12 0 -24 2q-18 3 -30.5 15t-29.5 49q0 1 -0.5 1.5t-0.5 1.5q-36 -29 -49.5 -40t-15.5 -13q-16 -14 -31.5 -12
t-29.5 1h-12q-5 0 -10.5 -0.5t-10.5 -1.5q5 4 17 13.5t24 19.5q14 12 31 25q6 5 16 12.5t20 15.5t18.5 14.5t11.5 8.5q3 3 13.5 4.5t22.5 1.5t22.5 -2t12.5 -5t7 -12t10.5 -19t10.5 -19t7 -13z" />
    <glyph glyph-name="idieresis" unicode="&#xef;" horiz-adv-x="274" 
d="M80 367q5 6 18.5 10t28.5 6.5t27 3t14 -0.5t-4.5 -20.5t-15.5 -46t-18.5 -54t-14.5 -45.5t-11.5 -39.5t-12 -43t-7.5 -39.5t3 -29q9 -20 23 -20q20 0 50 21.5t60.5 51t56.5 60.5t39 49q8 11 16.5 13.5t13.5 -1.5t6 -12.5t-6 -20.5q-16 -27 -46 -65t-64.5 -72.5t-67 -59
t-53.5 -25.5q-17 -1 -33 5.5t-29 17.5t-21.5 26t-10.5 32q-2 25 1 67.5t10.5 87t19.5 84t28 59.5zM212 468q-20 0 -28.5 8t-8.5 21q0 19 21 33.5t47 14.5q24 0 33.5 -8t9.5 -22q0 -11 -7 -19.5t-18 -14.5t-24 -9.5t-25 -3.5zM131 521q0 -19 -22 -37t-58 -18q-18 0 -24 8.5
t-6 17.5q0 18 17.5 36.5t51.5 18.5q16 0 28.5 -5t12.5 -21z" />
    <glyph glyph-name="eth" unicode="&#xf0;" horiz-adv-x="394" 
d="M112 37q18 0 32.5 8t26 21.5t21 31t16.5 35.5q-7 -1 -13.5 -1.5t-13.5 -0.5q-38 0 -64.5 22t-41.5 56q-6 -20 -9.5 -40t-3.5 -37q0 -18 2 -35t7.5 -30.5t15.5 -21.5t25 -8zM232 232q2 19 0 38.5t-7 35.5t-13.5 26.5t-20.5 10.5q-18 0 -35 -10.5t-32 -28.5q-3 -9 -3 -19
q0 -16 1.5 -33t10 -31t25.5 -23t47 -9q5 0 10 0.5t10 1.5q3 13 5 23.5t2 17.5zM396 510q-16 -2 -38.5 -7t-48.5 -11q10 -54 10 -124t-17 -157q57 25 98.5 52.5t64.5 49.5q10 9 17 10t10 -3.5t1 -13.5t-11 -20q-5 -6 -25.5 -24t-48.5 -39t-59.5 -40.5t-59.5 -28.5
q-9 -37 -26 -69t-40 -55t-52 -36.5t-63 -13.5q-40 0 -62.5 17t-34 42.5t-14 56t-2.5 56.5q0 38 17 87.5t49 89.5q11 34 46 50.5t71 16.5q4 0 10 -2q14 -1 31 -8.5t36 -26.5q1 16 1 36q0 17 -0.5 38.5t-3.5 46.5q-8 -2 -23 -6t-33 -10t-38 -13t-38 -16q-2 6 -2.5 13t-0.5 13
t1 13q2 9 6.5 20t9.5 14q6 5 38 14.5t71 18.5q-5 18 -10.5 35.5t-13.5 33.5q-3 6 -5 13.5t0 15.5q3 18 6.5 21t8.5 0q16 -10 33.5 -37t31.5 -72q34 7 59 11t49 6q13 2 16 -4t1 -23q-2 -15 -7 -22t-16 -9z" />
    <glyph glyph-name="ntilde" unicode="&#xf1;" horiz-adv-x="462" 
d="M290 -24q-45 0 -65 29.5t-10 70.5q5 21 17 60.5t20.5 79.5t8.5 69.5t-19 29.5q-16 0 -32.5 -10.5t-33.5 -27.5t-34 -40t-34 -48q-16 -65 -24.5 -102t-15.5 -65q-2 -10 -17 -19t-31.5 -14.5t-29 -6t-10.5 8.5q1 6 6.5 26.5t13 48t15.5 59.5t14 60q5 23 11 50q6 25 13 55.5
t16 66.5q7 6 15 9.5t15 6.5q8 2 16 3q8 0 16 -1q7 -1 14 -3.5t13 -7.5q-3 -6 -7 -18.5t-8 -25.5q-4 -16 -9 -33q13 18 29 36t35 32.5t40.5 24t43.5 9.5q19 0 33.5 -11t23 -30t9.5 -45.5t-7 -57.5q-4 -19 -10 -43q-6 -21 -13.5 -48t-17.5 -61q-6 -22 -4.5 -37.5t18.5 -15.5
q18 0 45 22t54.5 52t51.5 61.5t37 51.5q8 12 16 16t12.5 1t4.5 -13t-8 -26q-10 -21 -36.5 -59.5t-60 -76t-71 -65.5t-69.5 -28zM375 551q17 -10 17 -32q0 -12 -7.5 -23.5t-20.5 -20t-31.5 -12.5t-39.5 -1q-22 3 -39.5 9t-32 10.5t-28 6t-29.5 -4.5l-18 -8q-8 -4 -16 -8.5
t-15 -9.5q-9 2 -17 9q-3 3 -5 6q-4 6 -6 12q-2 5 -2.5 10.5t2.5 10.5q12 15 29.5 23t33.5 11q19 4 39 3q26 -1 42.5 -6t30 -10t27.5 -8t36 0q7 1 16 5q7 4 16 10.5t18 17.5z" />
    <glyph glyph-name="ograve" unicode="&#xf2;" horiz-adv-x="394" 
d="M289 155q-9 -37 -26 -69t-40 -55.5t-52 -37t-63 -13.5q-40 0 -62.5 17t-34 42.5t-14 56t-2.5 56.5q0 38 17 87.5t49 89.5q11 34 46 50.5t71 16.5q4 0 10 -2q13 -1 32.5 -9.5t37.5 -26.5t30.5 -45t12.5 -65q0 -8 -1 -19t-2 -19q22 8 46.5 21t47.5 27t42.5 28.5t31.5 26.5
q9 9 16 10t10 -3.5t1 -13.5t-11 -20q-5 -6 -24.5 -23.5t-47 -38t-59.5 -40t-62 -29.5zM124 304q-3 -9 -3 -19q0 -16 1.5 -33t10 -31t25.5 -23t47 -9q5 0 10 0.5t10 1.5q3 13 5 23.5t2 17.5q2 19 0 38.5t-7 35.5t-13.5 26.5t-20.5 10.5q-18 0 -35 -10.5t-32 -28.5zM62 132
q0 -18 2 -35t7.5 -30.5t15.5 -21.5t25 -8q18 0 32.5 8t26 21.5t21 31t16.5 35.5q-7 -1 -13.5 -1.5t-13.5 -0.5q-38 0 -64.5 22t-41.5 56q-6 -20 -9.5 -40t-3.5 -37zM181 586q6 -3 21 -13.5t32 -23.5t32 -26t20 -22q11 -18 2.5 -27t-18.5 -15q-42 22 -69.5 37t-45.5 24
l-32 16q-9 5 -7 18t13 25q15 15 27 14.5t25 -7.5z" />
    <glyph glyph-name="oacute" unicode="&#xf3;" horiz-adv-x="394" 
d="M289 155q-9 -37 -26 -69t-40 -55.5t-52 -37t-63 -13.5q-40 0 -62.5 17t-34 42.5t-14 56t-2.5 56.5q0 38 17 87.5t49 89.5q11 34 46 50.5t71 16.5q4 0 10 -2q13 -1 32.5 -9.5t37.5 -26.5t30.5 -45t12.5 -65q0 -8 -1 -19t-2 -19q22 8 46.5 21t47.5 27t42.5 28.5t31.5 26.5
q9 9 16 10t10 -3.5t1 -13.5t-11 -20q-5 -6 -24.5 -23.5t-47 -38t-59.5 -40t-62 -29.5zM124 304q-3 -9 -3 -19q0 -16 1.5 -33t10 -31t25.5 -23t47 -9q5 0 10 0.5t10 1.5q3 13 5 23.5t2 17.5q2 19 0 38.5t-7 35.5t-13.5 26.5t-20.5 10.5q-18 0 -35 -10.5t-32 -28.5zM62 132
q0 -18 2 -35t7.5 -30.5t15.5 -21.5t25 -8q18 0 32.5 8t26 21.5t21 31t16.5 35.5q-7 -1 -13.5 -1.5t-13.5 -0.5q-38 0 -64.5 22t-41.5 56q-6 -20 -9.5 -40t-3.5 -37zM272 590q8 6 19 -1.5t16 -23.5q7 -20 1 -30.5t-18 -18.5q-6 -4 -22 -13t-35 -18.5t-37.5 -16.5t-28.5 -8
q-21 -2 -25.5 10t-5.5 23q39 27 65 45.5t42 30.5q18 13 29 21z" />
    <glyph glyph-name="ocircumflex" unicode="&#xf4;" horiz-adv-x="394" 
d="M289 155q-9 -37 -26 -69t-40 -55.5t-52 -37t-63 -13.5q-40 0 -62.5 17t-34 42.5t-14 56t-2.5 56.5q0 38 17 87.5t49 89.5q11 34 46 50.5t71 16.5q4 0 10 -2q13 -1 32.5 -9.5t37.5 -26.5t30.5 -45t12.5 -65q0 -8 -1 -19t-2 -19q22 8 46.5 21t47.5 27t42.5 28.5t31.5 26.5
q9 9 16 10t10 -3.5t1 -13.5t-11 -20q-5 -6 -24.5 -23.5t-47 -38t-59.5 -40t-62 -29.5zM124 304q-3 -9 -3 -19q0 -16 1.5 -33t10 -31t25.5 -23t47 -9q5 0 10 0.5t10 1.5q3 13 5 23.5t2 17.5q2 19 0 38.5t-7 35.5t-13.5 26.5t-20.5 10.5q-18 0 -35 -10.5t-32 -28.5zM62 132
q0 -18 2 -35t7.5 -30.5t15.5 -21.5t25 -8q18 0 32.5 8t26 21.5t21 31t16.5 35.5q-7 -1 -13.5 -1.5t-13.5 -0.5q-38 0 -64.5 22t-41.5 56q-6 -20 -9.5 -40t-3.5 -37zM287 507q9 -14 17 -24.5t20 -16.5q-7 -4 -17 -5.5t-20 -1.5q-12 0 -24 2q-18 3 -30.5 15t-29.5 49
q0 1 -0.5 1.5t-0.5 1.5q-36 -29 -49.5 -40t-15.5 -13q-16 -14 -31.5 -12t-29.5 1h-12q-5 0 -10.5 -0.5t-10.5 -1.5q5 4 17 13.5t24 19.5q14 12 31 25q6 5 16 12.5t20 15.5t18.5 14.5t11.5 8.5q3 3 13.5 4.5t22.5 1.5t22.5 -2t12.5 -5t7 -12t10.5 -19t10.5 -19t7 -13z" />
    <glyph glyph-name="otilde" unicode="&#xf5;" horiz-adv-x="394" 
d="M289 155q-9 -37 -26 -69t-40 -55.5t-52 -37t-63 -13.5q-40 0 -62.5 17t-34 42.5t-14 56t-2.5 56.5q0 38 17 87.5t49 89.5q11 34 46 50.5t71 16.5q4 0 10 -2q13 -1 32.5 -9.5t37.5 -26.5t30.5 -45t12.5 -65q0 -8 -1 -19t-2 -19q22 8 46.5 21t47.5 27t42.5 28.5t31.5 26.5
q9 9 16 10t10 -3.5t1 -13.5t-11 -20q-5 -6 -24.5 -23.5t-47 -38t-59.5 -40t-62 -29.5zM124 304q-3 -9 -3 -19q0 -16 1.5 -33t10 -31t25.5 -23t47 -9q5 0 10 0.5t10 1.5q3 13 5 23.5t2 17.5q2 19 0 38.5t-7 35.5t-13.5 26.5t-20.5 10.5q-18 0 -35 -10.5t-32 -28.5zM62 132
q0 -18 2 -35t7.5 -30.5t15.5 -21.5t25 -8q18 0 32.5 8t26 21.5t21 31t16.5 35.5q-7 -1 -13.5 -1.5t-13.5 -0.5q-38 0 -64.5 22t-41.5 56q-6 -20 -9.5 -40t-3.5 -37zM335 551q17 -10 17 -32q0 -12 -7.5 -23.5t-20.5 -20t-31.5 -12.5t-39.5 -1q-22 3 -39.5 9t-32 10.5t-28 6
t-29.5 -4.5l-18 -8q-8 -4 -16 -8.5t-15 -9.5q-9 2 -17 9q-3 3 -5 6q-4 6 -6 12q-2 5 -2.5 10.5t2.5 10.5q12 15 29.5 23t33.5 11q19 4 39 3q26 -1 42.5 -6t30 -10t27.5 -8t36 0q7 1 16 5q7 4 16 10.5t18 17.5z" />
    <glyph glyph-name="odieresis" unicode="&#xf6;" horiz-adv-x="394" 
d="M289 155q-9 -37 -26 -69t-40 -55.5t-52 -37t-63 -13.5q-40 0 -62.5 17t-34 42.5t-14 56t-2.5 56.5q0 38 17 87.5t49 89.5q11 34 46 50.5t71 16.5q4 0 10 -2q13 -1 32.5 -9.5t37.5 -26.5t30.5 -45t12.5 -65q0 -8 -1 -19t-2 -19q22 8 46.5 21t47.5 27t42.5 28.5t31.5 26.5
q9 9 16 10t10 -3.5t1 -13.5t-11 -20q-5 -6 -24.5 -23.5t-47 -38t-59.5 -40t-62 -29.5zM124 304q-3 -9 -3 -19q0 -16 1.5 -33t10 -31t25.5 -23t47 -9q5 0 10 0.5t10 1.5q3 13 5 23.5t2 17.5q2 19 0 38.5t-7 35.5t-13.5 26.5t-20.5 10.5q-18 0 -35 -10.5t-32 -28.5zM62 132
q0 -18 2 -35t7.5 -30.5t15.5 -21.5t25 -8q18 0 32.5 8t26 21.5t21 31t16.5 35.5q-7 -1 -13.5 -1.5t-13.5 -0.5q-38 0 -64.5 22t-41.5 56q-6 -20 -9.5 -40t-3.5 -37zM270 463q-20 0 -28.5 8t-8.5 21q0 19 21 33.5t47 14.5q24 0 33.5 -8t9.5 -22q0 -11 -7 -19.5t-18 -14.5
t-24 -9.5t-25 -3.5zM189 516q0 -19 -22 -37t-58 -18q-18 0 -24 8.5t-6 17.5q0 18 17.5 36.5t51.5 18.5q16 0 28.5 -5t12.5 -21z" />
    <glyph glyph-name="divide" unicode="&#xf7;" horiz-adv-x="351" 
d="M159 329q-27 -1 -55 -3q-26 -3 -54 -7t-54 -11q-1 7 -0.5 15t1.5 14q1 8 3 15q3 9 10 20t13 14q4 2 19 4t36.5 4t47 3t50.5 1q51 0 85.5 -1.5t65.5 -4.5q14 -2 17 -8.5t-2 -24.5q-5 -17 -11 -23.5t-19 -5.5q-26 2 -68.5 1t-84.5 -2zM150 469q-1 17 18.5 31.5t44.5 14.5
q24 0 33.5 -8t10.5 -22q1 -10 -5.5 -18.5t-17 -14.5t-23 -9t-23.5 -3q-20 0 -28.5 8t-9.5 21zM158 274q16 0 28 -4.5t14 -20.5q1 -18 -19.5 -35.5t-55.5 -17.5q-17 0 -23.5 8.5t-7.5 16.5q-1 18 15.5 35.5t48.5 17.5z" />
    <glyph glyph-name="oslash" unicode="&#xf8;" horiz-adv-x="406" 
d="M478 313q9 9 16 10t10 -3.5t1 -13.5t-11 -20q-5 -6 -24.5 -23.5t-47 -38t-59.5 -40t-62 -29.5q-9 -37 -26 -69t-40 -55.5t-52 -37t-64 -13.5q-30 0 -50 10q-5 -8 -9 -16q-4 -7 -8.5 -14t-7.5 -13q-16 -7 -29 -10.5t-23 -5.5q-11 -2 -20 -2q-20 0 -21.5 4.5t6.5 17.5
q3 5 21.5 31t43.5 61q-11 25 -13 54t-2 55q0 38 16.5 87.5t48.5 89.5q12 34 46.5 50.5t71.5 16.5q4 0 10 -2q10 -1 23 -5.5t27 -14.5l10 15q12 19 26.5 28.5t44.5 15.5q25 5 33.5 4t5.5 -5q-8 -12 -28 -38.5t-49 -67.5q9 -15 14.5 -34.5t5.5 -43.5q0 -8 -0.5 -18.5
t-2.5 -19.5q20 8 43.5 20t46.5 26t43.5 29t34.5 28zM124 37q35 0 58.5 29.5t37.5 66.5q-7 -1 -13.5 -1.5t-13.5 -0.5q-38 0 -64.5 22t-41.5 56q-6 -20 -9.5 -40t-3.5 -37q0 -18 2 -35t7.5 -30.5t15.5 -21.5t25 -8zM244 232q2 19 0 38.5t-7.5 35.5t-13.5 26.5t-20 10.5
q-19 0 -36 -10.5t-31 -28.5q-3 -9 -3 -19q0 -16 1.5 -33t10 -31t25 -23t46.5 -9q5 0 10.5 0.5t10.5 1.5q3 13 4.5 23.5z" />
    <glyph glyph-name="ugrave" unicode="&#xf9;" horiz-adv-x="469" 
d="M121 -16q-37 0 -60.5 11.5t-37 29t-18.5 37.5t-5 37q0 30 5 62t11.5 60t12.5 48t7 24q9 29 23 49.5t40 28.5q10 3 20 4t19 1t16 -3q-26 -67 -41 -112t-23 -73q-9 -33 -11 -52q-5 -44 8 -66.5t52 -22.5q25 0 48.5 19t42.5 49q-1 8 -1.5 16t-0.5 16q0 31 5 61t12.5 56.5
t15.5 46.5t14 32q11 23 19.5 28.5t28.5 6.5q8 1 13.5 0.5t9.5 -1.5q11 -3 11 -12q0 -15 -2 -46.5t-11 -64.5q-14 -54 -25.5 -78t-22.5 -37q2 -29 5 -46.5t7.5 -27.5t10.5 -13t14 -3q14 0 32.5 13t38.5 33.5t40 44t36.5 45t28 37.5t14.5 20q7 9 13.5 11t10.5 -1.5t4.5 -10.5
t-4.5 -16q-20 -37 -49 -78.5t-61 -77t-65.5 -59t-62.5 -23.5q-27 0 -42 18t-26 53q-22 -35 -52.5 -54.5t-67.5 -19.5zM191 566q6 -3 21 -13.5t32 -23.5t32 -26t20 -22q11 -18 2.5 -27t-18.5 -15q-42 22 -69.5 37t-45.5 24l-32 16q-9 5 -7 18t13 25q15 15 27 14.5t25 -7.5z
" />
    <glyph glyph-name="uacute" unicode="&#xfa;" horiz-adv-x="469" 
d="M121 -16q-37 0 -60.5 11.5t-37 29t-18.5 37.5t-5 37q0 30 5 62t11.5 60t12.5 48t7 24q9 29 23 49.5t40 28.5q10 3 20 4t19 1t16 -3q-26 -67 -41 -112t-23 -73q-9 -33 -11 -52q-5 -44 8 -66.5t52 -22.5q25 0 48.5 19t42.5 49q-1 8 -1.5 16t-0.5 16q0 31 5 61t12.5 56.5
t15.5 46.5t14 32q11 23 19.5 28.5t28.5 6.5q8 1 13.5 0.5t9.5 -1.5q11 -3 11 -12q0 -15 -2 -46.5t-11 -64.5q-14 -54 -25.5 -78t-22.5 -37q2 -29 5 -46.5t7.5 -27.5t10.5 -13t14 -3q14 0 32.5 13t38.5 33.5t40 44t36.5 45t28 37.5t14.5 20q7 9 13.5 11t10.5 -1.5t4.5 -10.5
t-4.5 -16q-20 -37 -49 -78.5t-61 -77t-65.5 -59t-62.5 -23.5q-27 0 -42 18t-26 53q-22 -35 -52.5 -54.5t-67.5 -19.5zM292 570q8 6 19 -1.5t16 -23.5q7 -20 1 -30.5t-18 -18.5q-6 -4 -22 -13t-35 -18.5t-37.5 -16.5t-28.5 -8q-21 -2 -25.5 10t-5.5 23q39 27 65 45.5t42 30.5
q18 13 29 21z" />
    <glyph glyph-name="ucircumflex" unicode="&#xfb;" horiz-adv-x="469" 
d="M121 -16q-37 0 -60.5 11.5t-37 29t-18.5 37.5t-5 37q0 30 5 62t11.5 60t12.5 48t7 24q9 29 23 49.5t40 28.5q10 3 20 4t19 1t16 -3q-26 -67 -41 -112t-23 -73q-9 -33 -11 -52q-5 -44 8 -66.5t52 -22.5q25 0 48.5 19t42.5 49q-1 8 -1.5 16t-0.5 16q0 31 5 61t12.5 56.5
t15.5 46.5t14 32q11 23 19.5 28.5t28.5 6.5q8 1 13.5 0.5t9.5 -1.5q11 -3 11 -12q0 -15 -2 -46.5t-11 -64.5q-14 -54 -25.5 -78t-22.5 -37q2 -29 5 -46.5t7.5 -27.5t10.5 -13t14 -3q14 0 32.5 13t38.5 33.5t40 44t36.5 45t28 37.5t14.5 20q7 9 13.5 11t10.5 -1.5t4.5 -10.5
t-4.5 -16q-20 -37 -49 -78.5t-61 -77t-65.5 -59t-62.5 -23.5q-27 0 -42 18t-26 53q-22 -35 -52.5 -54.5t-67.5 -19.5zM337 497q9 -14 17 -24.5t20 -16.5q-7 -4 -17 -5.5t-20 -1.5q-12 0 -24 2q-18 3 -30.5 15t-29.5 49q0 1 -0.5 1.5t-0.5 1.5q-36 -29 -49.5 -40t-15.5 -13
q-16 -14 -31.5 -12t-29.5 1h-12q-5 0 -10.5 -0.5t-10.5 -1.5q5 4 17 13.5t24 19.5q14 12 31 25q6 5 16 12.5t20 15.5t18.5 14.5t11.5 8.5q3 3 13.5 4.5t22.5 1.5t22.5 -2t12.5 -5t7 -12t10.5 -19t10.5 -19t7 -13z" />
    <glyph glyph-name="udieresis" unicode="&#xfc;" horiz-adv-x="469" 
d="M121 -16q-37 0 -60.5 11.5t-37 29t-18.5 37.5t-5 37q0 30 5 62t11.5 60t12.5 48t7 24q9 29 23 49.5t40 28.5q10 3 20 4t19 1t16 -3q-26 -67 -41 -112t-23 -73q-9 -33 -11 -52q-5 -44 8 -66.5t52 -22.5q25 0 48.5 19t42.5 49q-1 8 -1.5 16t-0.5 16q0 31 5 61t12.5 56.5
t15.5 46.5t14 32q11 23 19.5 28.5t28.5 6.5q8 1 13.5 0.5t9.5 -1.5q11 -3 11 -12q0 -15 -2 -46.5t-11 -64.5q-14 -54 -25.5 -78t-22.5 -37q2 -29 5 -46.5t7.5 -27.5t10.5 -13t14 -3q14 0 32.5 13t38.5 33.5t40 44t36.5 45t28 37.5t14.5 20q7 9 13.5 11t10.5 -1.5t4.5 -10.5
t-4.5 -16q-20 -37 -49 -78.5t-61 -77t-65.5 -59t-62.5 -23.5q-27 0 -42 18t-26 53q-22 -35 -52.5 -54.5t-67.5 -19.5zM308 465q-20 0 -28.5 8t-8.5 21q0 19 21 33.5t47 14.5q24 0 33.5 -8t9.5 -22q0 -11 -7 -19.5t-18 -14.5t-24 -9.5t-25 -3.5zM227 518q0 -19 -22 -37
t-58 -18q-18 0 -24 8.5t-6 17.5q0 18 17.5 36.5t51.5 18.5q16 0 28.5 -5t12.5 -21z" />
    <glyph glyph-name="yacute" unicode="&#xfd;" horiz-adv-x="406" 
d="M257 359q12 10 24.5 15t21.5 8q12 2 22 2q26 -2 32.5 -17t1.5 -47q-2 -16 -10.5 -42t-20.5 -62t-25.5 -83t-25.5 -106q-11 -47 -25 -111q-13 -57 -28.5 -132.5t-34.5 -175.5q-4 -24 -20.5 -28t-33.5 4q-7 3 -13 9q-5 5 -10.5 11.5t-9.5 16.5q22 82 39.5 149.5t30.5 116.5
q15 58 27 104q5 21 9.5 41t9.5 39q-12 -20 -27 -38.5t-32.5 -32t-37.5 -21t-42 -4.5q-53 6 -75 38.5t-19 84.5q1 20 6 44.5t11 47t11.5 41t7.5 25.5q12 37 17.5 63.5t-8.5 43.5q13 9 25.5 13t22.5 5q12 1 22 0q26 -4 30.5 -19.5t-3.5 -47.5q-4 -16 -13 -42t-18.5 -53
t-17 -50t-9.5 -33q-8 -45 -0.5 -68.5t34.5 -23.5q20 0 44 24.5t47 59t41.5 73t26.5 65.5v0q7 35 8.5 56t-13.5 37zM312 580q8 6 19 -1.5t16 -23.5q7 -20 1 -30.5t-18 -18.5q-6 -4 -22 -13t-35 -18.5t-37.5 -16.5t-28.5 -8q-21 -2 -25.5 10t-5.5 23q39 27 65 45.5t42 30.5
q18 13 29 21z" />
    <glyph glyph-name="thorn" unicode="&#xfe;" horiz-adv-x="451" 
d="M493 224q16 20 26 13.5t-2 -32.5q-4 -8 -16.5 -28t-31 -44.5t-42.5 -51t-50.5 -48t-54.5 -35.5t-55 -14q-13 0 -20.5 1t-13 3.5t-10 5t-11.5 5.5q-37 -28 -72 -28q-34 -1 -49.5 19.5t-20.5 42.5q-1 -4 -1.5 -7t-1.5 -7q-11 -47 -24 -109q-12 -57 -26.5 -130.5
t-31.5 -170.5q-5 -26 -20.5 -30t-34.5 4q-7 4 -14 9q-6 5 -11.5 12.5t-9.5 17.5q27 105 46.5 182t32.5 128q15 60 25 102q9 34 21 84t25.5 107t27 115t25 106t19 81t8.5 40q3 18 5 36q2 17 2 33.5t-3 29.5q8 5 17.5 8t18.5 6q10 2 21 4q10 2 19 2q8 0 15 -1.5t9 -6.5
q6 -5 5.5 -19.5t-2.5 -29.5q-3 -19 -9 -41q-20 -76 -44.5 -147.5t-44.5 -151.5q14 17 32 34.5t37.5 31.5t40 23.5t39.5 9.5q23 0 37 -11.5t21.5 -30t10 -41t1.5 -45.5q-1 -24 -8.5 -52t-20 -56t-29 -55.5t-35.5 -50.5q3 -2 5 -3t7 -1q34 0 69.5 24.5t66.5 56t54 61.5t31 40z
M190 74q15 18 31 40t29.5 45.5t22.5 47.5t10 47q2 29 -7 45.5t-29 16.5q-30 0 -65.5 -35.5t-73.5 -92.5q-8 -29 -22 -90q16 11 37 11q11 0 27.5 -11t39.5 -24z" />
    <glyph glyph-name="ydieresis" unicode="&#xff;" horiz-adv-x="406" 
d="M257 359q12 10 24.5 15t21.5 8q12 2 22 2q26 -2 32.5 -17t1.5 -47q-2 -16 -10.5 -42t-20.5 -62t-25.5 -83t-25.5 -106q-11 -47 -25 -111q-13 -57 -28.5 -132.5t-34.5 -175.5q-4 -24 -20.5 -28t-33.5 4q-7 3 -13 9q-5 5 -10.5 11.5t-9.5 16.5q22 82 39.5 149.5t30.5 116.5
q15 58 27 104q5 21 9.5 41t9.5 39q-12 -20 -27 -38.5t-32.5 -32t-37.5 -21t-42 -4.5q-53 6 -75 38.5t-19 84.5q1 20 6 44.5t11 47t11.5 41t7.5 25.5q12 37 17.5 63.5t-8.5 43.5q13 9 25.5 13t22.5 5q12 1 22 0q26 -4 30.5 -19.5t-3.5 -47.5q-4 -16 -13 -42t-18.5 -53
t-17 -50t-9.5 -33q-8 -45 -0.5 -68.5t34.5 -23.5q20 0 44 24.5t47 59t41.5 73t26.5 65.5v0q7 35 8.5 56t-13.5 37zM282 468q-20 0 -28.5 8t-8.5 21q0 19 21 33.5t47 14.5q24 0 33.5 -8t9.5 -22q0 -11 -7 -19.5t-18 -14.5t-24 -9.5t-25 -3.5zM201 521q0 -19 -22 -37t-58 -18
q-18 0 -24 8.5t-6 17.5q0 18 17.5 36.5t51.5 18.5q16 0 28.5 -5t12.5 -21z" />
    <glyph glyph-name="dotlessi" unicode="&#x131;" horiz-adv-x="274" 
d="M80 367q5 6 18.5 10t28.5 6.5t27 3t14 -0.5t-4.5 -20.5t-15.5 -46t-18.5 -54t-14.5 -45.5t-11.5 -39.5t-12 -43t-7.5 -39.5t3 -29q9 -20 23 -20q20 0 50 21.5t60.5 51t56.5 60.5t39 49q8 11 16.5 13.5t13.5 -1.5t6 -12.5t-6 -20.5q-16 -27 -46 -65t-64.5 -72.5t-67 -59
t-53.5 -25.5q-17 -1 -33 5.5t-29 17.5t-21.5 26t-10.5 32q-2 25 1 67.5t10.5 87t19.5 84t28 59.5z" />
    <glyph glyph-name="Lslash" unicode="&#x141;" horiz-adv-x="492" 
d="M-1 -109q13 4 29.5 9t37.5 28q-13 5 -22 5q-35 0 -51 -10.5t-16 -20.5q0 -6 5.5 -9.5t16.5 -1.5zM368 570q-5 -14 -12.5 -42.5t-16.5 -65.5q52 35 84 78.5t32 87.5q0 26 -16 26q-14 0 -35 -21t-36 -63zM366 195q-19 -2 -45 -7t-55 -11q-4 -11 -7 -22t-7 -20
q-14 -38 -35 -85t-51 -90q19 -12 38 -24.5t38.5 -23t39.5 -17t42 -6.5q23 1 46 7q20 5 41.5 16t39.5 31q7 -12 4.5 -35.5t-15.5 -46.5t-36 -40.5t-58 -17.5q-37 0 -69.5 10t-61 25t-53 32t-46.5 31q-29 -28 -64.5 -45.5t-77.5 -17.5q-34 0 -55 19t-19 51q1 12 7 28t22.5 31
t44.5 25t73 10q16 0 31.5 -3.5t29.5 -8.5q22 40 45 103q7 16 12.5 32t10.5 32q-25 -6 -57.5 -16t-61.5 -23q-2 7 -2 14.5v14.5q1 7 2 15q2 9 7 21t11 16q7 5 43 15t79 19q13 50 24 104q-14 -3 -29 -4t-31 -1q-50 0 -80.5 11t-41.5 27q-5 7 -9 20.5t3 30.5q14 -10 30 -15
t30 -8q16 -3 32 -3q58 0 112 18q12 58 23.5 105.5t25.5 76.5q32 65 71 102t105 37q25 0 39 -10t21 -24.5t8.5 -31.5t1.5 -31q0 -33 -15.5 -71t-44 -75t-68 -70t-88.5 -55q-8 -30 -15 -59.5t-15 -57.5q26 4 47 6.5t41 4.5q14 1 17.5 -5.5t0.5 -25.5q-3 -17 -8.5 -24.5
t-17.5 -9.5z" />
    <glyph glyph-name="lslash" unicode="&#x142;" horiz-adv-x="219" 
d="M248 355q-19 -2 -45 -7t-55 -11q-17 -65 -39 -150.5t-50 -196.5q-5 -5 -12 -6.5t-13 -2.5q-7 0 -14 1q-7 2 -14 6q-6 4 -12 10.5t-9 17.5q23 96 41 170t32 131q-25 -6 -57.5 -16t-61.5 -23q-2 7 -2 14.5v14.5q1 7 2 15q2 9 7 21t11 16q7 5 41.5 15t76.5 18q13 55 21 89
t12 54q5 22 7 32q3 18 5 36q2 17 2 33.5t-3 29.5q8 5 17.5 8t18.5 6q10 2 21 4q10 2 19 2q8 0 15 -1.5t9 -6.5q6 -5 5.5 -19.5t-2.5 -29.5q-3 -19 -9 -41q-4 -14 -10 -39q-6 -22 -15 -56t-22 -85q26 5 47.5 7.5t42.5 4.5q14 1 17.5 -5.5t0.5 -25.5q-3 -17 -8.5 -24.5
t-17.5 -9.5z" />
    <glyph glyph-name="OE" unicode="&#x152;" horiz-adv-x="919" 
d="M793 736q38 0 64.5 -12t43.5 -30t25 -39t8 -39q1 -33 -8 -66t-23 -59.5t-31.5 -43.5t-34.5 -17q-13 1 -27 4q-13 4 -27.5 10.5t-30.5 19.5q26 10 45.5 28t32.5 40t19.5 46t5.5 46q-1 31 -14.5 48t-44.5 17q-40 0 -81 -20t-72.5 -55.5t-49.5 -84.5t-12 -107
q5 -45 26.5 -74.5t41.5 -46.5q15 2 29 3.5t26 1.5q17 0 33 -6t16 -17q0 -7 -3.5 -17t-11 -18.5t-18.5 -14.5t-26 -6q-12 0 -28 5.5t-33 14.5q-37 -7 -67 -27.5t-52 -48t-33.5 -59t-10.5 -62.5q1 -28 9 -56.5t25 -51.5t44 -37t65 -14q43 0 79.5 25.5t63.5 58.5t44.5 64.5
t23.5 43.5q3 6 9 9t11 1.5t7.5 -7.5t-0.5 -18q-7 -34 -28.5 -77.5t-55.5 -82t-79.5 -64.5t-101.5 -26q-71 0 -125.5 34t-78.5 91q-42 -60 -93 -96.5t-110 -36.5q-9 0 -27 3.5t-38.5 15.5t-41.5 35.5t-36.5 63t-22.5 98t0 141.5q11 131 48 238t84.5 183t98 117.5t89.5 41.5
q16 0 26 -6.5t16 -15.5q7 2 15.5 3t19.5 1q34 0 59 -41.5t37 -114.5q23 38 55.5 68t71 51t80 32.5t80.5 11.5zM314 677v0v0zM426 355q3 40 3.5 95t-4.5 105.5t-16 85.5t-29 35q-12 -1 -25 -8q-12 -6 -25.5 -19t-27.5 -37q-4 4 -8 14q-2 4 -3 9q-2 3 -2 7.5t-1 9.5
q-19 -21 -46.5 -60.5t-54 -98.5t-48.5 -138t-31 -181q-7 -90 -3 -149.5t15 -94.5t27.5 -49.5t34.5 -14.5q38 0 78 39t74 106t58.5 156t33.5 188zM501 245q36 22 76 36q-37 20 -64 53q0 -2 -0.5 -3t-0.5 -3q-2 -20 -4.5 -41t-6.5 -42z" />
    <glyph glyph-name="oe" unicode="&#x153;" horiz-adv-x="584" 
d="M666 203q-29 -42 -66.5 -83t-79 -72.5t-85 -51t-84.5 -19.5q-28 0 -61 17t-53 55q-25 -32 -57.5 -50.5t-71.5 -18.5q-40 0 -62.5 17t-34 42.5t-14 56t-2.5 56.5q0 38 17 87.5t49 89.5q11 34 46 50.5t71 16.5q4 0 10 -2q10 0 23.5 -5t27.5 -15t27 -25t22 -35
q32 41 72.5 68t82.5 27q38 0 54 -18.5t14 -45.5q-4 -43 -28 -78t-56 -62t-66 -45t-60 -27q0 -27 7 -45.5t19 -30t27.5 -16t31.5 -4.5q35 0 72.5 21.5t72.5 51.5t64 62.5t48 54.5q7 8 14 9.5t11.5 -2.5t5 -12t-7.5 -19zM415 354q-12 0 -27 -11t-30 -31.5t-28 -50t-21 -67.5
q16 4 37.5 18t41 32t33.5 38t15 36q2 19 -4 27.5t-17 8.5zM112 37q35 0 58 29t37 65q-42 1 -76.5 21t-54.5 59q-14 -42 -14 -79q0 -18 2 -35t7.5 -30.5t15.5 -21.5t25 -8zM232 232q2 19 0 38.5t-7 35.5t-13.5 26.5t-20.5 10.5q-18 0 -35 -10.5t-32 -28.5q-3 -9 -3 -19
q0 -15 7.5 -31t21 -30t32.5 -23.5t43 -11.5q0 2 1 4q6 26 6 39z" />
    <glyph glyph-name="Scaron" unicode="&#x160;" horiz-adv-x="475" 
d="M358 448q-1 5 12.5 29t25.5 57.5t13.5 72t-22.5 71.5q-14 18 -49 12.5t-72.5 -27.5t-67.5 -56.5t-34 -73.5q-4 -41 10.5 -70.5t25.5 -49.5q12 -21 41.5 -48t58 -67t47 -95t7.5 -130q-10 -72 -34 -120t-52 -77.5t-56 -43t-47 -17.5q-14 -3 -34.5 -5t-42.5 1t-44 13.5
t-40 31.5q-19 25 -32 53q-11 26 -16 56.5t5 65.5q7 9 16.5 16t18.5 12q10 6 20 10q13 5 26 7q11 3 23 3t22 -4q-8 -8 -12.5 -16t-7.5 -15q-4 -7 -6 -14q-4 -18 -2.5 -44t10.5 -50t27 -41t47 -18q70 -2 121 111q17 35 17 71t-9 69.5t-24.5 62t-30.5 49.5t-37.5 44.5t-44 52
t-38.5 62t-23 72.5q-8 54 10.5 100t49 80t67 55t65.5 27q155 31 206 -52q20 -33 22 -69t-4 -66.5t-15.5 -51.5t-12.5 -23q-6 -6 -18.5 -13t-41.5 -13q-8 -1 -16 -1q-7 -1 -14.5 0t-13.5 4zM330 865q-9 14 -17 24.5t-20 17.5q7 4 17 5t20 1q12 0 24 -2q18 -2 30.5 -14.5
t29.5 -49.5q0 -1 0.5 -1.5t0.5 -1.5q36 29 49.5 40.5t15.5 13.5q16 13 31.5 11t29.5 -1h12q5 0 10.5 0.5t10.5 1.5q-5 -4 -17 -13.5t-24 -19.5q-14 -12 -31 -25q-6 -5 -16 -12.5t-20 -15.5t-18.5 -14.5t-11.5 -8.5q-3 -3 -13.5 -4t-22.5 -1t-22.5 1.5t-12.5 4.5t-7 12
t-10.5 19t-10.5 19t-7 13z" />
    <glyph glyph-name="scaron" unicode="&#x161;" horiz-adv-x="352" 
d="M138 33q6 -4 15 -4t18 4t17.5 11t12.5 18q5 11 0.5 30.5t-12.5 42.5t-18 47t-17 43l-9 27t-7.5 21.5t-5.5 13.5q-4 -7 -16.5 -24.5t-27 -36.5t-27 -35.5t-17.5 -22.5q-7 -9 -15 -10t-13 3t-5 12.5t8 19.5q5 8 17 25t24 35t21.5 32.5t10.5 17.5q1 4 -1 9t-4.5 11.5t-4 14
t1.5 15.5q4 14 18 32t32 32.5t37.5 21.5t35.5 -1q13 -7 20.5 -16.5t5.5 -19.5q-1 -4 -5 -12t-12 -19t-23 -29q3 -22 8.5 -41t10.5 -33q6 -16 13 -30q8 -17 18 -36t18 -37t12.5 -33.5t2.5 -26.5q-3 -16 -16.5 -39.5t-35 -45.5t-48.5 -37.5t-56 -15.5q-21 0 -40 13t-32 29.5
t-19 33.5t-2 25q6 12 11 19t15 16q4 3 10 6t14 6.5t20 6.5q9 -30 16.5 -47.5t13.5 -26.5q6 -11 11 -15zM120 585q-9 14 -17 24.5t-20 17.5q7 4 17 5t20 1q12 0 24 -2q18 -2 30.5 -14.5t29.5 -49.5q0 -1 0.5 -1.5t0.5 -1.5q36 29 49.5 40.5t15.5 13.5q16 13 31.5 11t29.5 -1
h12q5 0 10.5 0.5t10.5 1.5q-5 -4 -17 -13.5t-24 -19.5q-14 -12 -31 -25q-6 -5 -16 -12.5t-20 -15.5t-18.5 -14.5t-11.5 -8.5q-3 -3 -13.5 -4t-22.5 -1t-22.5 1.5t-12.5 4.5t-7 12t-10.5 19t-10.5 19t-7 13z" />
    <glyph glyph-name="Ydieresis" unicode="&#x178;" horiz-adv-x="532" 
d="M153 75q-66 0 -95.5 42t-24.5 113q4 45 17 113q11 61 33 148.5t60 213.5q12 8 24 12.5t22 6.5q11 3 22 4q10 1 19 1q8 0 15.5 -1.5t12.5 -5.5q-50 -128 -78 -218.5t-41 -149.5q-17 -68 -21 -113q-3 -54 16 -76t57 -22q30 0 61.5 23t61 65.5t54.5 102.5t42 135l18 84
q8 39 17.5 79t18.5 76q9 8 19 12.5t19 7.5q11 3 21 4t20 0q8 -1 16 -2.5t13 -6.5q-16 -52 -28.5 -94t-21.5 -72l-18 -63q-7 -29 -19 -76q-11 -43 -26 -105t-38 -153q-6 -24 -14.5 -58.5t-23 -73t-35.5 -76t-52 -68t-72.5 -49t-97.5 -18.5q-31 1 -57 10q-24 7 -42.5 22.5
t-21.5 44.5q5 10 11 19.5t12 16.5q6 9 13 16t15 13q7 5 14.5 9t15.5 4q4 -9 12 -21t19.5 -22t26 -17t32.5 -7q24 0 49.5 15t51.5 52t51 99.5t46 157.5q-12 -22 -31.5 -49t-47 -50t-63 -39t-79.5 -16zM452 788q-20 0 -28.5 8t-8.5 21q0 19 21 33.5t47 14.5q24 0 33.5 -8
t9.5 -22q0 -11 -7 -19.5t-18 -14.5t-24 -9.5t-25 -3.5zM371 841q0 -19 -22 -37t-58 -18q-18 0 -24 8.5t-6 17.5q0 18 17.5 36.5t51.5 18.5q16 0 28.5 -5t12.5 -21z" />
    <glyph glyph-name="Zcaron" unicode="&#x17d;" horiz-adv-x="455" 
d="M70 163q30 38 76 93.5t92.5 115t87 116t60.5 95.5q6 12 10 24q4 11 6 22.5t0 21.5q-28 0 -67 -1.5t-82 -6.5t-86.5 -14.5t-80.5 -26.5q-5 3 -6 12.5t0 19.5q2 11 5 25q4 12 9 23q4 10 9.5 18.5t13.5 12.5q37 6 70 9t58 4q29 2 53 2q33 0 66 -1q30 -2 61 -4t58 -7
q5 -14 7.5 -28.5t3.5 -26.5q1 -14 1 -27q-2 -34 -30 -89t-72 -113q-21 -28 -61 -76t-85.5 -103.5t-91.5 -113t-81 -104.5q-25 -34 -42 -67t-27 -57q26 10 78.5 22t124.5 12q38 0 71 -3q31 -2 58 -7t40 -14q-2 -10 -10 -24q-7 -12 -21 -28.5t-40 -39.5q-38 8 -71.5 12.5
t-58.5 6.5q-29 3 -54 3t-53 -4q-26 -2 -56 -8t-64 -17q-9 6 -14.5 20.5t-9.5 29.5q-3 18 -5 38q26 58 52.5 104.5t48.5 79.5q25 39 49 69zM290 855q-9 14 -17 24.5t-20 17.5q7 4 17 5t20 1q12 0 24 -2q18 -2 30.5 -14.5t29.5 -49.5q0 -1 0.5 -1.5t0.5 -1.5q36 29 49.5 40.5
t15.5 13.5q16 13 31.5 11t29.5 -1h12q5 0 10.5 0.5t10.5 1.5q-5 -4 -17 -13.5t-24 -19.5q-14 -12 -31 -25q-6 -5 -16 -12.5t-20 -15.5t-18.5 -14.5t-11.5 -8.5q-3 -3 -13.5 -4t-22.5 -1t-22.5 1.5t-12.5 4.5t-7 12t-10.5 19t-10.5 19t-7 13z" />
    <glyph glyph-name="zcaron" unicode="&#x17e;" horiz-adv-x="350" 
d="M409 157q-6 -10 -21 -28t-36.5 -40t-48.5 -44.5t-57 -41.5q-4 -23 -15 -64.5t-28 -90t-40.5 -99.5t-52.5 -92t-63 -67t-72 -26t-59.5 13t-32 33t-12.5 44t-1 46q1 29 18 67.5t46.5 78t71.5 75.5t94 60q26 11 47 21.5t40 19.5q7 32 1 43t-18 11q-18 0 -42 -15.5t-59 -48.5
q-9 -1 -16.5 2.5t-12.5 7.5q-6 5 -10 12q-10 17 -9 33.5t15 26.5t40.5 34.5t52.5 60.5q8 11 19 27.5t22 35.5t21.5 39t16.5 39q-20 3 -57 -1q-19 -3 -42 -8q-20 -5 -44 -13.5t-52 -21.5q-4 2 -6 8.5t-3 13.5q-1 9 -1 19q0 28 15.5 38.5t28.5 14.5q7 2 26.5 5.5t45 6t53.5 4
t50 0.5q45 -2 57.5 -11.5t6.5 -29.5q-7 -20 -26.5 -66t-59.5 -106q-31 -46 -56 -77q16 8 32.5 12.5t33.5 4.5q23 0 30 -21.5t8 -46.5q39 24 70 51.5t66 70.5q9 11 16.5 12.5t11 -2.5t3.5 -12.5t-6 -17.5zM165 -56q2 8 4.5 14.5t4.5 13.5q-51 -28 -93 -60.5t-73 -67.5
t-48.5 -73t-19.5 -77q-1 -23 7.5 -39.5t30.5 -16.5q23 0 50 33.5t53 81.5t48.5 100.5t35.5 90.5zM130 545q-9 14 -17 24.5t-20 17.5q7 4 17 5t20 1q12 0 24 -2q18 -2 30.5 -14.5t29.5 -49.5q0 -1 0.5 -1.5t0.5 -1.5q36 29 49.5 40.5t15.5 13.5q16 13 31.5 11t29.5 -1h12
q5 0 10.5 0.5t10.5 1.5q-5 -4 -17 -13.5t-24 -19.5q-14 -12 -31 -25q-6 -5 -16 -12.5t-20 -15.5t-18.5 -14.5t-11.5 -8.5q-3 -3 -13.5 -4t-22.5 -1t-22.5 1.5t-12.5 4.5t-7 12t-10.5 19t-10.5 19t-7 13z" />
    <glyph glyph-name="florin" unicode="&#x192;" horiz-adv-x="401" 
d="M288 364q-17 1 -43.5 1t-55.5 -1q-13 -45 -30 -111t-38.5 -139t-47.5 -145t-58.5 -129.5t-71.5 -93.5t-85 -36q-23 0 -38.5 7t-25.5 18t-15.5 23t-6.5 23q-2 14 -2 30t3.5 31.5t11.5 28.5t22 21q11 6 23 9q11 3 24.5 3.5t28.5 -4.5q-17 -27 -25.5 -51.5t-9.5 -42.5
t5.5 -29t19.5 -11q19 0 38.5 21.5t38.5 58t38 83.5t36 98.5t31.5 104t26.5 98.5q8 31 17 64t20 67q-23 -2 -55 -5t-61 -11q-1 6 0 13t2 13q2 6 4 13q3 8 10 18t12 12q7 3 39 6t70 5q21 60 47 116t57.5 98.5t68.5 68.5t80 26q46 0 63.5 -19.5t22.5 -51.5q2 -14 2 -30
t-3.5 -31.5t-11.5 -28.5t-22 -21q-11 -6 -23 -9t-25 -3t-28 5q17 27 26 52t10.5 44t-4.5 30.5t-20 11.5q-16 0 -36.5 -18t-43.5 -51t-46.5 -81t-44.5 -108q29 -1 52 -2t45 -3q13 -2 15 -8t-4 -22q-5 -14 -11.5 -20.5t-17.5 -5.5z" />
    <glyph glyph-name="circumflex" unicode="&#x2c6;" 
d="M447 617q9 -14 17 -24.5t20 -16.5q-7 -4 -17 -5.5t-20 -1.5q-12 0 -24 2q-18 3 -30.5 15t-29.5 49q0 1 -0.5 1.5t-0.5 1.5q-36 -29 -49.5 -40t-15.5 -13q-16 -14 -31.5 -12t-29.5 1h-12q-5 0 -10.5 -0.5t-10.5 -1.5q5 4 17 13.5t24 19.5q14 12 31 25q6 5 16 12.5t20 15.5
t18.5 14.5t11.5 8.5q3 3 13.5 4.5t22.5 1.5t22.5 -2t12.5 -5t7 -12t10.5 -19t10.5 -19t7 -13z" />
    <glyph glyph-name="caron" unicode="&#x2c7;" 
d="M240 635q-9 14 -17 24.5t-20 17.5q7 4 17 5t20 1q12 0 24 -2q18 -2 30.5 -14.5t29.5 -49.5q0 -1 0.5 -1.5t0.5 -1.5q36 29 49.5 40.5t15.5 13.5q16 13 31.5 11t29.5 -1h12q5 0 10.5 0.5t10.5 1.5q-5 -4 -17 -13.5t-24 -19.5q-14 -12 -31 -25q-6 -5 -16 -12.5t-20 -15.5
t-18.5 -14.5t-11.5 -8.5q-3 -3 -13.5 -4t-22.5 -1t-22.5 1.5t-12.5 4.5t-7 12t-10.5 19t-10.5 19t-7 13z" />
    <glyph glyph-name="breve" unicode="&#x2d8;" 
d="M411 655q2 6 12.5 8.5t21.5 2.5t20 -3t8 -8q-5 -24 -20 -45.5t-36 -37t-46 -25t-52 -9.5t-48 9t-35 25t-19.5 37.5t-0.5 45.5q2 8 12 10.5t21.5 2t20.5 -4t8 -8.5q-5 -26 10.5 -43t43.5 -17q27 0 49 17t30 43z" />
    <glyph glyph-name="dotaccent" unicode="&#x2d9;" 
d="M398 631q0 -19 -22 -37t-58 -18q-17 0 -23 8.5t-6 17.5q0 18 17.5 36.5t50.5 18.5q17 0 29 -5t12 -21z" />
    <glyph glyph-name="ring" unicode="&#x2da;" 
d="M351 671q35 0 47.5 -17t12.5 -34q0 -10 -4.5 -22.5t-13.5 -23.5t-22.5 -18t-30.5 -7q-20 0 -32.5 5t-19.5 13t-9.5 17.5t-2.5 18.5q0 26 22.5 47t52.5 21zM342 584q13 0 19.5 11t6.5 19t-4.5 15t-17.5 7q-11 0 -19 -9t-8 -20q0 -8 4.5 -15.5t18.5 -7.5z" />
    <glyph glyph-name="ogonek" unicode="&#x2db;" 
d="M436 -26q9 7 17 7.5t11.5 -3t2.5 -10.5t-9 -14q-21 -19 -46.5 -34t-52.5 -23.5t-53 -9.5t-47 8q-42 18 -39.5 59.5t47.5 84.5q8 7 18.5 6.5t18.5 -5t12.5 -11t0.5 -10.5q-24 -23 -25.5 -44t20.5 -30q11 -5 27 -4.5t33.5 5t34.5 12t29 16.5z" />
    <glyph glyph-name="tilde" unicode="&#x2dc;" 
d="M480 667q17 -10 17 -32q0 -12 -7.5 -23.5t-20.5 -20t-31.5 -12.5t-39.5 -1q-22 3 -39.5 9t-32 10.5t-28 6t-29.5 -4.5l-18 -8q-8 -4 -16 -8.5t-15 -9.5q-9 2 -17 9q-3 3 -5 6q-4 6 -6 12q-2 5 -2.5 10.5t2.5 10.5q12 15 29.5 23t33.5 11q19 4 39 3q26 -1 42.5 -6t30 -10
t27.5 -8t36 0q7 1 16 5q7 4 16 10.5t18 17.5z" />
    <glyph glyph-name="hungarumlaut" unicode="&#x2dd;" 
d="M312 680q8 6 19 -1.5t16 -23.5q7 -20 1 -30.5t-18 -18.5q-6 -4 -22 -13t-35 -18.5t-37.5 -16.5t-28.5 -8q-21 -2 -25.5 10t-5.5 23q39 27 65 45.5t42 30.5q18 13 29 21zM472 680q8 6 19 -1.5t16 -23.5q7 -20 1 -30.5t-18 -18.5q-6 -4 -22 -13t-35 -18.5t-37.5 -16.5
t-28.5 -8q-21 -2 -25.5 10t-5.5 23q39 27 65 45.5t42 30.5q18 13 29 21z" />
    <glyph glyph-name="endash" unicode="&#x2013;" horiz-adv-x="354" 
d="M303 282q-27 1 -69 0.5t-84 -1.5q-27 -1 -55 -3q-27 -3 -55 -7t-55 -11q-1 7 0 15t3 14q2 8 4 15q4 9 11.5 20t13.5 14q5 2 20 4t36 3.5t47 2.5t51 1q51 1 85 -0.5t66 -4.5q14 -2 16.5 -9t-3.5 -24t-13 -23.5t-19 -5.5z" />
    <glyph glyph-name="emdash" unicode="&#x2014;" horiz-adv-x="509" 
d="M484 335q8 -2 10 -9.5t-4 -26.5q-6 -18 -13 -22.5t-14 -6.5q-3 -1 -26.5 0.5t-57 4t-73 4.5t-74.5 1q-66 -2 -119.5 -4.5t-98.5 -7.5q-20 -2 -25 7.5t-3 22.5q3 12 9 27.5t21 17.5q46 5 89.5 7t77.5 3q40 1 75 0q45 2 85 0t70 -5.5t48.5 -7t22.5 -5.5z" />
    <glyph glyph-name="quoteleft" unicode="&#x2018;" horiz-adv-x="105" 
d="M117 574q15 -2 25.5 -14.5t7.5 -35.5q-4 -29 -29 -48t-53 -15q-26 3 -33.5 24.5t-2.5 48.5q3 14 9 32.5t16.5 38t27 38.5t38.5 33q9 6 15 5t8 -5.5t0 -10.5t-7 -12q-10 -12 -22.5 -33.5t-17.5 -47.5q10 3 18 2z" />
    <glyph glyph-name="quoteright" unicode="&#x2019;" horiz-adv-x="110" 
d="M84 563q-16 2 -26 14t-7 35q4 29 28.5 48t53.5 16q25 -3 32.5 -25t2.5 -48q-2 -14 -8 -32.5t-17 -38t-27 -38.5t-39 -33q-9 -6 -14.5 -5.5t-7.5 5t-0.5 11t6.5 12.5q11 11 23 32.5t17 47.5q-5 -1 -9 -1.5t-8 0.5z" />
    <glyph glyph-name="quotesinglbase" unicode="&#x201a;" horiz-adv-x="120" 
d="M13 101q25 -3 32.5 -25t2.5 -49q-2 -14 -8 -32.5t-17 -38t-27 -38.5t-39 -33q-9 -6 -14.5 -5t-7.5 5.5t-0.5 11t6.5 11.5q11 12 23 33.5t17 47.5q-10 -3 -17 -2q-16 2 -26 14.5t-7 35.5q4 29 28.5 48t53.5 16z" />
    <glyph glyph-name="quotedblleft" unicode="&#x201c;" horiz-adv-x="239" 
d="M117 574q15 -2 25.5 -14.5t7.5 -35.5q-4 -29 -29 -48t-53 -15q-26 3 -33.5 24.5t-2.5 48.5q3 14 9 32.5t16.5 38t27 38.5t38.5 33q9 6 15 5t8 -5.5t0 -10.5t-7 -12q-10 -12 -22.5 -33.5t-17.5 -47.5q10 3 18 2zM250 574q16 -2 26.5 -14.5t7.5 -35.5q-4 -29 -29 -48
t-53 -15q-26 3 -33.5 24.5t-2.5 48.5q3 14 9 32.5t16.5 38t27 38.5t38.5 33q9 6 15 5t8 -5.5t0 -10.5t-7 -12q-11 -12 -23 -33.5t-17 -47.5q10 3 17 2z" />
    <glyph glyph-name="quotedblright" unicode="&#x201d;" horiz-adv-x="244" 
d="M266 681q26 -3 33.5 -25t2.5 -49q-3 -14 -9 -32.5t-16.5 -38t-26.5 -38.5t-39 -33q-9 -6 -15 -5t-8 5.5t0 11t7 11.5q11 12 23 33.5t17 47.5q-10 -3 -17 -2q-16 2 -26.5 14.5t-7.5 35.5q4 29 29 48t53 16zM133 681q25 -3 32.5 -25t2.5 -49q-2 -14 -8 -32.5t-17 -38
t-27 -38.5t-39 -33q-9 -6 -14.5 -5t-7.5 5.5t-0.5 11t6.5 11.5q11 12 23 33.5t17 47.5q-10 -3 -17 -2q-16 2 -26 14.5t-7 35.5q4 29 28.5 48t53.5 16z" />
    <glyph glyph-name="quotedblbase" unicode="&#x201e;" horiz-adv-x="254" 
d="M146 101q26 -3 33.5 -25t2.5 -49q-3 -14 -9 -32.5t-16.5 -38t-26.5 -38.5t-39 -33q-9 -6 -15 -5t-8 5.5t0 11t7 11.5q11 12 23 33.5t17 47.5q-10 -3 -17 -2q-16 2 -26.5 14.5t-7.5 35.5q4 29 29 48t53 16zM13 101q25 -3 32.5 -25t2.5 -49q-2 -14 -8 -32.5t-17 -38
t-27 -38.5t-39 -33q-9 -6 -14.5 -5t-7.5 5.5t-0.5 11t6.5 11.5q11 12 23 33.5t17 47.5q-10 -3 -17 -2q-16 2 -26 14.5t-7 35.5q4 29 28.5 48t53.5 16z" />
    <glyph glyph-name="dagger" unicode="&#x2020;" horiz-adv-x="254" 
d="M279 425q-43 2 -107 0q-23 -93 -44 -187.5t-34 -169.5q-12 -63 -23 -122q-6 -35 -10 -59t-8 -49t-8 -49t-6 -44q-13 -9 -25 -14.5t-21 -7.5q-10 -3 -19 -3q-19 0 -23 6.5t0 24.5q3 15 18 83q8 35 17.5 76.5t23 102.5t31.5 143.5t42 189.5l17 77q-23 -2 -55 -6t-64 -12
q-1 7 0 14.5t3 13.5l4 14q4 9 11.5 20t13.5 14q7 3 36 6t67 5l40 179q5 25 16 38.5t38 21.5q23 7 32.5 5t7.5 -7q-2 -7 -7.5 -28t-13.5 -52t-18.5 -71t-21.5 -85q35 -1 59 -2.5t50 -3.5q14 -2 16.5 -8.5t-3.5 -24.5q-6 -17 -13 -23.5t-19 -5.5z" />
    <glyph glyph-name="daggerdbl" unicode="&#x2021;" horiz-adv-x="254" 
d="M239 305q-39 2 -96 0q-15 -64 -28 -125t-21 -112q-12 -63 -23 -122q-6 -35 -10 -59t-8 -49t-8 -49t-6 -44q-13 -9 -25 -14.5t-21 -7.5q-10 -3 -19 -3q-19 0 -23 6.5t0 24.5q3 14 17 77q8 33 16.5 71t21 95t29.5 133t39 176q-23 -2 -59.5 -6t-73.5 -14q-1 7 0 14t3 13
q2 7 4 13q4 9 11.5 20t13.5 14q8 3 40.5 8t75.5 7l11 51q-23 -2 -55 -6t-64 -12q-1 7 0 14.5t3 13.5l4 14q4 9 11.5 20t13.5 14q7 3 36 6t67 5l40 179q5 25 16 38.5t38 21.5q23 7 32.5 5t7.5 -7q-2 -7 -7.5 -28t-13.5 -52t-18.5 -71t-21.5 -85q35 -1 59 -2.5t50 -3.5
q14 -2 16.5 -8.5t-3.5 -24.5q-6 -17 -13 -23.5t-19 -5.5q-43 2 -107 0l-6 -26t-7 -27q31 0 53 -1.5t46 -3.5q14 -2 16.5 -8.5t-3.5 -24.5q-6 -17 -13 -23.5t-19 -5.5z" />
    <glyph glyph-name="bullet" unicode="&#x2022;" horiz-adv-x="181" 
d="M51 171q-22 0 -34 9t-18 23t-7.5 30.5t-1.5 30.5q0 18 6.5 40.5t19.5 42.5t32.5 34t44.5 14q7 0 17.5 -4.5t20.5 -14t17.5 -24.5t7.5 -36q0 -27 -7.5 -53t-21 -46.5t-33 -33t-43.5 -12.5z" />
    <glyph glyph-name="ellipsis" unicode="&#x2026;" horiz-adv-x="614" 
d="M50 74q25 4 40.5 -4.5t13.5 -30.5q-1 -13 -10.5 -24t-22.5 -19.5t-27.5 -13.5t-25.5 -5q-20 0 -35 8.5t-13 28.5q2 26 27 40.5t53 19.5zM250 74q25 4 40.5 -4.5t13.5 -30.5q-1 -13 -10.5 -24t-22.5 -19.5t-27.5 -13.5t-25.5 -5q-20 0 -35 8.5t-13 28.5q2 26 27 40.5
t53 19.5zM450 74q25 4 40.5 -4.5t13.5 -30.5q-1 -13 -10.5 -24t-22.5 -19.5t-27.5 -13.5t-25.5 -5q-20 0 -35 8.5t-13 28.5q2 26 27 40.5t53 19.5z" />
    <glyph glyph-name="perthousand" unicode="&#x2030;" horiz-adv-x="852" 
d="M40 522q0 27 10.5 62.5t30.5 67t50 53t69 21.5q10 0 26.5 -7t32.5 -22t27.5 -38.5t11.5 -56.5q0 -41 -11.5 -81.5t-33 -72.5t-51.5 -51.5t-67 -19.5q-34 0 -53 14.5t-28.5 36t-11.5 47t-2 47.5zM235 586q1 15 -0.5 30.5t-5.5 28.5t-10.5 21t-15.5 8q-21 0 -39.5 -17
t-32.5 -42t-22 -54t-8 -53q0 -28 7.5 -51.5t31.5 -23.5q25 0 42.5 20t29 46t17 51.5t6.5 35.5zM434 333q11 0 27.5 -7t32 -21.5t27 -38t11.5 -56.5q0 -41 -11.5 -81.5t-33 -72.5t-51.5 -52t-67 -20q-34 0 -53 14.5t-28.5 36.5t-11.5 47t-2 47q0 27 10.5 62.5t30.5 67t50 53
t69 21.5zM469 194q2 15 0.5 30.5t-6 28t-11 21t-15.5 8.5q-21 0 -39.5 -17t-32 -42t-21.5 -54t-8 -53q0 -29 7.5 -52t31.5 -23q25 0 42.5 20t29 46t16.5 51.5t6 35.5zM545 731q24 5 32.5 3.5t6.5 -5.5q-5 -7 -26 -35t-50.5 -68.5t-65.5 -90.5t-72.5 -101.5t-70.5 -101.5
t-59 -91q-29 -46 -57 -90q-16 -26 -27 -43.5t-22 -36t-21.5 -36.5t-18.5 -32q-16 -7 -29 -11t-23 -6q-11 -2 -20 -2q-20 0 -22 5t7 18q8 11 42 61q18 26 39 56.5t52 75.5t72.5 106t95.5 140l165 240q13 19 27.5 28.5t44.5 16.5zM714 333q11 0 27.5 -7t32 -21.5t27 -38
t11.5 -56.5q0 -41 -11.5 -81.5t-33 -72.5t-51.5 -52t-67 -20q-34 0 -53 14.5t-28.5 36.5t-11.5 47t-2 47q0 27 10.5 62.5t30.5 67t50 53t69 21.5zM749 194q2 15 0.5 30.5t-6 28t-11 21t-15.5 8.5q-21 0 -39.5 -17t-32 -42t-21.5 -54t-8 -53q0 -29 7.5 -52t31.5 -23
q25 0 42.5 20t29 46t16.5 51.5t6 35.5z" />
    <glyph glyph-name="guilsinglleft" unicode="&#x2039;" horiz-adv-x="202" 
d="M166 387q19 3 23 -1t2 -6q-3 -5 -17 -23.5t-35 -45.5t-46 -59t-50 -65q3 -6 12 -29q8 -21 24 -59t45 -106q-4 -3 -9 -4l-10 -2t-11 -1q-13 0 -17 2.5t-6 8.5q0 1 -8.5 15t-21 35t-26.5 45t-26.5 44.5t-20.5 35t-8 15.5q2 4 19 23q16 17 47 51.5t89 97.5q11 12 20 18
t31 10z" />
    <glyph glyph-name="guilsinglright" unicode="&#x203a;" horiz-adv-x="202" 
d="M-44 -14q-19 -3 -23 1.5t-2 6.5q3 4 17 22.5t35 45.5t46 59.5t50 65.5q-3 6 -12 29q-8 21 -24 59t-45 106q4 2 9 3.5t10 1.5q5 1 11 1q13 0 17 -2t6 -8q1 -1 9 -15.5t20.5 -35t26.5 -44.5t26.5 -45t20.5 -35t8 -15q-2 -4 -19 -23q-16 -18 -47 -52.5t-89 -97.5
q-11 -11 -20 -17t-31 -11z" />
    <glyph glyph-name="fraction" unicode="&#x2044;" horiz-adv-x="601" 
d="M572 731q24 5 32.5 3.5t6.5 -5.5q-5 -7 -26 -35t-50.5 -68.5t-65.5 -90.5t-72.5 -101.5t-70.5 -101.5t-59 -91q-29 -46 -57 -90q-16 -26 -27 -43.5t-22 -36t-21.5 -36.5t-18.5 -32q-16 -7 -29 -11t-23 -6q-11 -2 -20 -2q-20 0 -22 5t7 18q8 11 42 61q18 26 39 56.5
t52 75.5t72.5 106t95.5 140l165 240q13 19 27.5 28.5t44.5 16.5z" />
    <glyph glyph-name="Euro" unicode="&#x20ac;" horiz-adv-x="335" 
d="M286 655q21 -1 39 -11q18 -8 34 -25.5t26 -50.5q-2 -2 -8.5 -12.5t-18.5 -18.5q-7 -5 -13.5 -7.5t-11.5 1.5q-4 2 -5.5 8t-1.5 11q0 9 -2.5 19.5t-7.5 19.5t-13.5 15.5t-21.5 6.5q-19 0 -39 -17t-38.5 -43t-35.5 -58.5t-30 -63.5q0 -1 -0.5 -1.5t-0.5 -1.5h14
q23 0 44.5 -1t40 -2.5t31.5 -3t18 -2.5q9 -2 9.5 -8t-4.5 -15q-2 -3 -5 -7q-2 -3 -5 -6.5t-7 -6.5q-31 2 -56 2.5t-43 0.5h-39q-4 1 -7.5 0.5t-8.5 -0.5q-3 -11 -6 -20t-6 -19h7q44 1 73.5 0.5t55.5 -2.5q12 -1 14 -6t-3 -18t-10.5 -18t-16.5 -4q-23 0 -59 -0.5t-72 -2.5v0
q-5 -23 -7 -39.5t-3 -26.5q-1 -11 0.5 -30.5t8 -38.5t19.5 -33t36 -14q25 0 57.5 25t60.5 62q7 2 15 -1q4 -2 7 -4q3 -3 6 -5q5 -7 3 -11q-24 -39 -49.5 -60t-46.5 -31q-25 -11 -48 -13q-30 0 -55.5 16t-44 43.5t-27.5 65t-6 79.5q0 2 0.5 5t0.5 5q-12 -1 -24 -3
q-11 -2 -22.5 -4t-21.5 -4q-1 5 0 11t2 11q2 5 4 11q3 7 9.5 15t11.5 10q4 2 17 3t32 3l9 36l-18 -2t-18.5 -2t-18.5 -2q-2 5 -1.5 11t1.5 12q2 6 5 13q3 6 7 12q4 4 8 7.5t9 3.5q6 0 13.5 0.5t14.5 0.5q8 1 16 1q17 46 41 87.5t53 73t63 50.5t71 19z" />
    <glyph glyph-name="trademark" unicode="&#x2122;" horiz-adv-x="471" 
d="M287 576q1 2 4.5 4.5t8.5 5.5q5 2 11 5q18 6 23.5 1.5t5.5 -13.5q1 -12 1.5 -23t0.5 -20v-18q0 -10 -1 -28t-3 -37.5t-3 -38t-1 -30.5v-1q10 24 20.5 47t15.5 36l12.5 27.5l15 33t14.5 30t10 19.5q3 5 9 8.5t13.5 6t13.5 3.5t9 0q6 -2 8.5 -4t3.5 -4q3 -7 2 -20t-8.5 -47
t-16 -73.5t-16 -78t-9.5 -62.5v-10t4.5 -18.5t14 -16.5t28.5 -5q-22 -16 -34 -20.5t-21 -4.5q-22 -1 -33.5 13.5t-9.5 36.5q0 7 3 20.5t6.5 31.5t8.5 39l10 42q8 29 14 56t11 45q-7 -14 -14.5 -29.5t-14.5 -29.5q-9 -20 -18 -40.5t-16.5 -39t-12 -33t-4.5 -22.5v-5
q0 -7 1 -13l-19 -13q-8 -4 -12 -4q-11 0 -18 12q-5 9 -9 34.5t-2 60.5t6 69.5t5 54.5v1q-5 -18 -11 -42.5l-12 -49t-11 -46t-8 -33.5q-4 -15 -8 -34.5t-10 -36.5q-5 -17 -15.5 -30.5t-27.5 -14.5q-33 -1 -44 24.5t-8 62.5q2 15 7 31q5 14 14.5 30t25.5 32q9 -2 13 -7
q2 -2 2 -4q1 -3 0 -6.5t-2 -5.5q-2 -3 -3 -5.5t-3 -5.5q-8 -17 -12 -32.5t-6 -28.5q-2 -20 0.5 -32.5t5.5 -12.5q2 0 5 7q4 7 11 28.5t12 45.5q6 25 12 55.5t18 64.5q1 2 10.5 32.5t26.5 73.5v-1zM247 569q-1 -3 -3 -5q-4 -7 -9 -9q-21 1 -38.5 1h-25.5q-5 -18 -12 -43.5
t-14.5 -53t-14 -54.5t-9.5 -49q-4 -22 -8 -43l-6 -38t-5 -33q-8 -4 -14 -6.5t-11 -3.5t-10 -1q-20 0 -16 17q1 5 7 29q5 21 14.5 61.5t27.5 115.5l23 99q-20 -3 -38.5 -7.5t-26.5 -6.5q-13 -3 -16 5t-1 16q1 7 4.5 15t11.5 10q18 3 35 4.5t31 2.5q15 1 29 1h12h10
q4 -1 26 -2t47 -4q2 -5 1 -12q0 -3 -1 -6z" />
    <glyph glyph-name="partialdiff" unicode="&#x2202;" horiz-adv-x="474" 
d="M103 -24q-48 0 -75 31.5t-34.5 80.5t3.5 107t38 111t56.5 85t57.5 50t52 24t41 6q29 0 58 -22t38 -75q19 69 23 126t-2 97.5t-20 63t-31 22.5q-13 0 -25 -11.5t-20.5 -30.5t-12.5 -44t-1 -52q-17 -5 -30.5 -4.5t-22.5 2.5q-11 3 -19 9q-10 8 -11 21t3.5 28.5t13 31.5
t17.5 30q21 32 48.5 51.5t72.5 19.5q41 0 67 -25t40 -66t16 -93.5t-5.5 -108.5t-24 -111t-40.5 -100q-37 -71 -75 -119.5t-73.5 -78.5t-67 -43t-55.5 -13zM318 313q-7 -8 -15 -16.5t-17 -13.5q-20 -13 -25.5 -11.5t-3.5 26.5q2 14 3.5 35t-1 40t-12 32.5t-29.5 13.5
q-25 0 -48 -23t-44 -63q-21 -39 -34.5 -91t-16.5 -98t7 -78t38 -32q20 0 42 18.5t42 43t35 49t21 35.5q18 35 32.5 68t25.5 65z" />
    <glyph glyph-name="minus" unicode="&#x2212;" horiz-adv-x="354" 
d="M303 282q-27 1 -69 0.5t-84 -1.5q-27 -1 -55 -3q-27 -3 -55 -7t-55 -11q-1 7 0 15t3 14q2 8 4 15q4 9 11.5 20t13.5 14q5 2 20 4t36 3.5t47 2.5t51 1q51 1 85 -0.5t66 -4.5q14 -2 16.5 -9t-3.5 -24t-13 -23.5t-19 -5.5z" />
    <glyph glyph-name="integral" unicode="&#x222b;" horiz-adv-x="401" 
d="M393 734q45 0 62.5 -19.5t22.5 -51.5q2 -14 2.5 -30t-3 -31.5t-11.5 -28.5t-22 -21q-11 -6 -23 -9t-25 -3t-28 5q17 27 26 52t10.5 44t-4.5 30.5t-20 11.5q-17 0 -40.5 -21.5t-49 -61.5t-51 -97.5t-47.5 -128.5q-13 -43 -30 -109t-38.5 -140t-47.5 -148t-59 -133.5
t-72.5 -96.5t-86.5 -37q-23 0 -38.5 7t-25.5 18t-15.5 23t-6.5 23q-2 14 -2 30t3.5 31.5t11 28.5t21.5 21q11 6 23 9t25.5 3.5t28.5 -4.5q-17 -27 -25.5 -51.5t-9.5 -42.5t5.5 -29t19.5 -11q19 0 38.5 21.5t38.5 58t38 83.5t36 98.5t31.5 104t26.5 98.5q13 52 30 109.5
t38 113.5t46.5 107t55.5 89.5t65.5 61.5t75.5 23z" />
    <glyph glyph-name="notequal" unicode="&#x2260;" horiz-adv-x="374" 
d="M284 560q5 5 11.5 2.5t16.5 -17.5q11 -16 11 -24.5t-2 -15.5q-1 -3 -12 -21t-27 -44q20 -1 36 -2t34 -3q14 -2 16.5 -8.5t-3.5 -24.5q-6 -17 -13 -23.5t-19 -5.5q-37 2 -91 0q-8 -13 -15 -26t-14 -27q31 0 53 -1.5t46 -3.5q14 -2 16.5 -8.5t-3.5 -24.5q-6 -17 -13 -23.5
t-19 -5.5q-45 2 -114 0q-19 -38 -34.5 -71.5t-27.5 -63.5q-8 -19 -17 -18t-17 10q-7 9 -15 23t-3 28q10 23 20 45.5t19 42.5q-23 -2 -51.5 -6t-57.5 -12q-1 7 0 14t3 13q2 7 4 13q4 9 11.5 20t13.5 14q8 3 39.5 8t73.5 7q10 20 17 33t10 18q-23 -1 -59 -4.5t-73 -13.5
q-1 7 0 14.5t3 13.5l4 14q4 9 11.5 20t13.5 14q4 2 17 4t31.5 3.5t41.5 3t47 1.5q30 52 53 83.5t27 35.5z" />
    <glyph glyph-name="lessequal" unicode="&#x2264;" horiz-adv-x="339" 
d="M109 344q6 -8 12.5 -16t11.5 -14l36 -44q17 -20 33 -39t29 -34q-4 -2 -13 -3.5t-18 -1.5q-10 -1 -22 -1q-27 0 -36 2t-14 9q-1 2 -13 15t-28.5 33t-35 43.5t-34.5 45.5q-2 3 -6 8t-4 7q0 1 2 3t5.5 4.5t10.5 6.5l188 111q14 9 31.5 14t57.5 8q34 2 41.5 -1t4.5 -5
q-6 -4 -29.5 -18.5t-57.5 -35.5t-74 -46.5t-78 -50.5zM243 71q-27 2 -69 1l-84 -2q-27 -1 -55 -3q-27 -3 -55 -7t-55 -11q-1 7 0 15t3 14q2 8 4 15q4 9 11.5 20t13.5 14q4 2 19.5 4t36.5 4t47 3t51 1q51 0 85 -1.5t66 -4.5q14 -2 16.5 -8.5t-3.5 -24.5q-6 -17 -13 -23.5
t-19 -5.5z" />
    <glyph glyph-name="greaterequal" unicode="&#x2265;" horiz-adv-x="334" 
d="M193 491q2 -2 13.5 -15.5t28 -33t35.5 -43t35 -45.5q2 -4 5.5 -8.5t3.5 -7.5q0 -1 -2 -3t-5.5 -4.5t-10.5 -6.5l-188 -111q-14 -8 -31 -13t-58 -8q-33 -2 -41 1t-5 5q6 3 30 18t58 36t74 46.5t78 50.5q-6 8 -13 16t-12 13q-18 23 -36 44q-16 20 -32.5 39.5t-28.5 33.5
q4 3 12.5 4t17.5 2q11 1 23 1q26 0 35 -2t14 -9zM243 71q-27 2 -69 1l-84 -2q-27 -1 -55 -3q-27 -3 -55 -7t-55 -11q-1 7 0 15t3 14q2 8 4 15q4 9 11.5 20t13.5 14q4 2 19.5 4t36.5 4t47 3t51 1q51 0 85 -1.5t66 -4.5q14 -2 16.5 -8.5t-3.5 -24.5q-6 -17 -13 -23.5t-19 -5.5
z" />
    </font>
</defs>
</svg>
